{"glyphs":{"0":{"ha":779,"x_min":56,"x_max":724,"o":"m 389 899 q 572 841 496 899 q 685 682 647 783 q 724 451 724 581 q 685 217 724 321 q 571 51 646 113 q 389 -10 496 -10 q 208 51 283 -10 q 94 217 133 113 q 56 451 56 321 q 94 682 56 581 q 208 841 132 783 q 389 899 283 899 m 389 29 q 572 150 508 29 q 636 451 636 271 q 573 744 636 629 q 389 860 510 860 q 206 744 269 860 q 143 451 143 629 q 206 150 143 271 q 389 29 269 29 z "},"1":{"ha":354,"x_min":28,"x_max":328,"o":"m 229 113 q 258 37 229 58 q 328 15 288 15 l 328 0 l 213 0 l 169 0 l 43 0 l 43 15 q 119 37 88 15 q 151 113 151 58 l 151 824 l 229 885 l 229 113 m 28 753 l 225 894 l 229 894 l 229 810 l 36 735 l 28 753 z "},"2":{"ha":735,"x_min":49,"x_max":681,"o":"m 658 672 q 637 572 658 614 q 581 497 615 529 q 479 413 546 464 l 472 407 l 279 258 q 172 138 206 203 q 138 0 138 72 l 49 0 q 100 159 56 85 q 233 304 144 233 l 422 456 l 438 468 q 515 533 489 508 q 556 592 540 558 q 571 672 571 625 q 524 806 571 754 q 383 857 476 857 q 231 806 289 857 q 172 664 172 756 q 181 585 172 625 q 213 499 190 544 l 103 485 q 81 617 81 551 q 117 763 81 699 q 223 863 154 826 q 383 899 292 899 q 538 867 476 899 q 629 783 600 835 q 658 672 658 732 m 553 61 q 633 100 607 63 q 667 188 660 138 l 681 186 l 663 43 l 657 0 l 92 0 l 92 51 l 553 61 z "},"3":{"ha":696,"x_min":56,"x_max":647,"o":"m 56 274 q 63 357 56 315 l 160 343 q 140 226 140 285 q 193 85 140 136 q 347 33 246 33 q 507 88 453 33 q 561 238 561 143 q 503 400 561 342 q 326 458 444 458 l 310 458 l 310 507 l 326 507 q 481 547 426 507 q 535 678 535 588 q 488 807 535 757 q 353 857 442 857 q 208 809 263 857 q 154 681 154 761 q 159 631 154 657 q 172 581 164 604 l 75 567 q 67 642 67 608 q 102 771 67 713 q 202 864 138 829 q 353 899 267 899 q 551 839 481 899 q 621 688 621 779 q 563 539 621 590 q 400 475 506 488 l 400 483 q 583 408 519 469 q 647 239 647 346 q 613 113 647 169 q 510 24 578 57 q 347 -10 443 -10 q 126 69 196 -10 q 56 274 56 149 z "},"4":{"ha":686,"x_min":21,"x_max":651,"o":"m 328 0 l 328 15 q 422 37 382 15 q 463 113 463 58 l 463 229 l 21 229 l 21 238 l 517 885 l 524 885 l 639 885 l 639 869 q 569 848 599 869 q 540 772 540 826 l 540 281 l 651 281 l 651 268 l 540 233 l 540 113 q 570 37 540 58 q 640 15 600 15 l 640 0 l 524 0 l 486 0 l 328 0 m 463 764 l 139 281 l 463 281 l 463 764 z "},"5":{"ha":672,"x_min":42,"x_max":624,"o":"m 571 701 l 557 704 q 555 788 568 753 q 488 824 542 822 l 144 833 l 144 885 l 615 885 l 604 842 l 571 701 m 42 243 q 44 314 42 285 q 57 375 47 343 l 167 360 q 135 226 135 303 q 183 83 135 132 q 326 33 232 33 q 481 98 425 33 q 536 301 536 163 q 480 487 536 417 q 317 557 424 557 q 190 527 249 557 q 94 458 131 497 l 89 458 l 107 885 l 163 885 l 139 515 l 128 535 q 215 581 158 563 q 331 599 271 599 q 488 561 421 599 q 589 456 554 524 q 624 301 624 389 q 547 69 624 149 q 326 -10 469 -10 q 171 24 235 -10 q 74 116 107 58 q 42 243 42 174 z "},"6":{"ha":706,"x_min":56,"x_max":650,"o":"m 147 263 q 176 401 147 344 q 255 485 206 457 q 361 514 304 514 q 512 452 461 514 q 563 281 563 390 q 508 100 563 165 q 361 35 454 35 q 207 97 267 35 q 147 263 147 158 m 385 857 q 496 819 457 857 q 535 718 535 782 q 531 678 535 699 q 529 667 531 671 l 633 654 q 635 672 633 665 l 635 689 q 603 790 635 742 q 513 869 571 839 q 382 899 456 899 q 139 767 222 899 q 56 404 56 635 q 134 90 56 186 q 361 -7 213 -7 q 511 31 446 -7 q 613 134 576 68 q 650 282 650 200 q 619 424 650 363 q 530 521 589 486 q 389 556 471 556 q 235 515 299 556 q 129 400 171 475 l 138 393 q 165 651 138 549 q 247 806 192 754 q 385 857 301 857 z "},"7":{"ha":649,"x_min":21,"x_max":644,"o":"m 644 863 q 409 481 489 682 q 319 0 329 279 l 236 0 q 285 311 249 175 q 378 557 321 447 q 521 776 436 667 l 564 829 l 144 822 q 76 781 90 821 q 71 686 61 742 l 56 683 l 28 844 l 21 885 l 644 885 l 644 863 z "},"8":{"ha":713,"x_min":56,"x_max":657,"o":"m 56 239 q 109 399 56 339 q 250 479 163 460 q 126 546 168 494 q 83 678 83 597 q 114 793 83 743 q 206 871 144 843 q 356 899 268 899 q 505 871 443 899 q 598 793 567 843 q 629 678 629 743 q 586 545 629 597 q 461 479 543 493 q 606 401 556 460 q 657 239 657 342 q 576 56 657 121 q 356 -10 494 -10 q 136 56 217 -10 q 56 239 56 121 m 143 239 q 199 87 143 140 q 356 33 254 33 q 513 87 457 33 q 569 239 569 140 q 519 399 569 340 q 367 482 468 458 q 498 551 454 506 q 542 678 542 597 q 491 808 542 758 q 356 857 440 857 q 220 808 271 857 q 169 678 169 758 q 213 551 169 596 q 344 482 257 506 q 192 400 242 458 q 143 239 143 342 z "},"9":{"ha":706,"x_min":56,"x_max":650,"o":"m 558 629 q 529 491 558 547 q 451 406 500 435 q 344 378 401 378 q 194 440 244 378 q 143 611 143 501 q 197 792 143 726 q 344 857 251 857 q 499 795 439 857 q 558 629 558 733 m 321 35 q 210 72 249 35 q 171 174 171 110 q 175 214 171 193 q 176 225 175 221 l 72 238 l 72 221 q 71 211 71 215 q 71 203 71 207 q 103 101 71 150 q 192 23 135 53 q 324 -7 250 -7 q 567 125 483 -7 q 650 488 650 257 q 572 802 650 706 q 344 899 493 899 q 194 861 260 899 q 92 758 129 824 q 56 610 56 692 q 86 467 56 529 q 176 371 117 406 q 317 336 235 336 q 471 376 407 336 q 576 492 535 417 l 568 499 q 541 240 568 343 q 459 86 514 138 q 321 35 404 35 z "}," ":{"ha":306,"x_min":0,"x_max":0,"o":""},"A":{"ha":858,"x_min":11,"x_max":847,"o":"m 200 108 q 215 35 185 56 q 299 15 246 15 l 299 0 l 146 0 l 128 0 l 11 0 l 11 15 q 90 36 53 15 q 143 108 128 57 l 344 776 q 318 849 360 829 q 210 869 276 869 l 210 885 l 404 885 l 485 885 l 717 108 q 769 36 732 57 q 847 15 807 15 l 847 0 l 732 0 l 689 0 l 533 0 l 533 15 q 618 35 586 15 q 635 108 650 56 l 408 865 l 428 865 l 200 108 m 643 331 l 643 279 l 217 279 l 217 331 l 643 331 z "},"Á":{"ha":858,"x_min":11,"x_max":847,"o":"m 200 108 q 215 35 185 56 q 299 15 246 15 l 299 0 l 146 0 l 128 0 l 11 0 l 11 15 q 90 36 53 15 q 143 108 128 57 l 344 776 q 318 849 360 829 q 210 869 276 869 l 210 885 l 404 885 l 485 885 l 717 108 q 769 36 732 57 q 847 15 807 15 l 847 0 l 732 0 l 689 0 l 533 0 l 533 15 q 618 35 586 15 q 635 108 650 56 l 408 865 l 428 865 l 200 108 m 643 331 l 643 279 l 217 279 l 217 331 l 643 331 z "},"Ă":{"ha":858,"x_min":11,"x_max":847,"o":"m 200 108 q 215 35 185 56 q 299 15 246 15 l 299 0 l 146 0 l 128 0 l 11 0 l 11 15 q 90 36 53 15 q 143 108 128 57 l 344 776 q 318 849 360 829 q 210 869 276 869 l 210 885 l 404 885 l 485 885 l 717 108 q 769 36 732 57 q 847 15 807 15 l 847 0 l 732 0 l 689 0 l 533 0 l 533 15 q 618 35 586 15 q 635 108 650 56 l 408 865 l 428 865 l 200 108 m 643 331 l 643 279 l 217 279 l 217 331 l 643 331 z "},"Â":{"ha":858,"x_min":11,"x_max":847,"o":"m 200 108 q 215 35 185 56 q 299 15 246 15 l 299 0 l 146 0 l 128 0 l 11 0 l 11 15 q 90 36 53 15 q 143 108 128 57 l 344 776 q 318 849 360 829 q 210 869 276 869 l 210 885 l 404 885 l 485 885 l 717 108 q 769 36 732 57 q 847 15 807 15 l 847 0 l 732 0 l 689 0 l 533 0 l 533 15 q 618 35 586 15 q 635 108 650 56 l 408 865 l 428 865 l 200 108 m 643 331 l 643 279 l 217 279 l 217 331 l 643 331 m 386 1103 l 417 1103 l 549 953 l 465 953 l 403 1039 l 338 953 l 256 953 l 386 1103 z "},"Ä":{"ha":858,"x_min":11,"x_max":847,"o":"m 200 108 q 215 35 185 56 q 299 15 246 15 l 299 0 l 146 0 l 128 0 l 11 0 l 11 15 q 90 36 53 15 q 143 108 128 57 l 344 776 q 318 849 360 829 q 210 869 276 869 l 210 885 l 404 885 l 485 885 l 717 108 q 769 36 732 57 q 847 15 807 15 l 847 0 l 732 0 l 689 0 l 533 0 l 533 15 q 618 35 586 15 q 635 108 650 56 l 408 865 l 428 865 l 200 108 m 643 331 l 643 279 l 217 279 l 217 331 l 643 331 m 299 1107 l 379 1026 l 299 946 l 218 1026 l 299 1107 m 507 1107 l 586 1026 l 507 946 l 426 1026 l 507 1107 z "},"À":{"ha":858,"x_min":11,"x_max":847,"o":"m 200 108 q 215 35 185 56 q 299 15 246 15 l 299 0 l 146 0 l 128 0 l 11 0 l 11 15 q 90 36 53 15 q 143 108 128 57 l 344 776 q 318 849 360 829 q 210 869 276 869 l 210 885 l 404 885 l 485 885 l 717 108 q 769 36 732 57 q 847 15 807 15 l 847 0 l 732 0 l 689 0 l 533 0 l 533 15 q 618 35 586 15 q 635 108 650 56 l 408 865 l 428 865 l 200 108 m 643 331 l 643 279 l 217 279 l 217 331 l 643 331 m 354 1156 q 419 1041 383 1088 q 517 961 454 994 l 508 947 q 387 998 440 963 q 289 1090 333 1033 l 354 1156 z "},"Ā":{"ha":858,"x_min":11,"x_max":847,"o":"m 200 108 q 215 35 185 56 q 299 15 246 15 l 299 0 l 146 0 l 128 0 l 11 0 l 11 15 q 90 36 53 15 q 143 108 128 57 l 344 776 q 318 849 360 829 q 210 869 276 869 l 210 885 l 404 885 l 485 885 l 717 108 q 769 36 732 57 q 847 15 807 15 l 847 0 l 732 0 l 689 0 l 533 0 l 533 15 q 618 35 586 15 q 635 108 650 56 l 408 865 l 428 865 l 200 108 m 643 331 l 643 279 l 217 279 l 217 331 l 643 331 m 589 1049 l 589 1010 l 215 1010 l 215 1049 l 589 1049 z "},"Ą":{"ha":858,"x_min":11,"x_max":847,"o":"m 200 108 q 215 35 185 56 q 299 15 246 15 l 299 0 l 146 0 l 128 0 l 11 0 l 11 15 q 90 36 53 15 q 143 108 128 57 l 344 776 q 318 849 360 829 q 210 869 276 869 l 210 885 l 404 885 l 485 885 l 717 108 q 769 36 732 57 q 847 15 807 15 l 847 0 l 732 0 l 689 0 l 533 0 l 533 15 q 618 35 586 15 q 635 108 650 56 l 408 865 l 428 865 l 200 108 m 643 331 l 643 279 l 217 279 l 217 331 l 643 331 m 790 -239 q 688 -268 739 -268 q 597 -237 631 -268 q 564 -156 564 -207 q 606 -59 564 -104 q 711 18 647 -14 l 726 13 q 645 -60 671 -26 q 619 -136 619 -94 q 635 -177 619 -161 q 679 -193 651 -193 q 716 -185 700 -193 q 750 -162 732 -178 l 790 -239 z "},"Å":{"ha":858,"x_min":11,"x_max":847,"o":"m 200 108 q 215 35 185 56 q 299 15 246 15 l 299 0 l 146 0 l 128 0 l 11 0 l 11 15 q 90 36 53 15 q 143 108 128 57 l 344 776 q 318 849 360 829 q 210 869 276 869 l 210 885 l 404 885 l 485 885 l 717 108 q 769 36 732 57 q 847 15 807 15 l 847 0 l 732 0 l 689 0 l 533 0 l 533 15 q 618 35 586 15 q 635 108 650 56 l 408 865 l 428 865 l 200 108 m 643 331 l 643 279 l 217 279 l 217 331 l 643 331 m 403 946 q 346 969 369 946 q 322 1026 322 993 q 346 1083 322 1060 q 403 1107 369 1107 q 460 1083 436 1107 q 483 1026 483 1060 q 460 969 483 993 q 403 946 436 946 m 403 981 q 436 994 422 981 q 450 1026 450 1007 q 436 1060 450 1046 q 403 1074 422 1074 q 370 1060 383 1074 q 357 1026 357 1046 q 370 994 357 1007 q 403 981 383 981 z "},"Ã":{"ha":858,"x_min":11,"x_max":847,"o":"m 200 108 q 215 35 185 56 q 299 15 246 15 l 299 0 l 146 0 l 128 0 l 11 0 l 11 15 q 90 36 53 15 q 143 108 128 57 l 344 776 q 318 849 360 829 q 210 869 276 869 l 210 885 l 404 885 l 485 885 l 717 108 q 769 36 732 57 q 847 15 807 15 l 847 0 l 732 0 l 689 0 l 533 0 l 533 15 q 618 35 586 15 q 635 108 650 56 l 408 865 l 428 865 l 200 108 m 643 331 l 643 279 l 217 279 l 217 331 l 643 331 m 217 975 q 285 1026 247 1007 q 354 1046 322 1046 q 429 1031 392 1046 q 459 1022 443 1026 q 492 1018 475 1018 q 535 1026 517 1018 q 578 1050 554 1035 l 581 1051 l 589 1043 q 520 992 558 1011 q 450 972 482 972 q 376 988 413 972 q 346 996 363 992 q 313 1000 329 1000 q 273 993 290 1000 q 232 972 256 986 q 228 970 231 971 q 225 968 226 969 l 217 975 z "},"Æ":{"ha":1343,"x_min":69,"x_max":1301,"o":"m 69 15 q 155 33 111 15 q 225 99 199 51 l 617 786 q 625 838 636 819 q 587 863 614 856 q 522 869 560 869 l 522 885 l 697 885 l 1278 885 l 1281 854 l 1292 721 l 1278 719 q 1251 800 1274 765 q 1179 835 1229 835 l 785 835 l 785 50 l 1158 50 q 1243 85 1213 50 q 1288 165 1274 119 l 1301 161 l 1265 32 l 1257 0 l 719 0 l 590 0 l 590 10 q 668 24 635 10 q 701 72 701 38 l 701 829 l 286 99 q 277 47 267 65 q 314 22 288 29 q 378 15 340 15 l 378 0 l 206 0 l 186 0 l 69 0 l 69 15 m 761 279 l 361 279 l 361 331 l 761 331 l 761 279 m 1085 501 q 1160 524 1139 501 q 1182 576 1182 547 l 1197 576 l 1197 489 l 1197 465 l 1197 378 l 1182 378 q 1160 430 1182 407 q 1085 453 1139 453 l 765 453 l 765 501 l 1085 501 z "},"B":{"ha":776,"x_min":49,"x_max":735,"o":"m 429 885 q 622 831 557 885 q 686 679 686 778 q 624 537 686 578 q 447 483 563 496 l 447 492 q 591 467 532 485 q 692 398 650 449 q 735 250 735 347 q 703 122 735 179 q 609 33 672 65 q 453 0 546 0 l 215 0 l 215 51 l 435 51 q 601 102 553 51 q 650 250 650 153 q 584 411 650 361 q 363 461 518 461 l 215 461 l 215 508 l 363 508 q 545 554 490 508 q 600 679 600 600 q 584 765 600 732 q 523 815 568 797 q 396 833 478 833 l 211 833 l 211 885 l 429 885 m 165 0 l 49 0 l 49 15 q 119 37 89 15 q 149 113 149 58 l 149 772 q 119 848 149 826 q 49 869 89 869 l 49 885 l 165 885 l 231 885 l 231 0 l 165 0 z "},"C":{"ha":792,"x_min":42,"x_max":750,"o":"m 457 49 q 641 113 571 49 q 729 271 711 176 l 750 267 q 657 71 728 151 q 428 -10 586 -10 q 143 110 244 -10 q 42 446 42 229 q 90 682 42 579 q 224 842 138 785 q 426 899 311 899 q 667 798 590 899 q 743 550 743 697 l 743 522 l 618 538 q 636 650 636 596 q 580 802 636 744 q 429 860 524 860 q 210 756 292 860 q 129 446 129 651 q 171 227 129 317 q 286 93 213 138 q 457 49 360 49 z "},"Ć":{"ha":792,"x_min":42,"x_max":750,"o":"m 457 49 q 641 113 571 49 q 729 271 711 176 l 750 267 q 657 71 728 151 q 428 -10 586 -10 q 143 110 244 -10 q 42 446 42 229 q 90 682 42 579 q 224 842 138 785 q 426 899 311 899 q 667 798 590 899 q 743 550 743 697 l 743 522 l 618 538 q 636 650 636 596 q 580 802 636 744 q 429 860 524 860 q 210 756 292 860 q 129 446 129 651 q 171 227 129 317 q 286 93 213 138 q 457 49 360 49 z "},"Č":{"ha":792,"x_min":42,"x_max":750,"o":"m 457 49 q 641 113 571 49 q 729 271 711 176 l 750 267 q 657 71 728 151 q 428 -10 586 -10 q 143 110 244 -10 q 42 446 42 229 q 90 682 42 579 q 224 842 138 785 q 426 899 311 899 q 667 798 590 899 q 743 550 743 697 l 743 522 l 618 538 q 636 650 636 596 q 580 802 636 744 q 429 860 524 860 q 210 756 292 860 q 129 446 129 651 q 171 227 129 317 q 286 93 213 138 q 457 49 360 49 z "},"Ç":{"ha":792,"x_min":42,"x_max":750,"o":"m 457 49 q 641 113 571 49 q 729 271 711 176 l 750 267 q 657 71 728 151 q 428 -10 586 -10 q 143 110 244 -10 q 42 446 42 229 q 90 682 42 579 q 224 842 138 785 q 426 899 311 899 q 667 798 590 899 q 743 550 743 697 l 743 522 l 618 538 q 636 650 636 596 q 580 802 636 744 q 429 860 524 860 q 210 756 292 860 q 129 446 129 651 q 171 227 129 317 q 286 93 213 138 q 457 49 360 49 m 282 -187 q 289 -140 282 -157 l 350 -153 q 339 -192 339 -172 q 353 -226 339 -212 q 393 -240 368 -240 q 438 -224 421 -240 q 454 -175 454 -208 q 433 -119 454 -140 q 375 -97 413 -97 q 313 -108 343 -97 l 368 11 l 436 11 l 378 -90 l 371 -82 q 406 -76 386 -76 q 481 -99 453 -76 q 510 -175 510 -121 q 477 -248 510 -218 q 392 -278 444 -278 q 312 -251 342 -278 q 282 -187 282 -225 z "},"Ċ":{"ha":792,"x_min":42,"x_max":750,"o":"m 457 49 q 641 113 571 49 q 729 271 711 176 l 750 267 q 657 71 728 151 q 428 -10 586 -10 q 143 110 244 -10 q 42 446 42 229 q 90 682 42 579 q 224 842 138 785 q 426 899 311 899 q 667 798 590 899 q 743 550 743 697 l 743 522 l 618 538 q 636 650 636 596 q 580 802 636 744 q 429 860 524 860 q 210 756 292 860 q 129 446 129 651 q 171 227 129 317 q 286 93 213 138 q 457 49 360 49 m 410 1172 l 490 1092 l 410 1010 l 329 1092 l 410 1172 z "},"D":{"ha":815,"x_min":49,"x_max":774,"o":"m 49 0 l 49 15 q 119 37 89 15 q 149 113 149 58 l 149 772 q 119 848 149 826 q 49 869 89 869 l 49 885 l 165 885 l 231 885 l 231 0 l 165 0 l 49 0 m 325 51 q 589 152 490 51 q 688 442 688 253 q 589 732 688 631 q 325 833 490 833 l 208 833 l 208 885 l 353 885 q 660 771 547 885 q 774 442 774 657 q 660 113 774 226 q 353 0 547 0 l 208 0 l 208 51 l 325 51 z "},"Ð":{"ha":815,"x_min":17,"x_max":774,"o":"m 49 0 l 49 15 q 119 37 89 15 q 149 113 149 58 l 149 772 q 119 848 149 826 q 49 869 89 869 l 49 885 l 165 885 l 231 885 l 231 0 l 165 0 l 49 0 m 325 51 q 589 152 490 51 q 688 442 688 253 q 589 732 688 631 q 325 833 490 833 l 208 833 l 208 885 l 353 885 q 660 771 547 885 q 774 442 774 657 q 660 113 774 226 q 353 0 547 0 l 208 0 l 208 51 l 325 51 m 475 461 l 475 422 l 17 422 l 17 461 l 475 461 z "},"Ď":{"ha":815,"x_min":49,"x_max":774,"o":"m 49 0 l 49 15 q 119 37 89 15 q 149 113 149 58 l 149 772 q 119 848 149 826 q 49 869 89 869 l 49 885 l 165 885 l 231 885 l 231 0 l 165 0 l 49 0 m 325 51 q 589 152 490 51 q 688 442 688 253 q 589 732 688 631 q 325 833 490 833 l 208 833 l 208 885 l 353 885 q 660 771 547 885 q 774 442 774 657 q 660 113 774 226 q 353 0 547 0 l 208 0 l 208 51 l 325 51 z "},"Đ":{"ha":815,"x_min":17,"x_max":774,"o":"m 49 0 l 49 15 q 119 37 89 15 q 149 113 149 58 l 149 772 q 119 848 149 826 q 49 869 89 869 l 49 885 l 165 885 l 231 885 l 231 0 l 165 0 l 49 0 m 325 51 q 589 152 490 51 q 688 442 688 253 q 589 732 688 631 q 325 833 490 833 l 208 833 l 208 885 l 353 885 q 660 771 547 885 q 774 442 774 657 q 660 113 774 226 q 353 0 547 0 l 208 0 l 208 51 l 325 51 m 475 461 l 475 422 l 17 422 l 17 461 l 475 461 z "},"E":{"ha":792,"x_min":49,"x_max":750,"o":"m 726 719 l 713 718 q 686 799 708 764 q 614 833 664 833 l 211 833 l 211 885 l 713 885 l 715 853 l 726 719 m 606 51 q 691 88 660 51 q 735 174 722 125 l 750 169 l 713 32 l 704 0 l 215 0 l 215 51 l 606 51 m 49 15 q 119 37 89 15 q 149 113 149 58 l 149 772 q 119 848 149 826 q 49 869 89 869 l 49 885 l 165 885 l 231 885 l 231 0 l 165 0 l 49 0 l 49 15 m 531 501 q 606 524 585 501 q 628 576 628 547 l 643 576 l 643 489 l 643 465 l 643 378 l 628 378 q 606 430 628 407 q 531 453 585 453 l 211 453 l 211 501 l 531 501 z "},"É":{"ha":792,"x_min":49,"x_max":750,"o":"m 726 719 l 713 718 q 686 799 708 764 q 614 833 664 833 l 211 833 l 211 885 l 713 885 l 715 853 l 726 719 m 606 51 q 691 88 660 51 q 735 174 722 125 l 750 169 l 713 32 l 704 0 l 215 0 l 215 51 l 606 51 m 49 15 q 119 37 89 15 q 149 113 149 58 l 149 772 q 119 848 149 826 q 49 869 89 869 l 49 885 l 165 885 l 231 885 l 231 0 l 165 0 l 49 0 l 49 15 m 531 501 q 606 524 585 501 q 628 576 628 547 l 643 576 l 643 489 l 643 465 l 643 378 l 628 378 q 606 430 628 407 q 531 453 585 453 l 211 453 l 211 501 l 531 501 z "},"Ě":{"ha":792,"x_min":49,"x_max":750,"o":"m 726 719 l 713 718 q 686 799 708 764 q 614 833 664 833 l 211 833 l 211 885 l 713 885 l 715 853 l 726 719 m 606 51 q 691 88 660 51 q 735 174 722 125 l 750 169 l 713 32 l 704 0 l 215 0 l 215 51 l 606 51 m 49 15 q 119 37 89 15 q 149 113 149 58 l 149 772 q 119 848 149 826 q 49 869 89 869 l 49 885 l 165 885 l 231 885 l 231 0 l 165 0 l 49 0 l 49 15 m 531 501 q 606 524 585 501 q 628 576 628 547 l 643 576 l 643 489 l 643 465 l 643 378 l 628 378 q 606 430 628 407 q 531 453 585 453 l 211 453 l 211 501 l 531 501 z "},"Ê":{"ha":792,"x_min":49,"x_max":750,"o":"m 726 719 l 713 718 q 686 799 708 764 q 614 833 664 833 l 211 833 l 211 885 l 713 885 l 715 853 l 726 719 m 606 51 q 691 88 660 51 q 735 174 722 125 l 750 169 l 713 32 l 704 0 l 215 0 l 215 51 l 606 51 m 49 15 q 119 37 89 15 q 149 113 149 58 l 149 772 q 119 848 149 826 q 49 869 89 869 l 49 885 l 165 885 l 231 885 l 231 0 l 165 0 l 49 0 l 49 15 m 531 501 q 606 524 585 501 q 628 576 628 547 l 643 576 l 643 489 l 643 465 l 643 378 l 628 378 q 606 430 628 407 q 531 453 585 453 l 211 453 l 211 501 l 531 501 m 394 1103 l 425 1103 l 557 953 l 474 953 l 411 1039 l 346 953 l 264 953 l 394 1103 z "},"Ë":{"ha":792,"x_min":49,"x_max":750,"o":"m 726 719 l 713 718 q 686 799 708 764 q 614 833 664 833 l 211 833 l 211 885 l 713 885 l 715 853 l 726 719 m 606 51 q 691 88 660 51 q 735 174 722 125 l 750 169 l 713 32 l 704 0 l 215 0 l 215 51 l 606 51 m 49 15 q 119 37 89 15 q 149 113 149 58 l 149 772 q 119 848 149 826 q 49 869 89 869 l 49 885 l 165 885 l 231 885 l 231 0 l 165 0 l 49 0 l 49 15 m 531 501 q 606 524 585 501 q 628 576 628 547 l 643 576 l 643 489 l 643 465 l 643 378 l 628 378 q 606 430 628 407 q 531 453 585 453 l 211 453 l 211 501 l 531 501 m 307 1107 l 388 1026 l 307 946 l 226 1026 l 307 1107 m 515 1107 l 594 1026 l 515 946 l 435 1026 l 515 1107 z "},"Ė":{"ha":792,"x_min":49,"x_max":750,"o":"m 726 719 l 713 718 q 686 799 708 764 q 614 833 664 833 l 211 833 l 211 885 l 713 885 l 715 853 l 726 719 m 606 51 q 691 88 660 51 q 735 174 722 125 l 750 169 l 713 32 l 704 0 l 215 0 l 215 51 l 606 51 m 49 15 q 119 37 89 15 q 149 113 149 58 l 149 772 q 119 848 149 826 q 49 869 89 869 l 49 885 l 165 885 l 231 885 l 231 0 l 165 0 l 49 0 l 49 15 m 531 501 q 606 524 585 501 q 628 576 628 547 l 643 576 l 643 489 l 643 465 l 643 378 l 628 378 q 606 430 628 407 q 531 453 585 453 l 211 453 l 211 501 l 531 501 m 411 1172 l 492 1092 l 411 1010 l 331 1092 l 411 1172 z "},"È":{"ha":792,"x_min":49,"x_max":750,"o":"m 726 719 l 713 718 q 686 799 708 764 q 614 833 664 833 l 211 833 l 211 885 l 713 885 l 715 853 l 726 719 m 606 51 q 691 88 660 51 q 735 174 722 125 l 750 169 l 713 32 l 704 0 l 215 0 l 215 51 l 606 51 m 49 15 q 119 37 89 15 q 149 113 149 58 l 149 772 q 119 848 149 826 q 49 869 89 869 l 49 885 l 165 885 l 231 885 l 231 0 l 165 0 l 49 0 l 49 15 m 531 501 q 606 524 585 501 q 628 576 628 547 l 643 576 l 643 489 l 643 465 l 643 378 l 628 378 q 606 430 628 407 q 531 453 585 453 l 211 453 l 211 501 l 531 501 m 363 1156 q 427 1041 392 1088 q 525 961 463 994 l 517 947 q 395 998 449 963 q 297 1090 342 1033 l 363 1156 z "},"Ē":{"ha":792,"x_min":49,"x_max":750,"o":"m 726 719 l 713 718 q 686 799 708 764 q 614 833 664 833 l 211 833 l 211 885 l 713 885 l 715 853 l 726 719 m 606 51 q 691 88 660 51 q 735 174 722 125 l 750 169 l 713 32 l 704 0 l 215 0 l 215 51 l 606 51 m 49 15 q 119 37 89 15 q 149 113 149 58 l 149 772 q 119 848 149 826 q 49 869 89 869 l 49 885 l 165 885 l 231 885 l 231 0 l 165 0 l 49 0 l 49 15 m 531 501 q 606 524 585 501 q 628 576 628 547 l 643 576 l 643 489 l 643 465 l 643 378 l 628 378 q 606 430 628 407 q 531 453 585 453 l 211 453 l 211 501 l 531 501 m 597 1049 l 597 1010 l 224 1010 l 224 1049 l 597 1049 z "},"Ę":{"ha":792,"x_min":49,"x_max":750,"o":"m 726 719 l 713 718 q 686 799 708 764 q 614 833 664 833 l 211 833 l 211 885 l 713 885 l 715 853 l 726 719 m 606 51 q 691 88 660 51 q 735 174 722 125 l 750 169 l 713 32 l 704 0 l 215 0 l 215 51 l 606 51 m 49 15 q 119 37 89 15 q 149 113 149 58 l 149 772 q 119 848 149 826 q 49 869 89 869 l 49 885 l 165 885 l 231 885 l 231 0 l 165 0 l 49 0 l 49 15 m 531 501 q 606 524 585 501 q 628 576 628 547 l 643 576 l 643 489 l 643 465 l 643 378 l 628 378 q 606 430 628 407 q 531 453 585 453 l 211 453 l 211 501 l 531 501 m 710 -239 q 607 -268 658 -268 q 517 -237 550 -268 q 483 -156 483 -207 q 525 -59 483 -104 q 631 18 567 -14 l 646 13 q 565 -60 590 -26 q 539 -136 539 -94 q 555 -177 539 -161 q 599 -193 571 -193 q 635 -185 619 -193 q 669 -162 651 -178 l 710 -239 z "},"F":{"ha":747,"x_min":49,"x_max":726,"o":"m 49 15 q 119 37 89 15 q 149 113 149 58 l 149 772 q 119 848 149 826 q 49 869 89 869 l 49 885 l 165 885 l 231 885 l 231 113 q 260 37 231 58 q 329 15 289 15 l 329 0 l 214 0 l 165 0 l 49 0 l 49 15 m 715 853 l 726 719 l 713 718 q 686 799 708 764 q 614 833 664 833 l 211 833 l 211 885 l 713 885 l 715 853 m 526 492 q 602 515 581 492 q 624 567 624 538 l 639 567 l 639 479 l 639 456 l 639 368 l 624 368 q 602 420 624 397 q 526 443 581 443 l 207 443 l 207 492 l 526 492 z "},"G":{"ha":826,"x_min":42,"x_max":771,"o":"m 428 -10 q 143 110 244 -10 q 42 446 42 229 q 92 681 42 578 q 234 842 143 785 q 440 899 325 899 q 625 851 553 899 q 731 727 697 804 q 764 557 764 650 l 764 529 l 639 544 q 657 657 657 603 q 599 805 657 750 q 443 860 540 860 q 282 815 353 860 q 170 676 211 769 q 129 446 129 583 q 171 227 129 317 q 286 93 213 138 q 457 49 360 49 q 585 65 526 49 q 674 111 644 81 l 689 233 q 680 300 694 278 q 638 330 665 322 q 556 344 611 338 l 321 372 l 321 388 l 760 388 l 760 182 q 771 128 760 153 q 610 21 692 51 q 428 -10 529 -10 z "},"Ğ":{"ha":826,"x_min":42,"x_max":771,"o":"m 428 -10 q 143 110 244 -10 q 42 446 42 229 q 92 681 42 578 q 234 842 143 785 q 440 899 325 899 q 625 851 553 899 q 731 727 697 804 q 764 557 764 650 l 764 529 l 639 544 q 657 657 657 603 q 599 805 657 750 q 443 860 540 860 q 282 815 353 860 q 170 676 211 769 q 129 446 129 583 q 171 227 129 317 q 286 93 213 138 q 457 49 360 49 q 585 65 526 49 q 674 111 644 81 l 689 233 q 680 300 694 278 q 638 330 665 322 q 556 344 611 338 l 321 372 l 321 388 l 760 388 l 760 182 q 771 128 760 153 q 610 21 692 51 q 428 -10 529 -10 z "},"Ģ":{"ha":826,"x_min":42,"x_max":771,"o":"m 428 -10 q 143 110 244 -10 q 42 446 42 229 q 92 681 42 578 q 234 842 143 785 q 440 899 325 899 q 625 851 553 899 q 731 727 697 804 q 764 557 764 650 l 764 529 l 639 544 q 657 657 657 603 q 599 805 657 750 q 443 860 540 860 q 282 815 353 860 q 170 676 211 769 q 129 446 129 583 q 171 227 129 317 q 286 93 213 138 q 457 49 360 49 q 585 65 526 49 q 674 111 644 81 l 689 233 q 680 300 694 278 q 638 330 665 322 q 556 344 611 338 l 321 372 l 321 388 l 760 388 l 760 182 q 771 128 760 153 q 610 21 692 51 q 428 -10 529 -10 m 421 -47 l 501 -126 l 431 -386 l 421 -386 l 421 -208 l 340 -126 l 421 -47 z "},"Ġ":{"ha":826,"x_min":42,"x_max":771,"o":"m 428 -10 q 143 110 244 -10 q 42 446 42 229 q 92 681 42 578 q 234 842 143 785 q 440 899 325 899 q 625 851 553 899 q 731 727 697 804 q 764 557 764 650 l 764 529 l 639 544 q 657 657 657 603 q 599 805 657 750 q 443 860 540 860 q 282 815 353 860 q 170 676 211 769 q 129 446 129 583 q 171 227 129 317 q 286 93 213 138 q 457 49 360 49 q 585 65 526 49 q 674 111 644 81 l 689 233 q 680 300 694 278 q 638 330 665 322 q 556 344 611 338 l 321 372 l 321 388 l 760 388 l 760 182 q 771 128 760 153 q 610 21 692 51 q 428 -10 529 -10 m 399 1172 l 479 1092 l 399 1010 l 318 1092 l 399 1172 z "},"H":{"ha":900,"x_min":49,"x_max":851,"o":"m 231 113 q 260 37 231 58 q 329 15 289 15 l 329 0 l 214 0 l 165 0 l 49 0 l 49 15 q 119 37 89 15 q 149 113 149 58 l 149 772 q 119 848 149 826 q 49 869 89 869 l 49 885 l 165 885 l 214 885 l 329 885 l 329 869 q 260 848 289 869 q 231 772 231 826 l 231 113 m 753 113 q 782 37 753 58 q 851 15 811 15 l 851 0 l 736 0 l 688 0 l 571 0 l 571 15 q 641 37 611 15 q 671 113 671 58 l 671 772 q 641 848 671 826 q 571 869 611 869 l 571 885 l 688 885 l 736 885 l 851 885 l 851 869 q 782 848 811 869 q 753 772 753 826 l 753 113 m 688 521 l 688 469 l 217 469 l 217 521 l 688 521 z "},"Ħ":{"ha":900,"x_min":49,"x_max":851,"o":"m 231 113 q 260 37 231 58 q 329 15 289 15 l 329 0 l 214 0 l 165 0 l 49 0 l 49 15 q 119 37 89 15 q 149 113 149 58 l 149 772 q 119 848 149 826 q 49 869 89 869 l 49 885 l 165 885 l 214 885 l 329 885 l 329 869 q 260 848 289 869 q 231 772 231 826 l 231 113 m 753 113 q 782 37 753 58 q 851 15 811 15 l 851 0 l 736 0 l 688 0 l 571 0 l 571 15 q 641 37 611 15 q 671 113 671 58 l 671 772 q 641 848 671 826 q 571 869 611 869 l 571 885 l 688 885 l 736 885 l 851 885 l 851 869 q 782 848 811 869 q 753 772 753 826 l 753 113 m 688 521 l 688 469 l 217 469 l 217 521 l 688 521 m 808 683 l 808 644 l 92 644 l 92 683 l 808 683 z "},"I":{"ha":364,"x_min":42,"x_max":322,"o":"m 224 113 q 253 37 224 58 q 322 15 282 15 l 322 0 l 207 0 l 158 0 l 42 0 l 42 15 q 112 37 82 15 q 142 113 142 58 l 142 772 q 112 848 142 826 q 42 869 82 869 l 42 885 l 158 885 l 207 885 l 322 885 l 322 869 q 253 848 282 869 q 224 772 224 826 l 224 113 z "},"Í":{"ha":364,"x_min":42,"x_max":322,"o":"m 224 113 q 253 37 224 58 q 322 15 282 15 l 322 0 l 207 0 l 158 0 l 42 0 l 42 15 q 112 37 82 15 q 142 113 142 58 l 142 772 q 112 848 142 826 q 42 869 82 869 l 42 885 l 158 885 l 207 885 l 322 885 l 322 869 q 253 848 282 869 q 224 772 224 826 l 224 113 z "},"Î":{"ha":364,"x_min":35,"x_max":328,"o":"m 224 113 q 253 37 224 58 q 322 15 282 15 l 322 0 l 207 0 l 158 0 l 42 0 l 42 15 q 112 37 82 15 q 142 113 142 58 l 142 772 q 112 848 142 826 q 42 869 82 869 l 42 885 l 158 885 l 207 885 l 322 885 l 322 869 q 253 848 282 869 q 224 772 224 826 l 224 113 m 165 1103 l 196 1103 l 328 953 l 244 953 l 182 1039 l 117 953 l 35 953 l 165 1103 z "},"Ï":{"ha":364,"x_min":-3,"x_max":365,"o":"m 224 113 q 253 37 224 58 q 322 15 282 15 l 322 0 l 207 0 l 158 0 l 42 0 l 42 15 q 112 37 82 15 q 142 113 142 58 l 142 772 q 112 848 142 826 q 42 869 82 869 l 42 885 l 158 885 l 207 885 l 322 885 l 322 869 q 253 848 282 869 q 224 772 224 826 l 224 113 m 78 1107 l 158 1026 l 78 946 l -3 1026 l 78 1107 m 286 1107 l 365 1026 l 286 946 l 206 1026 l 286 1107 z "},"İ":{"ha":364,"x_min":42,"x_max":322,"o":"m 224 113 q 253 37 224 58 q 322 15 282 15 l 322 0 l 207 0 l 158 0 l 42 0 l 42 15 q 112 37 82 15 q 142 113 142 58 l 142 772 q 112 848 142 826 q 42 869 82 869 l 42 885 l 158 885 l 207 885 l 322 885 l 322 869 q 253 848 282 869 q 224 772 224 826 l 224 113 m 182 1172 l 263 1092 l 182 1010 l 101 1092 l 182 1172 z "},"Ì":{"ha":364,"x_min":42,"x_max":322,"o":"m 224 113 q 253 37 224 58 q 322 15 282 15 l 322 0 l 207 0 l 158 0 l 42 0 l 42 15 q 112 37 82 15 q 142 113 142 58 l 142 772 q 112 848 142 826 q 42 869 82 869 l 42 885 l 158 885 l 207 885 l 322 885 l 322 869 q 253 848 282 869 q 224 772 224 826 l 224 113 m 133 1156 q 198 1041 163 1088 q 296 961 233 994 l 288 947 q 166 998 219 963 q 68 1090 113 1033 l 133 1156 z "},"Ī":{"ha":364,"x_min":-6,"x_max":368,"o":"m 224 113 q 253 37 224 58 q 322 15 282 15 l 322 0 l 207 0 l 158 0 l 42 0 l 42 15 q 112 37 82 15 q 142 113 142 58 l 142 772 q 112 848 142 826 q 42 869 82 869 l 42 885 l 158 885 l 207 885 l 322 885 l 322 869 q 253 848 282 869 q 224 772 224 826 l 224 113 m 368 1049 l 368 1010 l -6 1010 l -6 1049 l 368 1049 z "},"Į":{"ha":364,"x_min":42,"x_max":322,"o":"m 224 113 q 253 37 224 58 q 322 15 282 15 l 322 0 l 207 0 l 158 0 l 42 0 l 42 15 q 112 37 82 15 q 142 113 142 58 l 142 772 q 112 848 142 826 q 42 869 82 869 l 42 885 l 158 885 l 207 885 l 322 885 l 322 869 q 253 848 282 869 q 224 772 224 826 l 224 113 m 294 -239 q 192 -268 243 -268 q 101 -237 135 -268 q 68 -156 68 -207 q 110 -59 68 -104 q 215 18 151 -14 l 231 13 q 149 -60 175 -26 q 124 -136 124 -94 q 140 -177 124 -161 q 183 -193 156 -193 q 220 -185 204 -193 q 254 -162 236 -178 l 294 -239 z "},"J":{"ha":715,"x_min":42,"x_max":639,"o":"m 639 310 q 567 68 639 146 q 339 -10 496 -10 q 171 39 238 -10 q 73 167 104 88 q 42 339 42 246 l 42 365 l 157 350 q 140 236 140 293 q 197 88 140 143 q 349 33 254 33 q 509 104 461 33 q 557 335 557 175 l 557 885 l 639 885 l 639 310 m 586 885 l 586 833 l 314 833 q 238 804 260 833 q 217 736 217 775 l 201 736 q 197 811 201 778 q 182 885 192 844 l 586 885 z "},"K":{"ha":872,"x_min":49,"x_max":861,"o":"m 231 113 q 260 37 231 58 q 329 15 289 15 l 329 0 l 214 0 l 165 0 l 49 0 l 49 15 q 119 37 89 15 q 149 113 149 58 l 149 772 q 119 848 149 826 q 49 869 89 869 l 49 885 l 165 885 l 214 885 l 329 885 l 329 869 q 260 848 289 869 q 231 772 231 826 l 231 113 m 815 885 l 815 869 q 726 854 772 869 q 646 797 679 839 l 218 272 l 188 324 l 575 797 q 594 842 599 826 q 567 864 589 858 q 513 869 546 869 l 513 885 l 668 885 l 700 885 l 815 885 m 699 93 q 774 32 729 49 q 861 15 818 15 l 861 0 l 746 0 l 693 0 l 518 0 l 518 15 q 582 22 556 15 q 617 45 608 28 q 604 93 625 63 l 350 461 l 451 451 l 699 93 z "},"Ķ":{"ha":872,"x_min":49,"x_max":861,"o":"m 231 113 q 260 37 231 58 q 329 15 289 15 l 329 0 l 214 0 l 165 0 l 49 0 l 49 15 q 119 37 89 15 q 149 113 149 58 l 149 772 q 119 848 149 826 q 49 869 89 869 l 49 885 l 165 885 l 214 885 l 329 885 l 329 869 q 260 848 289 869 q 231 772 231 826 l 231 113 m 815 885 l 815 869 q 726 854 772 869 q 646 797 679 839 l 218 272 l 188 324 l 575 797 q 594 842 599 826 q 567 864 589 858 q 513 869 546 869 l 513 885 l 668 885 l 700 885 l 815 885 m 699 93 q 774 32 729 49 q 861 15 818 15 l 861 0 l 746 0 l 693 0 l 518 0 l 518 15 q 582 22 556 15 q 617 45 608 28 q 604 93 625 63 l 350 461 l 451 451 l 699 93 m 442 -47 l 522 -126 l 451 -386 l 442 -386 l 442 -208 l 361 -126 l 442 -47 z "},"L":{"ha":665,"x_min":49,"x_max":654,"o":"m 511 51 q 596 86 565 51 q 639 167 626 121 l 654 163 l 618 32 l 610 0 l 215 0 l 215 51 l 511 51 m 49 0 l 49 15 q 119 37 89 15 q 149 113 149 58 l 149 772 q 119 848 149 826 q 49 869 89 869 l 49 885 l 165 885 l 214 885 l 329 885 l 329 869 q 260 848 289 869 q 231 772 231 826 l 231 0 l 165 0 l 49 0 z "},"Ĺ":{"ha":665,"x_min":49,"x_max":654,"o":"m 511 51 q 596 86 565 51 q 639 167 626 121 l 654 163 l 618 32 l 610 0 l 215 0 l 215 51 l 511 51 m 49 0 l 49 15 q 119 37 89 15 q 149 113 149 58 l 149 772 q 119 848 149 826 q 49 869 89 869 l 49 885 l 165 885 l 214 885 l 329 885 l 329 869 q 260 848 289 869 q 231 772 231 826 l 231 0 l 165 0 l 49 0 z "},"Ľ":{"ha":665,"x_min":49,"x_max":654,"o":"m 511 51 q 596 86 565 51 q 639 167 626 121 l 654 163 l 618 32 l 610 0 l 215 0 l 215 51 l 511 51 m 49 0 l 49 15 q 119 37 89 15 q 149 113 149 58 l 149 772 q 119 848 149 826 q 49 869 89 869 l 49 885 l 165 885 l 214 885 l 329 885 l 329 869 q 260 848 289 869 q 231 772 231 826 l 231 0 l 165 0 l 49 0 z "},"Ļ":{"ha":665,"x_min":49,"x_max":654,"o":"m 511 51 q 596 86 565 51 q 639 167 626 121 l 654 163 l 618 32 l 610 0 l 215 0 l 215 51 l 511 51 m 49 0 l 49 15 q 119 37 89 15 q 149 113 149 58 l 149 772 q 119 848 149 826 q 49 869 89 869 l 49 885 l 165 885 l 214 885 l 329 885 l 329 869 q 260 848 289 869 q 231 772 231 826 l 231 0 l 165 0 l 49 0 m 353 -47 l 433 -126 l 363 -386 l 353 -386 l 353 -208 l 272 -126 l 353 -47 z "},"Ł":{"ha":665,"x_min":31,"x_max":654,"o":"m 511 51 q 596 86 565 51 q 639 167 626 121 l 654 163 l 618 32 l 610 0 l 215 0 l 215 51 l 511 51 m 49 0 l 49 15 q 119 37 89 15 q 149 113 149 58 l 149 772 q 119 848 149 826 q 49 869 89 869 l 49 885 l 165 885 l 214 885 l 329 885 l 329 869 q 260 848 289 869 q 231 772 231 826 l 231 0 l 165 0 l 49 0 m 338 504 l 350 468 l 42 379 l 31 417 l 338 504 z "},"M":{"ha":1188,"x_min":21,"x_max":1167,"o":"m 360 885 l 625 0 l 544 0 l 281 885 l 360 885 m 21 0 l 21 15 q 95 37 61 15 q 138 113 129 58 l 232 772 q 215 848 240 826 q 149 869 189 869 l 149 885 l 265 885 l 306 885 l 194 113 q 219 37 186 58 q 301 15 251 15 l 301 0 l 157 0 l 138 0 l 21 0 m 610 0 q 607 21 607 14 q 606 105 603 60 q 626 201 610 150 l 831 885 l 886 885 l 626 0 l 610 0 m 872 0 l 872 15 q 949 37 918 15 q 972 113 981 58 l 861 885 l 922 885 l 1039 885 l 1039 869 q 973 848 999 869 q 956 772 947 826 l 1050 113 q 1092 37 1058 58 q 1167 15 1126 15 l 1167 0 l 1050 0 l 1008 0 l 872 0 z "},"N":{"ha":932,"x_min":49,"x_max":883,"o":"m 206 113 q 235 37 206 58 q 304 15 264 15 l 304 0 l 189 0 l 165 0 l 49 0 l 49 15 q 119 37 89 15 q 149 113 149 58 l 149 772 q 119 848 149 826 q 49 869 89 869 l 49 885 l 165 885 l 206 885 l 206 113 m 783 113 q 813 37 783 58 q 883 15 843 15 l 883 0 l 767 0 l 726 0 l 726 772 q 692 848 726 826 q 610 869 657 869 l 610 885 l 746 885 l 767 885 l 883 885 l 883 869 q 813 848 843 869 q 783 772 783 826 l 783 113 m 669 0 l 167 885 l 257 885 l 760 0 l 669 0 z "},"Ń":{"ha":932,"x_min":49,"x_max":883,"o":"m 206 113 q 235 37 206 58 q 304 15 264 15 l 304 0 l 189 0 l 165 0 l 49 0 l 49 15 q 119 37 89 15 q 149 113 149 58 l 149 772 q 119 848 149 826 q 49 869 89 869 l 49 885 l 165 885 l 206 885 l 206 113 m 783 113 q 813 37 783 58 q 883 15 843 15 l 883 0 l 767 0 l 726 0 l 726 772 q 692 848 726 826 q 610 869 657 869 l 610 885 l 746 885 l 767 885 l 883 885 l 883 869 q 813 848 843 869 q 783 772 783 826 l 783 113 m 669 0 l 167 885 l 257 885 l 760 0 l 669 0 z "},"Ň":{"ha":932,"x_min":49,"x_max":883,"o":"m 206 113 q 235 37 206 58 q 304 15 264 15 l 304 0 l 189 0 l 165 0 l 49 0 l 49 15 q 119 37 89 15 q 149 113 149 58 l 149 772 q 119 848 149 826 q 49 869 89 869 l 49 885 l 165 885 l 206 885 l 206 113 m 783 113 q 813 37 783 58 q 883 15 843 15 l 883 0 l 767 0 l 726 0 l 726 772 q 692 848 726 826 q 610 869 657 869 l 610 885 l 746 885 l 767 885 l 883 885 l 883 869 q 813 848 843 869 q 783 772 783 826 l 783 113 m 669 0 l 167 885 l 257 885 l 760 0 l 669 0 z "},"Ņ":{"ha":932,"x_min":49,"x_max":883,"o":"m 206 113 q 235 37 206 58 q 304 15 264 15 l 304 0 l 189 0 l 165 0 l 49 0 l 49 15 q 119 37 89 15 q 149 113 149 58 l 149 772 q 119 848 149 826 q 49 869 89 869 l 49 885 l 165 885 l 206 885 l 206 113 m 783 113 q 813 37 783 58 q 883 15 843 15 l 883 0 l 767 0 l 726 0 l 726 772 q 692 848 726 826 q 610 869 657 869 l 610 885 l 746 885 l 767 885 l 883 885 l 883 869 q 813 848 843 869 q 783 772 783 826 l 783 113 m 669 0 l 167 885 l 257 885 l 760 0 l 669 0 m 467 -47 l 547 -126 l 476 -386 l 467 -386 l 467 -208 l 386 -126 l 467 -47 z "},"Ŋ":{"ha":939,"x_min":49,"x_max":883,"o":"m 650 -268 q 576 -248 608 -268 q 535 -197 543 -228 l 614 -174 q 633 -218 618 -197 q 671 -239 647 -239 q 706 -199 706 -239 l 706 -119 q 697 -57 706 -82 q 669 0 688 -32 l 206 817 l 206 113 q 235 37 206 58 q 304 15 264 15 l 304 0 l 189 0 l 165 0 l 49 0 l 49 15 q 119 37 89 15 q 149 113 149 58 l 149 772 q 119 848 149 826 q 49 869 89 869 l 49 885 l 165 885 l 257 885 l 657 183 q 694 101 674 153 q 724 18 715 50 l 726 18 l 726 772 q 692 848 726 826 q 610 869 657 869 l 610 885 l 746 885 l 767 885 l 883 885 l 883 869 q 813 848 843 869 q 783 772 783 826 l 783 -151 q 747 -240 783 -211 q 650 -268 711 -268 z "},"Ñ":{"ha":932,"x_min":49,"x_max":883,"o":"m 206 113 q 235 37 206 58 q 304 15 264 15 l 304 0 l 189 0 l 165 0 l 49 0 l 49 15 q 119 37 89 15 q 149 113 149 58 l 149 772 q 119 848 149 826 q 49 869 89 869 l 49 885 l 165 885 l 206 885 l 206 113 m 783 113 q 813 37 783 58 q 883 15 843 15 l 883 0 l 767 0 l 726 0 l 726 772 q 692 848 726 826 q 610 869 657 869 l 610 885 l 746 885 l 767 885 l 883 885 l 883 869 q 813 848 843 869 q 783 772 783 826 l 783 113 m 669 0 l 167 885 l 257 885 l 760 0 l 669 0 m 281 975 q 349 1026 311 1007 q 418 1046 386 1046 q 493 1031 456 1046 q 523 1022 507 1026 q 556 1018 539 1018 q 599 1026 581 1018 q 642 1050 618 1035 l 644 1051 l 653 1043 q 584 992 622 1011 q 514 972 546 972 q 440 988 476 972 q 410 996 426 992 q 376 1000 393 1000 q 337 993 354 1000 q 296 972 319 986 q 292 970 294 971 q 289 968 290 969 l 281 975 z "},"O":{"ha":867,"x_min":42,"x_max":825,"o":"m 433 899 q 649 841 561 899 q 781 683 738 783 q 825 451 825 582 q 781 216 825 321 q 649 51 738 111 q 433 -10 561 -10 q 217 51 306 -10 q 85 216 129 111 q 42 451 42 321 q 85 683 42 582 q 217 841 129 783 q 433 899 306 899 m 433 29 q 599 86 531 29 q 703 240 668 143 q 738 451 738 336 q 703 658 738 565 q 599 806 668 751 q 433 860 531 860 q 267 806 336 860 q 164 658 199 751 q 129 451 129 565 q 164 240 129 336 q 267 86 199 143 q 433 29 336 29 z "},"Ó":{"ha":867,"x_min":42,"x_max":825,"o":"m 433 899 q 649 841 561 899 q 781 683 738 783 q 825 451 825 582 q 781 216 825 321 q 649 51 738 111 q 433 -10 561 -10 q 217 51 306 -10 q 85 216 129 111 q 42 451 42 321 q 85 683 42 582 q 217 841 129 783 q 433 899 306 899 m 433 29 q 599 86 531 29 q 703 240 668 143 q 738 451 738 336 q 703 658 738 565 q 599 806 668 751 q 433 860 531 860 q 267 806 336 860 q 164 658 199 751 q 129 451 129 565 q 164 240 129 336 q 267 86 199 143 q 433 29 336 29 z "},"Ô":{"ha":867,"x_min":42,"x_max":825,"o":"m 433 899 q 649 841 561 899 q 781 683 738 783 q 825 451 825 582 q 781 216 825 321 q 649 51 738 111 q 433 -10 561 -10 q 217 51 306 -10 q 85 216 129 111 q 42 451 42 321 q 85 683 42 582 q 217 841 129 783 q 433 899 306 899 m 433 29 q 599 86 531 29 q 703 240 668 143 q 738 451 738 336 q 703 658 738 565 q 599 806 668 751 q 433 860 531 860 q 267 806 336 860 q 164 658 199 751 q 129 451 129 565 q 164 240 129 336 q 267 86 199 143 q 433 29 336 29 m 417 1103 l 447 1103 l 579 953 l 496 953 l 433 1039 l 368 953 l 286 953 l 417 1103 z "},"Ö":{"ha":867,"x_min":42,"x_max":825,"o":"m 433 899 q 649 841 561 899 q 781 683 738 783 q 825 451 825 582 q 781 216 825 321 q 649 51 738 111 q 433 -10 561 -10 q 217 51 306 -10 q 85 216 129 111 q 42 451 42 321 q 85 683 42 582 q 217 841 129 783 q 433 899 306 899 m 433 29 q 599 86 531 29 q 703 240 668 143 q 738 451 738 336 q 703 658 738 565 q 599 806 668 751 q 433 860 531 860 q 267 806 336 860 q 164 658 199 751 q 129 451 129 565 q 164 240 129 336 q 267 86 199 143 q 433 29 336 29 m 329 1107 l 410 1026 l 329 946 l 249 1026 l 329 1107 m 538 1107 l 617 1026 l 538 946 l 457 1026 l 538 1107 z "},"Ò":{"ha":867,"x_min":42,"x_max":825,"o":"m 433 899 q 649 841 561 899 q 781 683 738 783 q 825 451 825 582 q 781 216 825 321 q 649 51 738 111 q 433 -10 561 -10 q 217 51 306 -10 q 85 216 129 111 q 42 451 42 321 q 85 683 42 582 q 217 841 129 783 q 433 899 306 899 m 433 29 q 599 86 531 29 q 703 240 668 143 q 738 451 738 336 q 703 658 738 565 q 599 806 668 751 q 433 860 531 860 q 267 806 336 860 q 164 658 199 751 q 129 451 129 565 q 164 240 129 336 q 267 86 199 143 q 433 29 336 29 m 385 1156 q 449 1041 414 1088 q 547 961 485 994 l 539 947 q 417 998 471 963 q 319 1090 364 1033 l 385 1156 z "},"Ő":{"ha":867,"x_min":42,"x_max":825,"o":"m 433 899 q 649 841 561 899 q 781 683 738 783 q 825 451 825 582 q 781 216 825 321 q 649 51 738 111 q 433 -10 561 -10 q 217 51 306 -10 q 85 216 129 111 q 42 451 42 321 q 85 683 42 582 q 217 841 129 783 q 433 899 306 899 m 433 29 q 599 86 531 29 q 703 240 668 143 q 738 451 738 336 q 703 658 738 565 q 599 806 668 751 q 433 860 531 860 q 267 806 336 860 q 164 658 199 751 q 129 451 129 565 q 164 240 129 336 q 267 86 199 143 q 433 29 336 29 m 496 968 l 474 968 l 474 1154 l 554 1154 l 496 968 m 369 968 l 346 968 l 346 1154 l 426 1154 l 369 968 z "},"Ō":{"ha":867,"x_min":42,"x_max":825,"o":"m 433 899 q 649 841 561 899 q 781 683 738 783 q 825 451 825 582 q 781 216 825 321 q 649 51 738 111 q 433 -10 561 -10 q 217 51 306 -10 q 85 216 129 111 q 42 451 42 321 q 85 683 42 582 q 217 841 129 783 q 433 899 306 899 m 433 29 q 599 86 531 29 q 703 240 668 143 q 738 451 738 336 q 703 658 738 565 q 599 806 668 751 q 433 860 531 860 q 267 806 336 860 q 164 658 199 751 q 129 451 129 565 q 164 240 129 336 q 267 86 199 143 q 433 29 336 29 m 619 1049 l 619 1010 l 246 1010 l 246 1049 l 619 1049 z "},"Ø":{"ha":922,"x_min":42,"x_max":825,"o":"m 631 963 l 668 949 l 296 -75 l 257 -61 l 631 963 m 433 899 q 649 841 561 899 q 781 683 738 783 q 825 451 825 582 q 781 216 825 321 q 649 51 738 111 q 433 -10 561 -10 q 217 51 306 -10 q 85 216 129 111 q 42 451 42 321 q 85 683 42 582 q 217 841 129 783 q 433 899 306 899 m 433 29 q 599 86 531 29 q 703 240 668 143 q 738 451 738 336 q 703 658 738 565 q 599 806 668 751 q 433 860 531 860 q 267 806 336 860 q 164 658 199 751 q 129 451 129 565 q 164 240 129 336 q 267 86 199 143 q 433 29 336 29 z "},"Õ":{"ha":867,"x_min":42,"x_max":825,"o":"m 433 899 q 649 841 561 899 q 781 683 738 783 q 825 451 825 582 q 781 216 825 321 q 649 51 738 111 q 433 -10 561 -10 q 217 51 306 -10 q 85 216 129 111 q 42 451 42 321 q 85 683 42 582 q 217 841 129 783 q 433 899 306 899 m 433 29 q 599 86 531 29 q 703 240 668 143 q 738 451 738 336 q 703 658 738 565 q 599 806 668 751 q 433 860 531 860 q 267 806 336 860 q 164 658 199 751 q 129 451 129 565 q 164 240 129 336 q 267 86 199 143 q 433 29 336 29 m 247 975 q 315 1026 278 1007 q 385 1046 353 1046 q 460 1031 422 1046 q 490 1022 474 1026 q 522 1018 506 1018 q 566 1026 547 1018 q 608 1050 585 1035 l 611 1051 l 619 1043 q 551 992 589 1011 q 481 972 513 972 q 407 988 443 972 q 376 996 393 992 q 343 1000 360 1000 q 303 993 321 1000 q 263 972 286 986 q 259 970 261 971 q 256 968 257 969 l 247 975 z "},"Œ":{"ha":1375,"x_min":42,"x_max":1333,"o":"m 433 -10 q 217 51 306 -10 q 85 216 129 111 q 42 451 42 321 q 85 683 42 582 q 217 841 129 783 q 433 899 306 899 q 718 776 624 899 q 813 451 813 654 q 772 215 813 319 q 646 51 731 111 q 433 -10 561 -10 m 433 29 q 599 86 531 29 q 703 240 668 143 q 738 451 738 336 q 703 658 738 565 q 599 806 668 751 q 433 860 531 860 q 267 806 336 860 q 164 658 199 751 q 129 451 129 565 q 164 240 129 336 q 267 86 199 143 q 433 29 336 29 m 1188 50 q 1273 87 1242 50 q 1318 172 1304 124 l 1333 168 l 1294 31 l 1286 0 l 811 0 l 811 50 l 1188 50 m 819 0 l 738 0 l 738 885 l 819 885 l 819 0 m 1311 854 l 1322 721 l 1308 719 q 1282 800 1304 765 q 1210 835 1260 835 l 807 835 l 807 885 l 1308 885 l 1311 854 m 1119 501 q 1195 524 1174 501 q 1217 576 1217 547 l 1232 576 l 1232 489 l 1232 465 l 1232 378 l 1217 378 q 1195 430 1217 407 q 1119 453 1174 453 l 800 453 l 800 501 l 1119 501 z "},"P":{"ha":668,"x_min":49,"x_max":654,"o":"m 49 0 l 49 15 q 119 37 89 15 q 149 113 149 58 l 149 772 q 119 848 149 826 q 49 869 89 869 l 49 885 l 165 885 l 231 885 l 231 113 q 260 37 231 58 q 329 15 289 15 l 329 0 l 214 0 l 165 0 l 49 0 m 207 650 l 231 650 q 268 531 231 581 q 392 482 306 482 q 526 535 483 482 q 568 660 568 589 q 520 786 568 739 q 360 833 472 833 l 203 833 l 203 885 l 392 885 q 584 826 514 885 q 654 668 654 768 q 625 556 654 608 q 540 471 596 503 q 410 439 485 439 q 315 458 354 439 q 256 503 276 478 q 232 549 236 529 l 207 549 l 207 650 z "},"Þ":{"ha":668,"x_min":49,"x_max":654,"o":"m 49 0 l 49 15 q 119 37 89 15 q 149 113 149 58 l 149 772 q 119 848 149 826 q 49 869 89 869 l 49 885 l 165 885 l 214 885 l 329 885 l 329 869 q 260 848 289 869 q 231 772 231 826 l 231 113 q 260 37 231 58 q 329 15 289 15 l 329 0 l 214 0 l 165 0 l 49 0 m 207 435 l 231 435 q 268 316 231 365 q 392 267 306 267 q 526 320 483 267 q 568 444 568 374 q 519 572 568 524 q 360 619 471 619 l 203 619 l 203 669 l 392 669 q 584 611 514 669 q 654 453 654 553 q 625 340 654 393 q 540 256 596 288 q 410 224 485 224 q 315 243 354 224 q 256 288 276 263 q 232 333 236 314 l 207 333 l 207 435 z "},"Q":{"ha":867,"x_min":42,"x_max":825,"o":"m 122 653 l 801 -237 l 790 -247 l 671 -132 l 122 561 l 122 653 m 433 899 q 649 841 561 899 q 781 683 738 783 q 825 451 825 582 q 781 216 825 321 q 649 51 738 111 q 433 -10 561 -10 q 217 51 306 -10 q 85 216 129 111 q 42 451 42 321 q 85 683 42 582 q 217 841 129 783 q 433 899 306 899 m 433 29 q 599 86 531 29 q 703 240 668 143 q 738 451 738 336 q 703 658 738 565 q 599 806 668 751 q 433 860 531 860 q 267 806 336 860 q 164 658 199 751 q 129 451 129 565 q 164 240 129 336 q 267 86 199 143 q 433 29 336 29 z "},"R":{"ha":779,"x_min":49,"x_max":765,"o":"m 526 0 l 526 15 q 589 21 564 15 q 621 42 614 26 q 604 88 628 58 l 218 558 l 218 664 l 231 664 q 274 549 231 589 q 385 510 318 510 q 521 558 474 510 q 568 674 568 607 q 521 792 568 751 q 360 833 474 833 l 217 833 l 217 885 l 392 885 q 585 831 515 885 q 654 678 654 776 q 590 526 654 585 q 404 468 525 468 q 335 481 368 468 l 333 478 q 426 409 382 447 q 514 318 469 371 l 765 15 l 765 0 l 701 0 l 526 0 m 49 0 l 49 15 q 119 37 89 15 q 149 113 149 58 l 149 772 q 119 848 149 826 q 49 869 89 869 l 49 885 l 165 885 l 231 885 l 231 113 q 260 37 231 58 q 329 15 289 15 l 329 0 l 214 0 l 165 0 l 49 0 z "},"Ŕ":{"ha":779,"x_min":49,"x_max":765,"o":"m 526 0 l 526 15 q 589 21 564 15 q 621 42 614 26 q 604 88 628 58 l 218 558 l 218 664 l 231 664 q 274 549 231 589 q 385 510 318 510 q 521 558 474 510 q 568 674 568 607 q 521 792 568 751 q 360 833 474 833 l 217 833 l 217 885 l 392 885 q 585 831 515 885 q 654 678 654 776 q 590 526 654 585 q 404 468 525 468 q 335 481 368 468 l 333 478 q 426 409 382 447 q 514 318 469 371 l 765 15 l 765 0 l 701 0 l 526 0 m 49 0 l 49 15 q 119 37 89 15 q 149 113 149 58 l 149 772 q 119 848 149 826 q 49 869 89 869 l 49 885 l 165 885 l 231 885 l 231 113 q 260 37 231 58 q 329 15 289 15 l 329 0 l 214 0 l 165 0 l 49 0 z "},"Ř":{"ha":779,"x_min":49,"x_max":765,"o":"m 526 0 l 526 15 q 589 21 564 15 q 621 42 614 26 q 604 88 628 58 l 218 558 l 218 664 l 231 664 q 274 549 231 589 q 385 510 318 510 q 521 558 474 510 q 568 674 568 607 q 521 792 568 751 q 360 833 474 833 l 217 833 l 217 885 l 392 885 q 585 831 515 885 q 654 678 654 776 q 590 526 654 585 q 404 468 525 468 q 335 481 368 468 l 333 478 q 426 409 382 447 q 514 318 469 371 l 765 15 l 765 0 l 701 0 l 526 0 m 49 0 l 49 15 q 119 37 89 15 q 149 113 149 58 l 149 772 q 119 848 149 826 q 49 869 89 869 l 49 885 l 165 885 l 231 885 l 231 113 q 260 37 231 58 q 329 15 289 15 l 329 0 l 214 0 l 165 0 l 49 0 z "},"Ŗ":{"ha":779,"x_min":49,"x_max":765,"o":"m 526 0 l 526 15 q 589 21 564 15 q 621 42 614 26 q 604 88 628 58 l 218 558 l 218 664 l 231 664 q 274 549 231 589 q 385 510 318 510 q 521 558 474 510 q 568 674 568 607 q 521 792 568 751 q 360 833 474 833 l 217 833 l 217 885 l 392 885 q 585 831 515 885 q 654 678 654 776 q 590 526 654 585 q 404 468 525 468 q 335 481 368 468 l 333 478 q 426 409 382 447 q 514 318 469 371 l 765 15 l 765 0 l 701 0 l 526 0 m 49 0 l 49 15 q 119 37 89 15 q 149 113 149 58 l 149 772 q 119 848 149 826 q 49 869 89 869 l 49 885 l 165 885 l 231 885 l 231 113 q 260 37 231 58 q 329 15 289 15 l 329 0 l 214 0 l 165 0 l 49 0 m 424 -47 l 504 -126 l 433 -386 l 424 -386 l 424 -208 l 343 -126 l 424 -47 z "},"S":{"ha":729,"x_min":56,"x_max":674,"o":"m 460 489 q 619 397 565 450 q 674 246 674 343 q 588 43 674 96 q 369 -10 503 -10 q 173 31 251 -10 q 56 132 94 71 l 56 399 l 69 399 q 108 208 72 290 q 210 78 143 125 q 369 32 276 32 q 529 85 472 32 q 586 219 586 138 q 550 333 586 286 q 436 406 514 379 l 235 478 q 119 550 160 504 q 79 678 79 596 q 110 785 79 735 q 208 867 142 835 q 374 899 275 899 q 521 875 454 899 q 638 806 588 851 l 647 567 l 633 567 q 551 787 613 714 q 369 860 489 860 q 219 813 272 860 q 165 690 165 767 q 190 613 165 647 q 268 558 214 578 l 460 489 z "},"Ś":{"ha":729,"x_min":56,"x_max":674,"o":"m 460 489 q 619 397 565 450 q 674 246 674 343 q 588 43 674 96 q 369 -10 503 -10 q 173 31 251 -10 q 56 132 94 71 l 56 399 l 69 399 q 108 208 72 290 q 210 78 143 125 q 369 32 276 32 q 529 85 472 32 q 586 219 586 138 q 550 333 586 286 q 436 406 514 379 l 235 478 q 119 550 160 504 q 79 678 79 596 q 110 785 79 735 q 208 867 142 835 q 374 899 275 899 q 521 875 454 899 q 638 806 588 851 l 647 567 l 633 567 q 551 787 613 714 q 369 860 489 860 q 219 813 272 860 q 165 690 165 767 q 190 613 165 647 q 268 558 214 578 l 460 489 z "},"Š":{"ha":729,"x_min":56,"x_max":674,"o":"m 460 489 q 619 397 565 450 q 674 246 674 343 q 588 43 674 96 q 369 -10 503 -10 q 173 31 251 -10 q 56 132 94 71 l 56 399 l 69 399 q 108 208 72 290 q 210 78 143 125 q 369 32 276 32 q 529 85 472 32 q 586 219 586 138 q 550 333 586 286 q 436 406 514 379 l 235 478 q 119 550 160 504 q 79 678 79 596 q 110 785 79 735 q 208 867 142 835 q 374 899 275 899 q 521 875 454 899 q 638 806 588 851 l 647 567 l 633 567 q 551 787 613 714 q 369 860 489 860 q 219 813 272 860 q 165 690 165 767 q 190 613 165 647 q 268 558 214 578 l 460 489 z "},"Ş":{"ha":729,"x_min":56,"x_max":674,"o":"m 460 489 q 619 397 565 450 q 674 246 674 343 q 588 43 674 96 q 369 -10 503 -10 q 173 31 251 -10 q 56 132 94 71 l 56 399 l 69 399 q 108 208 72 290 q 210 78 143 125 q 369 32 276 32 q 529 85 472 32 q 586 219 586 138 q 550 333 586 286 q 436 406 514 379 l 235 478 q 119 550 160 504 q 79 678 79 596 q 110 785 79 735 q 208 867 142 835 q 374 899 275 899 q 521 875 454 899 q 638 806 588 851 l 647 567 l 633 567 q 551 787 613 714 q 369 860 489 860 q 219 813 272 860 q 165 690 165 767 q 190 613 165 647 q 268 558 214 578 l 460 489 m 251 -187 q 258 -140 251 -157 l 319 -153 q 308 -192 308 -172 q 323 -226 308 -212 q 363 -240 338 -240 q 407 -224 390 -240 q 424 -175 424 -208 q 403 -119 424 -140 q 344 -97 382 -97 q 282 -108 313 -97 l 338 11 l 406 11 l 347 -90 l 340 -82 q 375 -76 356 -76 q 451 -99 422 -76 q 479 -175 479 -121 q 447 -248 479 -218 q 361 -278 414 -278 q 281 -251 311 -278 q 251 -187 251 -225 z "},"Ș":{"ha":729,"x_min":56,"x_max":674,"o":"m 460 489 q 619 397 565 450 q 674 246 674 343 q 588 43 674 96 q 369 -10 503 -10 q 173 31 251 -10 q 56 132 94 71 l 56 399 l 69 399 q 108 208 72 290 q 210 78 143 125 q 369 32 276 32 q 529 85 472 32 q 586 219 586 138 q 550 333 586 286 q 436 406 514 379 l 235 478 q 119 550 160 504 q 79 678 79 596 q 110 785 79 735 q 208 867 142 835 q 374 899 275 899 q 521 875 454 899 q 638 806 588 851 l 647 567 l 633 567 q 551 787 613 714 q 369 860 489 860 q 219 813 272 860 q 165 690 165 767 q 190 613 165 647 q 268 558 214 578 l 460 489 m 365 -47 l 446 -126 l 375 -386 l 365 -386 l 365 -208 l 285 -126 l 365 -47 z "},"T":{"ha":776,"x_min":1,"x_max":775,"o":"m 429 113 q 458 37 429 58 q 528 15 488 15 l 528 0 l 413 0 l 364 0 l 247 0 l 247 15 q 317 37 288 15 q 347 113 347 58 l 347 885 l 429 885 l 429 113 m 22 894 q 62 887 38 889 q 124 885 86 885 l 653 885 q 715 887 690 885 q 754 894 739 889 l 758 854 l 775 710 l 760 707 q 728 795 754 757 q 649 833 703 833 l 128 833 q 48 796 74 833 q 17 710 22 758 l 1 711 l 18 854 l 22 894 z "},"Ŧ":{"ha":776,"x_min":1,"x_max":775,"o":"m 429 113 q 458 37 429 58 q 528 15 488 15 l 528 0 l 413 0 l 364 0 l 247 0 l 247 15 q 317 37 288 15 q 347 113 347 58 l 347 885 l 429 885 l 429 113 m 22 894 q 62 887 38 889 q 124 885 86 885 l 653 885 q 715 887 690 885 q 754 894 739 889 l 758 854 l 775 710 l 760 707 q 728 795 754 757 q 649 833 703 833 l 128 833 q 48 796 74 833 q 17 710 22 758 l 1 711 l 18 854 l 22 894 m 618 463 l 618 424 l 160 424 l 160 463 l 618 463 z "},"Ť":{"ha":776,"x_min":1,"x_max":775,"o":"m 429 113 q 458 37 429 58 q 528 15 488 15 l 528 0 l 413 0 l 364 0 l 247 0 l 247 15 q 317 37 288 15 q 347 113 347 58 l 347 885 l 429 885 l 429 113 m 22 894 q 62 887 38 889 q 124 885 86 885 l 653 885 q 715 887 690 885 q 754 894 739 889 l 758 854 l 775 710 l 760 707 q 728 795 754 757 q 649 833 703 833 l 128 833 q 48 796 74 833 q 17 710 22 758 l 1 711 l 18 854 l 22 894 z "},"Ţ":{"ha":776,"x_min":1,"x_max":775,"o":"m 429 113 q 458 37 429 58 q 528 15 488 15 l 528 0 l 413 0 l 364 0 l 247 0 l 247 15 q 317 37 288 15 q 347 113 347 58 l 347 885 l 429 885 l 429 113 m 22 894 q 62 887 38 889 q 124 885 86 885 l 653 885 q 715 887 690 885 q 754 894 739 889 l 758 854 l 775 710 l 760 707 q 728 795 754 757 q 649 833 703 833 l 128 833 q 48 796 74 833 q 17 710 22 758 l 1 711 l 18 854 l 22 894 m 275 -187 q 282 -140 275 -157 l 343 -153 q 332 -192 332 -172 q 347 -226 332 -212 q 386 -240 361 -240 q 431 -224 414 -240 q 447 -175 447 -208 q 426 -119 447 -140 q 368 -97 406 -97 q 306 -108 336 -97 l 361 11 l 429 11 l 371 -90 l 364 -82 q 399 -76 379 -76 q 474 -99 446 -76 q 503 -175 503 -121 q 470 -248 503 -218 q 385 -278 438 -278 q 305 -251 335 -278 q 275 -187 275 -225 z "},"Ț":{"ha":776,"x_min":1,"x_max":775,"o":"m 429 113 q 458 37 429 58 q 528 15 488 15 l 528 0 l 413 0 l 364 0 l 247 0 l 247 15 q 317 37 288 15 q 347 113 347 58 l 347 885 l 429 885 l 429 113 m 22 894 q 62 887 38 889 q 124 885 86 885 l 653 885 q 715 887 690 885 q 754 894 739 889 l 758 854 l 775 710 l 760 707 q 728 795 754 757 q 649 833 703 833 l 128 833 q 48 796 74 833 q 17 710 22 758 l 1 711 l 18 854 l 22 894 m 389 -47 l 469 -126 l 399 -386 l 389 -386 l 389 -208 l 308 -126 l 389 -47 z "},"U":{"ha":840,"x_min":21,"x_max":819,"o":"m 301 886 l 301 871 q 231 849 261 871 q 201 774 201 828 l 201 339 q 258 113 201 194 q 432 32 315 32 q 606 113 549 32 q 663 339 663 194 l 663 772 q 633 848 663 826 q 564 869 604 869 l 564 885 l 679 885 l 703 885 l 819 885 l 819 869 q 749 848 779 869 q 719 772 719 826 l 719 339 q 648 85 719 181 q 435 -11 576 -11 q 190 83 261 -11 q 119 374 119 176 l 119 774 q 90 849 119 828 q 21 871 61 871 l 21 886 l 136 886 l 185 886 l 301 886 z "},"Ú":{"ha":840,"x_min":21,"x_max":819,"o":"m 301 886 l 301 871 q 231 849 261 871 q 201 774 201 828 l 201 339 q 258 113 201 194 q 432 32 315 32 q 606 113 549 32 q 663 339 663 194 l 663 772 q 633 848 663 826 q 564 869 604 869 l 564 885 l 679 885 l 703 885 l 819 885 l 819 869 q 749 848 779 869 q 719 772 719 826 l 719 339 q 648 85 719 181 q 435 -11 576 -11 q 190 83 261 -11 q 119 374 119 176 l 119 774 q 90 849 119 828 q 21 871 61 871 l 21 886 l 136 886 l 185 886 l 301 886 z "},"Û":{"ha":840,"x_min":21,"x_max":819,"o":"m 301 886 l 301 871 q 231 849 261 871 q 201 774 201 828 l 201 339 q 258 113 201 194 q 432 32 315 32 q 606 113 549 32 q 663 339 663 194 l 663 772 q 633 848 663 826 q 564 869 604 869 l 564 885 l 679 885 l 703 885 l 819 885 l 819 869 q 749 848 779 869 q 719 772 719 826 l 719 339 q 648 85 719 181 q 435 -11 576 -11 q 190 83 261 -11 q 119 374 119 176 l 119 774 q 90 849 119 828 q 21 871 61 871 l 21 886 l 136 886 l 185 886 l 301 886 m 404 1103 l 435 1103 l 567 953 l 483 953 l 421 1039 l 356 953 l 274 953 l 404 1103 z "},"Ü":{"ha":840,"x_min":21,"x_max":819,"o":"m 301 886 l 301 871 q 231 849 261 871 q 201 774 201 828 l 201 339 q 258 113 201 194 q 432 32 315 32 q 606 113 549 32 q 663 339 663 194 l 663 772 q 633 848 663 826 q 564 869 604 869 l 564 885 l 679 885 l 703 885 l 819 885 l 819 869 q 749 848 779 869 q 719 772 719 826 l 719 339 q 648 85 719 181 q 435 -11 576 -11 q 190 83 261 -11 q 119 374 119 176 l 119 774 q 90 849 119 828 q 21 871 61 871 l 21 886 l 136 886 l 185 886 l 301 886 m 317 1107 l 397 1026 l 317 946 l 236 1026 l 317 1107 m 525 1107 l 604 1026 l 525 946 l 444 1026 l 525 1107 z "},"Ù":{"ha":840,"x_min":21,"x_max":819,"o":"m 301 886 l 301 871 q 231 849 261 871 q 201 774 201 828 l 201 339 q 258 113 201 194 q 432 32 315 32 q 606 113 549 32 q 663 339 663 194 l 663 772 q 633 848 663 826 q 564 869 604 869 l 564 885 l 679 885 l 703 885 l 819 885 l 819 869 q 749 848 779 869 q 719 772 719 826 l 719 339 q 648 85 719 181 q 435 -11 576 -11 q 190 83 261 -11 q 119 374 119 176 l 119 774 q 90 849 119 828 q 21 871 61 871 l 21 886 l 136 886 l 185 886 l 301 886 m 372 1156 q 437 1041 401 1088 q 535 961 472 994 l 526 947 q 405 998 458 963 q 307 1090 351 1033 l 372 1156 z "},"Ű":{"ha":840,"x_min":21,"x_max":819,"o":"m 301 886 l 301 871 q 231 849 261 871 q 201 774 201 828 l 201 339 q 258 113 201 194 q 432 32 315 32 q 606 113 549 32 q 663 339 663 194 l 663 772 q 633 848 663 826 q 564 869 604 869 l 564 885 l 679 885 l 703 885 l 819 885 l 819 869 q 749 848 779 869 q 719 772 719 826 l 719 339 q 648 85 719 181 q 435 -11 576 -11 q 190 83 261 -11 q 119 374 119 176 l 119 774 q 90 849 119 828 q 21 871 61 871 l 21 886 l 136 886 l 185 886 l 301 886 m 483 968 l 461 968 l 461 1154 l 542 1154 l 483 968 m 357 968 l 333 968 l 333 1154 l 414 1154 l 357 968 z "},"Ū":{"ha":840,"x_min":21,"x_max":819,"o":"m 301 886 l 301 871 q 231 849 261 871 q 201 774 201 828 l 201 339 q 258 113 201 194 q 432 32 315 32 q 606 113 549 32 q 663 339 663 194 l 663 772 q 633 848 663 826 q 564 869 604 869 l 564 885 l 679 885 l 703 885 l 819 885 l 819 869 q 749 848 779 869 q 719 772 719 826 l 719 339 q 648 85 719 181 q 435 -11 576 -11 q 190 83 261 -11 q 119 374 119 176 l 119 774 q 90 849 119 828 q 21 871 61 871 l 21 886 l 136 886 l 185 886 l 301 886 m 607 1049 l 607 1010 l 233 1010 l 233 1049 l 607 1049 z "},"Ų":{"ha":840,"x_min":21,"x_max":819,"o":"m 301 886 l 301 871 q 231 849 261 871 q 201 774 201 828 l 201 339 q 258 113 201 194 q 432 32 315 32 q 606 113 549 32 q 663 339 663 194 l 663 772 q 633 848 663 826 q 564 869 604 869 l 564 885 l 679 885 l 703 885 l 819 885 l 819 869 q 749 848 779 869 q 719 772 719 826 l 719 339 q 648 85 719 181 q 435 -11 576 -11 q 190 83 261 -11 q 119 374 119 176 l 119 774 q 90 849 119 828 q 21 871 61 871 l 21 886 l 136 886 l 185 886 l 301 886 m 574 -239 q 471 -268 522 -268 q 381 -237 414 -268 q 347 -156 347 -207 q 389 -59 347 -104 q 494 18 431 -14 l 510 13 q 428 -60 454 -26 q 403 -136 403 -94 q 419 -177 403 -161 q 463 -193 435 -193 q 499 -185 483 -193 q 533 -162 515 -178 l 574 -239 z "},"Ů":{"ha":840,"x_min":21,"x_max":819,"o":"m 301 886 l 301 871 q 231 849 261 871 q 201 774 201 828 l 201 339 q 258 113 201 194 q 432 32 315 32 q 606 113 549 32 q 663 339 663 194 l 663 772 q 633 848 663 826 q 564 869 604 869 l 564 885 l 679 885 l 703 885 l 819 885 l 819 869 q 749 848 779 869 q 719 772 719 826 l 719 339 q 648 85 719 181 q 435 -11 576 -11 q 190 83 261 -11 q 119 374 119 176 l 119 774 q 90 849 119 828 q 21 871 61 871 l 21 886 l 136 886 l 185 886 l 301 886 m 421 946 q 364 969 388 946 q 340 1026 340 993 q 364 1083 340 1060 q 421 1107 388 1107 q 478 1083 454 1107 q 501 1026 501 1060 q 478 969 501 993 q 421 946 454 946 m 421 981 q 454 994 440 981 q 468 1026 468 1007 q 454 1060 468 1046 q 421 1074 440 1074 q 388 1060 401 1074 q 375 1026 375 1046 q 388 994 375 1007 q 421 981 401 981 z "},"V":{"ha":857,"x_min":4,"x_max":853,"o":"m 139 776 q 84 849 122 828 q 4 869 46 869 l 4 885 l 121 885 l 188 885 l 469 0 l 388 0 l 139 776 m 449 0 q 456 112 449 46 q 479 228 463 178 l 661 778 q 658 834 674 814 q 613 862 643 854 q 547 869 583 869 l 547 885 l 722 885 l 738 885 l 853 885 l 853 869 q 774 849 813 869 q 719 778 736 829 l 469 0 l 449 0 z "},"W":{"ha":1417,"x_min":4,"x_max":1413,"o":"m 690 778 q 634 849 672 829 q 556 869 596 869 l 556 885 l 671 885 l 736 885 l 1039 0 l 956 0 l 690 778 m 139 778 q 84 849 122 829 q 4 869 46 869 l 4 885 l 121 885 l 169 885 l 286 885 l 286 869 q 226 849 247 869 q 221 778 204 829 l 476 0 l 394 0 l 139 778 m 744 746 q 735 676 744 713 q 703 572 725 639 l 514 0 l 454 0 l 706 758 l 744 746 m 1225 775 q 1217 849 1239 828 q 1156 869 1194 869 l 1156 885 l 1271 885 l 1296 885 l 1413 885 l 1413 869 q 1334 849 1371 869 q 1283 775 1297 828 l 1072 0 l 1014 0 l 1225 775 z "},"Ẃ":{"ha":1417,"x_min":4,"x_max":1413,"o":"m 690 778 q 634 849 672 829 q 556 869 596 869 l 556 885 l 671 885 l 736 885 l 1039 0 l 956 0 l 690 778 m 139 778 q 84 849 122 829 q 4 869 46 869 l 4 885 l 121 885 l 169 885 l 286 885 l 286 869 q 226 849 247 869 q 221 778 204 829 l 476 0 l 394 0 l 139 778 m 744 746 q 735 676 744 713 q 703 572 725 639 l 514 0 l 454 0 l 706 758 l 744 746 m 1225 775 q 1217 849 1239 828 q 1156 869 1194 869 l 1156 885 l 1271 885 l 1296 885 l 1413 885 l 1413 869 q 1334 849 1371 869 q 1283 775 1297 828 l 1072 0 l 1014 0 l 1225 775 z "},"Ŵ":{"ha":1417,"x_min":4,"x_max":1413,"o":"m 690 778 q 634 849 672 829 q 556 869 596 869 l 556 885 l 671 885 l 736 885 l 1039 0 l 956 0 l 690 778 m 139 778 q 84 849 122 829 q 4 869 46 869 l 4 885 l 121 885 l 169 885 l 286 885 l 286 869 q 226 849 247 869 q 221 778 204 829 l 476 0 l 394 0 l 139 778 m 744 746 q 735 676 744 713 q 703 572 725 639 l 514 0 l 454 0 l 706 758 l 744 746 m 1225 775 q 1217 849 1239 828 q 1156 869 1194 869 l 1156 885 l 1271 885 l 1296 885 l 1413 885 l 1413 869 q 1334 849 1371 869 q 1283 775 1297 828 l 1072 0 l 1014 0 l 1225 775 m 692 1103 l 722 1103 l 854 953 l 771 953 l 708 1039 l 643 953 l 561 953 l 692 1103 z "},"Ẅ":{"ha":1417,"x_min":4,"x_max":1413,"o":"m 690 778 q 634 849 672 829 q 556 869 596 869 l 556 885 l 671 885 l 736 885 l 1039 0 l 956 0 l 690 778 m 139 778 q 84 849 122 829 q 4 869 46 869 l 4 885 l 121 885 l 169 885 l 286 885 l 286 869 q 226 849 247 869 q 221 778 204 829 l 476 0 l 394 0 l 139 778 m 744 746 q 735 676 744 713 q 703 572 725 639 l 514 0 l 454 0 l 706 758 l 744 746 m 1225 775 q 1217 849 1239 828 q 1156 869 1194 869 l 1156 885 l 1271 885 l 1296 885 l 1413 885 l 1413 869 q 1334 849 1371 869 q 1283 775 1297 828 l 1072 0 l 1014 0 l 1225 775 m 604 1107 l 685 1026 l 604 946 l 524 1026 l 604 1107 m 813 1107 l 892 1026 l 813 946 l 732 1026 l 813 1107 z "},"Ẁ":{"ha":1417,"x_min":4,"x_max":1413,"o":"m 690 778 q 634 849 672 829 q 556 869 596 869 l 556 885 l 671 885 l 736 885 l 1039 0 l 956 0 l 690 778 m 139 778 q 84 849 122 829 q 4 869 46 869 l 4 885 l 121 885 l 169 885 l 286 885 l 286 869 q 226 849 247 869 q 221 778 204 829 l 476 0 l 394 0 l 139 778 m 744 746 q 735 676 744 713 q 703 572 725 639 l 514 0 l 454 0 l 706 758 l 744 746 m 1225 775 q 1217 849 1239 828 q 1156 869 1194 869 l 1156 885 l 1271 885 l 1296 885 l 1413 885 l 1413 869 q 1334 849 1371 869 q 1283 775 1297 828 l 1072 0 l 1014 0 l 1225 775 m 660 1156 q 724 1041 689 1088 q 822 961 760 994 l 814 947 q 692 998 746 963 q 594 1090 639 1033 l 660 1156 z "},"X":{"ha":940,"x_min":35,"x_max":906,"o":"m 233 789 q 160 852 204 835 q 74 869 115 869 l 74 885 l 190 885 l 264 885 l 747 96 q 820 33 776 50 q 906 15 864 15 l 906 0 l 790 0 l 735 0 l 599 0 l 599 15 q 647 22 628 15 q 671 46 667 28 q 656 96 675 64 l 233 789 m 260 96 q 244 46 240 64 q 268 22 249 28 q 315 15 288 15 l 315 0 l 181 0 l 151 0 l 35 0 l 35 15 q 121 33 76 15 q 194 96 165 50 l 440 493 l 475 442 l 260 96 m 651 789 q 667 839 671 821 q 643 863 663 857 q 594 869 624 869 l 594 885 l 731 885 l 761 885 l 876 885 l 876 869 q 791 852 835 869 q 718 789 747 835 l 503 442 l 468 493 l 651 789 z "},"Y":{"ha":846,"x_min":4,"x_max":842,"o":"m 154 783 q 88 851 131 832 q 4 869 46 869 l 4 885 l 121 885 l 194 885 l 446 369 l 394 369 l 625 786 q 633 838 644 819 q 595 863 622 856 q 531 869 568 869 l 531 885 l 706 885 l 726 885 l 842 885 l 842 869 q 758 851 800 869 q 689 786 715 833 l 451 358 l 451 113 q 481 37 451 58 q 550 15 510 15 l 550 0 l 435 0 l 386 0 l 269 0 l 269 15 q 340 37 310 15 q 369 113 369 58 l 369 354 l 154 783 z "},"Ý":{"ha":846,"x_min":4,"x_max":842,"o":"m 154 783 q 88 851 131 832 q 4 869 46 869 l 4 885 l 121 885 l 194 885 l 446 369 l 394 369 l 625 786 q 633 838 644 819 q 595 863 622 856 q 531 869 568 869 l 531 885 l 706 885 l 726 885 l 842 885 l 842 869 q 758 851 800 869 q 689 786 715 833 l 451 358 l 451 113 q 481 37 451 58 q 550 15 510 15 l 550 0 l 435 0 l 386 0 l 269 0 l 269 15 q 340 37 310 15 q 369 113 369 58 l 369 354 l 154 783 z "},"Ŷ":{"ha":846,"x_min":4,"x_max":842,"o":"m 154 783 q 88 851 131 832 q 4 869 46 869 l 4 885 l 121 885 l 194 885 l 446 369 l 394 369 l 625 786 q 633 838 644 819 q 595 863 622 856 q 531 869 568 869 l 531 885 l 706 885 l 726 885 l 842 885 l 842 869 q 758 851 800 869 q 689 786 715 833 l 451 358 l 451 113 q 481 37 451 58 q 550 15 510 15 l 550 0 l 435 0 l 386 0 l 269 0 l 269 15 q 340 37 310 15 q 369 113 369 58 l 369 354 l 154 783 m 406 1103 l 436 1103 l 568 953 l 485 953 l 422 1039 l 357 953 l 275 953 l 406 1103 z "},"Ÿ":{"ha":846,"x_min":4,"x_max":842,"o":"m 154 783 q 88 851 131 832 q 4 869 46 869 l 4 885 l 121 885 l 194 885 l 446 369 l 394 369 l 625 786 q 633 838 644 819 q 595 863 622 856 q 531 869 568 869 l 531 885 l 706 885 l 726 885 l 842 885 l 842 869 q 758 851 800 869 q 689 786 715 833 l 451 358 l 451 113 q 481 37 451 58 q 550 15 510 15 l 550 0 l 435 0 l 386 0 l 269 0 l 269 15 q 340 37 310 15 q 369 113 369 58 l 369 354 l 154 783 m 318 1107 l 399 1026 l 318 946 l 238 1026 l 318 1107 m 526 1107 l 606 1026 l 526 946 l 446 1026 l 526 1107 z "},"Ỳ":{"ha":846,"x_min":4,"x_max":842,"o":"m 154 783 q 88 851 131 832 q 4 869 46 869 l 4 885 l 121 885 l 194 885 l 446 369 l 394 369 l 625 786 q 633 838 644 819 q 595 863 622 856 q 531 869 568 869 l 531 885 l 706 885 l 726 885 l 842 885 l 842 869 q 758 851 800 869 q 689 786 715 833 l 451 358 l 451 113 q 481 37 451 58 q 550 15 510 15 l 550 0 l 435 0 l 386 0 l 269 0 l 269 15 q 340 37 310 15 q 369 113 369 58 l 369 354 l 154 783 m 374 1156 q 438 1041 403 1088 q 536 961 474 994 l 528 947 q 406 998 460 963 q 308 1090 353 1033 l 374 1156 z "},"Z":{"ha":865,"x_min":51,"x_max":817,"o":"m 743 -17 q 711 -4 728 -8 q 668 0 694 0 l 51 0 l 51 13 l 568 690 q 576 701 572 696 q 585 713 581 707 q 711 857 653 807 l 758 843 l 200 826 q 115 760 146 825 q 71 614 83 696 l 56 617 l 93 857 l 97 885 l 804 885 l 804 869 l 321 229 q 296 197 308 211 q 216 103 260 151 q 144 29 172 54 l 107 46 l 664 72 q 749 138 714 75 q 804 283 785 201 l 817 281 l 758 44 l 743 -17 z "},"Ź":{"ha":865,"x_min":51,"x_max":817,"o":"m 743 -17 q 711 -4 728 -8 q 668 0 694 0 l 51 0 l 51 13 l 568 690 q 576 701 572 696 q 585 713 581 707 q 711 857 653 807 l 758 843 l 200 826 q 115 760 146 825 q 71 614 83 696 l 56 617 l 93 857 l 97 885 l 804 885 l 804 869 l 321 229 q 296 197 308 211 q 216 103 260 151 q 144 29 172 54 l 107 46 l 664 72 q 749 138 714 75 q 804 283 785 201 l 817 281 l 758 44 l 743 -17 z "},"Ž":{"ha":865,"x_min":51,"x_max":817,"o":"m 743 -17 q 711 -4 728 -8 q 668 0 694 0 l 51 0 l 51 13 l 568 690 q 576 701 572 696 q 585 713 581 707 q 711 857 653 807 l 758 843 l 200 826 q 115 760 146 825 q 71 614 83 696 l 56 617 l 93 857 l 97 885 l 804 885 l 804 869 l 321 229 q 296 197 308 211 q 216 103 260 151 q 144 29 172 54 l 107 46 l 664 72 q 749 138 714 75 q 804 283 785 201 l 817 281 l 758 44 l 743 -17 z "},"Ż":{"ha":865,"x_min":51,"x_max":817,"o":"m 743 -17 q 711 -4 728 -8 q 668 0 694 0 l 51 0 l 51 13 l 568 690 q 576 701 572 696 q 585 713 581 707 q 711 857 653 807 l 758 843 l 200 826 q 115 760 146 825 q 71 614 83 696 l 56 617 l 93 857 l 97 885 l 804 885 l 804 869 l 321 229 q 296 197 308 211 q 216 103 260 151 q 144 29 172 54 l 107 46 l 664 72 q 749 138 714 75 q 804 283 785 201 l 817 281 l 758 44 l 743 -17 m 432 1172 l 513 1092 l 432 1010 l 351 1092 l 432 1172 z "},"a":{"ha":647,"x_min":69,"x_max":613,"o":"m 450 199 q 378 50 428 110 q 236 -10 329 -10 q 115 42 160 -10 q 69 208 69 94 q 78 318 69 258 l 481 354 l 481 333 l 156 285 q 149 204 149 249 q 177 83 149 124 q 268 43 206 43 q 383 98 340 43 q 441 231 425 153 q 457 388 457 308 q 422 542 457 482 q 294 601 388 601 q 188 567 224 601 q 151 485 151 532 q 158 446 151 463 q 176 425 165 429 l 176 419 l 89 410 l 88 414 q 79 465 79 438 q 133 588 79 536 q 301 640 186 640 q 451 596 401 640 q 516 488 501 551 q 531 342 531 425 l 531 103 q 555 33 531 53 q 613 14 579 14 l 613 0 l 517 0 l 457 0 l 457 199 l 450 199 z "},"á":{"ha":647,"x_min":69,"x_max":613,"o":"m 450 199 q 378 50 428 110 q 236 -10 329 -10 q 115 42 160 -10 q 69 208 69 94 q 78 318 69 258 l 481 354 l 481 333 l 156 285 q 149 204 149 249 q 177 83 149 124 q 268 43 206 43 q 383 98 340 43 q 441 231 425 153 q 457 388 457 308 q 422 542 457 482 q 294 601 388 601 q 188 567 224 601 q 151 485 151 532 q 158 446 151 463 q 176 425 165 429 l 176 419 l 89 410 l 88 414 q 79 465 79 438 q 133 588 79 536 q 301 640 186 640 q 451 596 401 640 q 516 488 501 551 q 531 342 531 425 l 531 103 q 555 33 531 53 q 613 14 579 14 l 613 0 l 517 0 l 457 0 l 457 199 l 450 199 z "},"ă":{"ha":647,"x_min":69,"x_max":613,"o":"m 450 199 q 378 50 428 110 q 236 -10 329 -10 q 115 42 160 -10 q 69 208 69 94 q 78 318 69 258 l 481 354 l 481 333 l 156 285 q 149 204 149 249 q 177 83 149 124 q 268 43 206 43 q 383 98 340 43 q 441 231 425 153 q 457 388 457 308 q 422 542 457 482 q 294 601 388 601 q 188 567 224 601 q 151 485 151 532 q 158 446 151 463 q 176 425 165 429 l 176 419 l 89 410 l 88 414 q 79 465 79 438 q 133 588 79 536 q 301 640 186 640 q 451 596 401 640 q 516 488 501 551 q 531 342 531 425 l 531 103 q 555 33 531 53 q 613 14 579 14 l 613 0 l 517 0 l 457 0 l 457 199 l 450 199 m 251 885 q 253 797 238 831 q 307 763 268 763 q 360 797 344 763 q 361 885 375 831 l 443 885 q 407 772 446 808 q 307 735 368 735 q 207 774 247 735 q 169 885 167 814 l 251 885 z "},"â":{"ha":647,"x_min":69,"x_max":613,"o":"m 450 199 q 378 50 428 110 q 236 -10 329 -10 q 115 42 160 -10 q 69 208 69 94 q 78 318 69 258 l 481 354 l 481 333 l 156 285 q 149 204 149 249 q 177 83 149 124 q 268 43 206 43 q 383 98 340 43 q 441 231 425 153 q 457 388 457 308 q 422 542 457 482 q 294 601 388 601 q 188 567 224 601 q 151 485 151 532 q 158 446 151 463 q 176 425 165 429 l 176 419 l 89 410 l 88 414 q 79 465 79 438 q 133 588 79 536 q 301 640 186 640 q 451 596 401 640 q 516 488 501 551 q 531 342 531 425 l 531 103 q 555 33 531 53 q 613 14 579 14 l 613 0 l 517 0 l 457 0 l 457 199 l 450 199 m 290 899 l 321 899 l 453 749 l 369 749 l 307 835 l 242 749 l 160 749 l 290 899 z "},"ä":{"ha":647,"x_min":69,"x_max":613,"o":"m 450 199 q 378 50 428 110 q 236 -10 329 -10 q 115 42 160 -10 q 69 208 69 94 q 78 318 69 258 l 481 354 l 481 333 l 156 285 q 149 204 149 249 q 177 83 149 124 q 268 43 206 43 q 383 98 340 43 q 441 231 425 153 q 457 388 457 308 q 422 542 457 482 q 294 601 388 601 q 188 567 224 601 q 151 485 151 532 q 158 446 151 463 q 176 425 165 429 l 176 419 l 89 410 l 88 414 q 79 465 79 438 q 133 588 79 536 q 301 640 186 640 q 451 596 401 640 q 516 488 501 551 q 531 342 531 425 l 531 103 q 555 33 531 53 q 613 14 579 14 l 613 0 l 517 0 l 457 0 l 457 199 l 450 199 m 122 835 l 203 915 l 283 835 l 203 753 l 122 835 m 331 835 l 411 915 l 490 835 l 411 753 l 331 835 z "},"à":{"ha":647,"x_min":69,"x_max":613,"o":"m 450 199 q 378 50 428 110 q 236 -10 329 -10 q 115 42 160 -10 q 69 208 69 94 q 78 318 69 258 l 481 354 l 481 333 l 156 285 q 149 204 149 249 q 177 83 149 124 q 268 43 206 43 q 383 98 340 43 q 441 231 425 153 q 457 388 457 308 q 422 542 457 482 q 294 601 388 601 q 188 567 224 601 q 151 485 151 532 q 158 446 151 463 q 176 425 165 429 l 176 419 l 89 410 l 88 414 q 79 465 79 438 q 133 588 79 536 q 301 640 186 640 q 451 596 401 640 q 516 488 501 551 q 531 342 531 425 l 531 103 q 555 33 531 53 q 613 14 579 14 l 613 0 l 517 0 l 457 0 l 457 199 l 450 199 m 258 922 q 323 806 288 856 q 421 714 358 757 l 413 700 q 290 764 343 726 q 193 857 236 801 l 258 922 z "},"ā":{"ha":647,"x_min":69,"x_max":613,"o":"m 450 199 q 378 50 428 110 q 236 -10 329 -10 q 115 42 160 -10 q 69 208 69 94 q 78 318 69 258 l 481 354 l 481 333 l 156 285 q 149 204 149 249 q 177 83 149 124 q 268 43 206 43 q 383 98 340 43 q 441 231 425 153 q 457 388 457 308 q 422 542 457 482 q 294 601 388 601 q 188 567 224 601 q 151 485 151 532 q 158 446 151 463 q 176 425 165 429 l 176 419 l 89 410 l 88 414 q 79 465 79 438 q 133 588 79 536 q 301 640 186 640 q 451 596 401 640 q 516 488 501 551 q 531 342 531 425 l 531 103 q 555 33 531 53 q 613 14 579 14 l 613 0 l 517 0 l 457 0 l 457 199 l 450 199 m 493 792 l 493 753 l 119 753 l 119 792 l 493 792 z "},"ą":{"ha":647,"x_min":69,"x_max":613,"o":"m 450 199 q 378 50 428 110 q 236 -10 329 -10 q 115 42 160 -10 q 69 208 69 94 q 78 318 69 258 l 481 354 l 481 333 l 156 285 q 149 204 149 249 q 177 83 149 124 q 268 43 206 43 q 383 98 340 43 q 441 231 425 153 q 457 388 457 308 q 422 542 457 482 q 294 601 388 601 q 188 567 224 601 q 151 485 151 532 q 158 446 151 463 q 176 425 165 429 l 176 419 l 89 410 l 88 414 q 79 465 79 438 q 133 588 79 536 q 301 640 186 640 q 451 596 401 640 q 516 488 501 551 q 531 342 531 425 l 531 103 q 555 33 531 53 q 613 14 579 14 l 613 0 l 517 0 l 457 0 l 457 199 l 450 199 m 561 -239 q 458 -268 510 -268 q 368 -237 401 -268 q 335 -156 335 -207 q 376 -59 335 -104 q 482 18 418 -14 l 497 13 q 416 -60 442 -26 q 390 -136 390 -94 q 406 -177 390 -161 q 450 -193 422 -193 q 487 -185 471 -193 q 521 -162 503 -178 l 561 -239 z "},"å":{"ha":647,"x_min":69,"x_max":613,"o":"m 450 199 q 378 50 428 110 q 236 -10 329 -10 q 115 42 160 -10 q 69 208 69 94 q 78 318 69 258 l 481 354 l 481 333 l 156 285 q 149 204 149 249 q 177 83 149 124 q 268 43 206 43 q 383 98 340 43 q 441 231 425 153 q 457 388 457 308 q 422 542 457 482 q 294 601 388 601 q 188 567 224 601 q 151 485 151 532 q 158 446 151 463 q 176 425 165 429 l 176 419 l 89 410 l 88 414 q 79 465 79 438 q 133 588 79 536 q 301 640 186 640 q 451 596 401 640 q 516 488 501 551 q 531 342 531 425 l 531 103 q 555 33 531 53 q 613 14 579 14 l 613 0 l 517 0 l 457 0 l 457 199 l 450 199 m 307 739 q 250 763 274 739 q 226 819 226 786 q 250 876 226 853 q 307 899 274 899 q 364 876 340 899 q 388 819 388 853 q 364 763 388 786 q 307 739 340 739 m 307 772 q 340 786 326 772 q 354 819 354 800 q 340 852 354 839 q 307 865 326 865 q 274 852 288 865 q 261 819 261 839 q 274 786 261 800 q 307 772 288 772 z "},"ã":{"ha":647,"x_min":69,"x_max":613,"o":"m 450 199 q 378 50 428 110 q 236 -10 329 -10 q 115 42 160 -10 q 69 208 69 94 q 78 318 69 258 l 481 354 l 481 333 l 156 285 q 149 204 149 249 q 177 83 149 124 q 268 43 206 43 q 383 98 340 43 q 441 231 425 153 q 457 388 457 308 q 422 542 457 482 q 294 601 388 601 q 188 567 224 601 q 151 485 151 532 q 158 446 151 463 q 176 425 165 429 l 176 419 l 89 410 l 88 414 q 79 465 79 438 q 133 588 79 536 q 301 640 186 640 q 451 596 401 640 q 516 488 501 551 q 531 342 531 425 l 531 103 q 555 33 531 53 q 613 14 579 14 l 613 0 l 517 0 l 457 0 l 457 199 l 450 199 m 146 746 q 253 817 206 817 q 322 801 286 817 q 353 793 336 797 q 383 789 369 789 q 419 797 403 789 q 454 818 435 804 l 460 822 l 467 814 q 358 743 407 743 q 289 758 328 743 q 259 767 275 763 q 229 771 243 771 q 196 765 211 771 q 161 744 181 758 l 153 739 l 146 746 z "},"æ":{"ha":1001,"x_min":69,"x_max":953,"o":"m 229 -10 q 114 43 158 -10 q 69 208 69 96 q 78 318 69 258 l 446 351 l 447 388 q 415 543 447 485 q 292 601 383 601 q 185 567 219 601 q 151 485 151 532 q 158 446 151 463 q 176 425 165 429 l 176 419 l 89 410 l 88 414 q 79 465 79 438 q 131 588 79 536 q 299 640 183 640 q 430 606 383 640 q 499 500 476 571 q 588 607 533 574 q 718 640 643 640 q 890 575 838 640 q 942 401 942 510 q 935 318 942 367 l 532 318 q 586 108 533 178 q 738 38 639 38 q 848 63 804 38 q 913 122 892 89 q 939 178 933 154 l 953 175 q 927 103 950 146 q 852 25 904 60 q 714 -10 800 -10 q 542 44 607 -10 q 457 201 478 99 q 413 89 440 135 q 341 17 386 43 q 229 -10 296 -10 m 261 43 q 392 131 350 43 q 444 329 435 218 l 156 285 q 149 204 149 249 q 177 85 149 126 q 261 43 206 43 m 844 360 q 851 426 851 394 q 818 551 851 500 q 714 601 785 601 q 626 574 667 601 q 560 487 586 546 q 532 338 533 428 l 844 360 z "},"b":{"ha":692,"x_min":42,"x_max":628,"o":"m 201 461 q 262 588 214 536 q 403 640 310 640 q 567 567 506 640 q 628 314 628 493 q 567 63 628 136 q 403 -10 506 -10 q 264 44 311 -10 q 201 178 217 99 l 168 178 l 168 461 l 201 461 m 385 29 q 503 97 463 29 q 543 314 543 165 q 502 533 543 464 q 385 601 461 601 q 296 571 338 601 q 228 476 254 540 q 201 314 201 411 q 228 154 201 218 q 296 60 254 90 q 385 29 338 29 m 42 0 l 42 14 q 100 33 75 14 q 125 103 125 53 l 125 782 q 100 851 125 832 q 42 871 75 871 l 42 885 l 139 885 l 201 885 l 201 0 l 139 0 l 42 0 z "},"c":{"ha":603,"x_min":49,"x_max":554,"o":"m 449 408 q 456 465 456 436 q 422 565 456 528 q 326 601 388 601 q 187 529 239 601 q 133 342 135 457 q 189 117 132 196 q 339 38 246 38 q 472 89 424 38 q 539 211 521 140 l 554 207 q 485 57 539 124 q 324 -10 431 -10 q 120 74 192 -10 q 49 317 49 158 q 126 558 49 475 q 331 640 203 640 q 490 583 429 640 q 550 438 550 525 q 546 397 550 418 l 449 408 z "},"ć":{"ha":603,"x_min":49,"x_max":554,"o":"m 449 408 q 456 465 456 436 q 422 565 456 528 q 326 601 388 601 q 187 529 239 601 q 133 342 135 457 q 189 117 132 196 q 339 38 246 38 q 472 89 424 38 q 539 211 521 140 l 554 207 q 485 57 539 124 q 324 -10 431 -10 q 120 74 192 -10 q 49 317 49 158 q 126 558 49 475 q 331 640 203 640 q 490 583 429 640 q 550 438 550 525 q 546 397 550 418 l 449 408 z "},"č":{"ha":603,"x_min":49,"x_max":554,"o":"m 449 408 q 456 465 456 436 q 422 565 456 528 q 326 601 388 601 q 187 529 239 601 q 133 342 135 457 q 189 117 132 196 q 339 38 246 38 q 472 89 424 38 q 539 211 521 140 l 554 207 q 485 57 539 124 q 324 -10 431 -10 q 120 74 192 -10 q 49 317 49 158 q 126 558 49 475 q 331 640 203 640 q 490 583 429 640 q 550 438 550 525 q 546 397 550 418 l 449 408 z "},"ç":{"ha":603,"x_min":49,"x_max":554,"o":"m 449 408 q 456 465 456 436 q 422 565 456 528 q 326 601 388 601 q 187 529 239 601 q 133 342 135 457 q 189 117 132 196 q 339 38 246 38 q 472 89 424 38 q 539 211 521 140 l 554 207 q 485 57 539 124 q 324 -10 431 -10 q 120 74 192 -10 q 49 317 49 158 q 126 558 49 475 q 331 640 203 640 q 490 583 429 640 q 550 438 550 525 q 546 397 550 418 l 449 408 m 201 -187 q 208 -140 201 -157 l 269 -153 q 258 -192 258 -172 q 273 -226 258 -212 q 313 -240 288 -240 q 357 -224 340 -240 q 374 -175 374 -208 q 353 -119 374 -140 q 294 -97 332 -97 q 232 -108 263 -97 l 288 11 l 356 11 l 297 -90 l 290 -82 q 325 -76 306 -76 q 401 -99 372 -76 q 429 -175 429 -121 q 397 -248 429 -218 q 311 -278 364 -278 q 231 -251 261 -278 q 201 -187 201 -225 z "},"ċ":{"ha":603,"x_min":49,"x_max":554,"o":"m 449 408 q 456 465 456 436 q 422 565 456 528 q 326 601 388 601 q 187 529 239 601 q 133 342 135 457 q 189 117 132 196 q 339 38 246 38 q 472 89 424 38 q 539 211 521 140 l 554 207 q 485 57 539 124 q 324 -10 431 -10 q 120 74 192 -10 q 49 317 49 158 q 126 558 49 475 q 331 640 203 640 q 490 583 429 640 q 550 438 550 525 q 546 397 550 418 l 449 408 m 301 915 l 382 835 l 301 753 l 221 835 l 301 915 z "},"d":{"ha":696,"x_min":69,"x_max":654,"o":"m 494 782 q 469 851 494 832 q 411 871 444 871 l 411 885 l 508 885 l 571 885 l 571 103 q 596 33 571 53 q 654 14 621 14 l 654 0 l 557 0 l 494 0 l 494 782 m 529 178 l 496 178 q 433 44 481 99 q 294 -10 386 -10 q 131 63 192 -10 q 69 314 69 136 q 131 567 69 493 q 294 640 192 640 q 435 588 388 640 q 496 461 483 536 l 529 461 l 529 178 m 313 29 q 401 60 360 29 q 469 154 443 90 q 496 314 496 218 q 469 476 496 411 q 401 571 443 540 q 313 601 360 601 q 195 533 236 601 q 154 314 154 464 q 194 97 154 165 q 313 29 235 29 z "},"ð":{"ha":650,"x_min":69,"x_max":594,"o":"m 344 -7 q 198 34 260 -7 q 103 150 136 75 q 69 325 69 225 q 99 504 69 433 q 178 608 128 575 q 294 640 229 640 q 445 571 385 640 q 521 400 506 501 l 513 393 q 429 731 513 610 q 199 876 346 851 l 201 890 q 392 822 301 881 q 538 652 482 763 q 594 386 594 542 q 571 158 594 243 q 493 33 547 72 q 344 -7 439 -7 m 344 32 q 472 99 432 32 q 513 276 513 167 q 486 430 513 354 q 414 553 460 506 q 313 601 368 601 q 196 529 238 601 q 154 324 154 457 q 203 107 154 182 q 344 32 251 32 m 569 858 l 579 821 l 218 724 l 208 763 l 569 858 z "},"ď":{"ha":808,"x_min":69,"x_max":788,"o":"m 494 782 q 469 851 494 832 q 411 871 444 871 l 411 885 l 508 885 l 571 885 l 571 103 q 596 33 571 53 q 654 14 621 14 l 654 0 l 557 0 l 494 0 l 494 782 m 529 178 l 496 178 q 433 44 481 99 q 294 -10 386 -10 q 131 63 192 -10 q 69 314 69 136 q 131 567 69 493 q 294 640 192 640 q 435 588 388 640 q 496 461 483 536 l 529 461 l 529 178 m 313 29 q 401 60 360 29 q 469 154 443 90 q 496 314 496 218 q 469 476 496 411 q 401 571 443 540 q 313 601 360 601 q 195 533 236 601 q 154 314 154 464 q 194 97 154 165 q 313 29 235 29 z "},"đ":{"ha":696,"x_min":69,"x_max":654,"o":"m 494 782 q 469 851 494 832 q 411 871 444 871 l 411 885 l 508 885 l 571 885 l 571 103 q 596 33 571 53 q 654 14 621 14 l 654 0 l 557 0 l 494 0 l 494 782 m 529 178 l 496 178 q 433 44 481 99 q 294 -10 386 -10 q 131 63 192 -10 q 69 314 69 136 q 131 567 69 493 q 294 640 192 640 q 435 588 388 640 q 496 461 483 536 l 529 461 l 529 178 m 313 29 q 401 60 360 29 q 469 154 443 90 q 496 314 496 218 q 469 476 496 411 q 401 571 443 540 q 313 601 360 601 q 195 533 236 601 q 154 314 154 464 q 194 97 154 165 q 313 29 235 29 m 642 792 l 642 753 l 268 753 l 268 792 l 642 792 z "},"e":{"ha":604,"x_min":49,"x_max":556,"o":"m 317 -10 q 116 76 183 -10 q 49 318 49 163 q 122 556 49 472 q 321 640 194 640 q 493 574 439 640 q 547 401 547 508 q 540 318 547 367 l 119 318 l 119 342 l 481 361 l 451 349 q 461 426 461 393 q 424 550 461 499 q 317 601 388 601 q 187 540 240 601 q 133 343 133 478 q 187 116 133 194 q 340 38 240 38 q 451 66 407 38 q 515 131 494 94 q 542 192 536 167 l 556 189 q 530 112 553 158 q 454 28 507 65 q 317 -10 401 -10 z "},"é":{"ha":604,"x_min":49,"x_max":556,"o":"m 317 -10 q 116 76 183 -10 q 49 318 49 163 q 122 556 49 472 q 321 640 194 640 q 493 574 439 640 q 547 401 547 508 q 540 318 547 367 l 119 318 l 119 342 l 481 361 l 451 349 q 461 426 461 393 q 424 550 461 499 q 317 601 388 601 q 187 540 240 601 q 133 343 133 478 q 187 116 133 194 q 340 38 240 38 q 451 66 407 38 q 515 131 494 94 q 542 192 536 167 l 556 189 q 530 112 553 158 q 454 28 507 65 q 317 -10 401 -10 z "},"ě":{"ha":604,"x_min":49,"x_max":556,"o":"m 317 -10 q 116 76 183 -10 q 49 318 49 163 q 122 556 49 472 q 321 640 194 640 q 493 574 439 640 q 547 401 547 508 q 540 318 547 367 l 119 318 l 119 342 l 481 361 l 451 349 q 461 426 461 393 q 424 550 461 499 q 317 601 388 601 q 187 540 240 601 q 133 343 133 478 q 187 116 133 194 q 340 38 240 38 q 451 66 407 38 q 515 131 494 94 q 542 192 536 167 l 556 189 q 530 112 553 158 q 454 28 507 65 q 317 -10 401 -10 z "},"ê":{"ha":604,"x_min":49,"x_max":556,"o":"m 317 -10 q 116 76 183 -10 q 49 318 49 163 q 122 556 49 472 q 321 640 194 640 q 493 574 439 640 q 547 401 547 508 q 540 318 547 367 l 119 318 l 119 342 l 481 361 l 451 349 q 461 426 461 393 q 424 550 461 499 q 317 601 388 601 q 187 540 240 601 q 133 343 133 478 q 187 116 133 194 q 340 38 240 38 q 451 66 407 38 q 515 131 494 94 q 542 192 536 167 l 556 189 q 530 112 553 158 q 454 28 507 65 q 317 -10 401 -10 m 286 899 l 317 899 l 449 749 l 365 749 l 303 835 l 238 749 l 156 749 l 286 899 z "},"ë":{"ha":604,"x_min":49,"x_max":556,"o":"m 317 -10 q 116 76 183 -10 q 49 318 49 163 q 122 556 49 472 q 321 640 194 640 q 493 574 439 640 q 547 401 547 508 q 540 318 547 367 l 119 318 l 119 342 l 481 361 l 451 349 q 461 426 461 393 q 424 550 461 499 q 317 601 388 601 q 187 540 240 601 q 133 343 133 478 q 187 116 133 194 q 340 38 240 38 q 451 66 407 38 q 515 131 494 94 q 542 192 536 167 l 556 189 q 530 112 553 158 q 454 28 507 65 q 317 -10 401 -10 m 118 835 l 199 915 l 279 835 l 199 753 l 118 835 m 326 835 l 407 915 l 486 835 l 407 753 l 326 835 z "},"ė":{"ha":604,"x_min":49,"x_max":556,"o":"m 317 -10 q 116 76 183 -10 q 49 318 49 163 q 122 556 49 472 q 321 640 194 640 q 493 574 439 640 q 547 401 547 508 q 540 318 547 367 l 119 318 l 119 342 l 481 361 l 451 349 q 461 426 461 393 q 424 550 461 499 q 317 601 388 601 q 187 540 240 601 q 133 343 133 478 q 187 116 133 194 q 340 38 240 38 q 451 66 407 38 q 515 131 494 94 q 542 192 536 167 l 556 189 q 530 112 553 158 q 454 28 507 65 q 317 -10 401 -10 m 303 915 l 383 835 l 303 753 l 222 835 l 303 915 z "},"è":{"ha":604,"x_min":49,"x_max":556,"o":"m 317 -10 q 116 76 183 -10 q 49 318 49 163 q 122 556 49 472 q 321 640 194 640 q 493 574 439 640 q 547 401 547 508 q 540 318 547 367 l 119 318 l 119 342 l 481 361 l 451 349 q 461 426 461 393 q 424 550 461 499 q 317 601 388 601 q 187 540 240 601 q 133 343 133 478 q 187 116 133 194 q 340 38 240 38 q 451 66 407 38 q 515 131 494 94 q 542 192 536 167 l 556 189 q 530 112 553 158 q 454 28 507 65 q 317 -10 401 -10 m 254 922 q 319 806 283 856 q 417 714 354 757 l 408 700 q 285 764 339 726 q 189 857 232 801 l 254 922 z "},"ē":{"ha":604,"x_min":49,"x_max":556,"o":"m 317 -10 q 116 76 183 -10 q 49 318 49 163 q 122 556 49 472 q 321 640 194 640 q 493 574 439 640 q 547 401 547 508 q 540 318 547 367 l 119 318 l 119 342 l 481 361 l 451 349 q 461 426 461 393 q 424 550 461 499 q 317 601 388 601 q 187 540 240 601 q 133 343 133 478 q 187 116 133 194 q 340 38 240 38 q 451 66 407 38 q 515 131 494 94 q 542 192 536 167 l 556 189 q 530 112 553 158 q 454 28 507 65 q 317 -10 401 -10 m 489 792 l 489 753 l 115 753 l 115 792 l 489 792 z "},"ę":{"ha":604,"x_min":49,"x_max":556,"o":"m 317 -10 q 116 76 183 -10 q 49 318 49 163 q 122 556 49 472 q 321 640 194 640 q 493 574 439 640 q 547 401 547 508 q 540 318 547 367 l 119 318 l 119 342 l 481 361 l 451 349 q 461 426 461 393 q 424 550 461 499 q 317 601 388 601 q 187 540 240 601 q 133 343 133 478 q 187 116 133 194 q 340 38 240 38 q 451 66 407 38 q 515 131 494 94 q 542 192 536 167 l 556 189 q 530 112 553 158 q 454 28 507 65 q 317 -10 401 -10 m 485 -239 q 382 -268 433 -268 q 292 -237 325 -268 q 258 -156 258 -207 q 300 -59 258 -104 q 406 18 342 -14 l 421 13 q 340 -60 365 -26 q 314 -136 314 -94 q 330 -177 314 -161 q 374 -193 346 -193 q 410 -185 394 -193 q 444 -162 426 -178 l 485 -239 z "},"f":{"ha":467,"x_min":35,"x_max":515,"o":"m 47 0 l 47 14 q 106 33 81 14 q 131 103 131 53 l 131 628 l 146 628 l 131 708 q 186 849 131 800 q 325 899 242 899 q 433 880 385 899 q 515 815 482 861 l 424 756 l 418 760 q 422 779 422 771 q 394 835 422 810 q 322 860 365 860 q 238 826 268 860 q 207 722 207 793 l 207 103 q 231 33 207 53 q 289 14 256 14 l 289 0 l 193 0 l 144 0 l 47 0 m 35 628 l 171 628 l 171 568 l 35 601 l 35 628 m 421 628 l 421 579 l 201 579 l 201 604 l 299 628 l 421 628 z "},"g":{"ha":668,"x_min":38,"x_max":629,"o":"m 343 -235 q 174 -207 243 -235 q 71 -131 104 -179 q 42 -24 38 -83 l 239 68 l 247 60 l 118 -39 q 140 -122 113 -85 q 219 -181 168 -160 q 332 -201 271 -201 q 479 -163 428 -201 q 531 -67 531 -125 q 392 43 531 40 l 243 46 q 116 86 158 47 q 82 189 74 125 l 221 243 l 228 232 l 151 178 q 177 128 149 144 q 286 110 206 113 l 419 106 q 557 63 507 103 q 607 -54 607 22 q 533 -185 607 -136 q 343 -235 460 -235 m 314 211 q 188 240 240 211 q 110 317 136 268 q 85 426 85 365 q 110 535 85 486 q 188 612 136 583 q 314 640 240 640 q 429 613 381 640 l 449 596 q 516 530 488 576 q 544 417 544 483 q 518 314 544 361 q 440 239 492 267 q 314 211 388 211 m 314 250 q 423 299 385 250 q 461 426 461 349 q 423 553 461 503 q 314 603 385 603 q 206 553 244 603 q 168 426 168 503 q 206 299 168 349 q 314 250 243 250 m 361 628 l 629 628 l 629 614 l 432 569 l 361 628 z "},"ğ":{"ha":668,"x_min":38,"x_max":629,"o":"m 343 -235 q 174 -207 243 -235 q 71 -131 104 -179 q 42 -24 38 -83 l 239 68 l 247 60 l 118 -39 q 140 -122 113 -85 q 219 -181 168 -160 q 332 -201 271 -201 q 479 -163 428 -201 q 531 -67 531 -125 q 392 43 531 40 l 243 46 q 116 86 158 47 q 82 189 74 125 l 221 243 l 228 232 l 151 178 q 177 128 149 144 q 286 110 206 113 l 419 106 q 557 63 507 103 q 607 -54 607 22 q 533 -185 607 -136 q 343 -235 460 -235 m 314 211 q 188 240 240 211 q 110 317 136 268 q 85 426 85 365 q 110 535 85 486 q 188 612 136 583 q 314 640 240 640 q 429 613 381 640 l 449 596 q 516 530 488 576 q 544 417 544 483 q 518 314 544 361 q 440 239 492 267 q 314 211 388 211 m 314 250 q 423 299 385 250 q 461 426 461 349 q 423 553 461 503 q 314 603 385 603 q 206 553 244 603 q 168 426 168 503 q 206 299 168 349 q 314 250 243 250 m 361 628 l 629 628 l 629 614 l 432 569 l 361 628 m 264 885 q 265 797 250 831 q 319 763 281 763 q 372 797 357 763 q 374 885 388 831 l 456 885 q 419 772 458 808 q 319 735 381 735 q 219 774 260 735 q 182 885 179 814 l 264 885 z "},"ģ":{"ha":668,"x_min":38,"x_max":629,"o":"m 343 -235 q 174 -207 243 -235 q 71 -131 104 -179 q 42 -24 38 -83 l 239 68 l 247 60 l 118 -39 q 140 -122 113 -85 q 219 -181 168 -160 q 332 -201 271 -201 q 479 -163 428 -201 q 531 -67 531 -125 q 392 43 531 40 l 243 46 q 116 86 158 47 q 82 189 74 125 l 221 243 l 228 232 l 151 178 q 177 128 149 144 q 286 110 206 113 l 419 106 q 557 63 507 103 q 607 -54 607 22 q 533 -185 607 -136 q 343 -235 460 -235 m 314 211 q 188 240 240 211 q 110 317 136 268 q 85 426 85 365 q 110 535 85 486 q 188 612 136 583 q 314 640 240 640 q 429 613 381 640 l 449 596 q 516 530 488 576 q 544 417 544 483 q 518 314 544 361 q 440 239 492 267 q 314 211 388 211 m 314 250 q 423 299 385 250 q 461 426 461 349 q 423 553 461 503 q 314 603 385 603 q 206 553 244 603 q 168 426 168 503 q 206 299 168 349 q 314 250 243 250 m 361 628 l 629 628 l 629 614 l 432 569 l 361 628 z "},"ġ":{"ha":668,"x_min":38,"x_max":629,"o":"m 343 -235 q 174 -207 243 -235 q 71 -131 104 -179 q 42 -24 38 -83 l 239 68 l 247 60 l 118 -39 q 140 -122 113 -85 q 219 -181 168 -160 q 332 -201 271 -201 q 479 -163 428 -201 q 531 -67 531 -125 q 392 43 531 40 l 243 46 q 116 86 158 47 q 82 189 74 125 l 221 243 l 228 232 l 151 178 q 177 128 149 144 q 286 110 206 113 l 419 106 q 557 63 507 103 q 607 -54 607 22 q 533 -185 607 -136 q 343 -235 460 -235 m 314 211 q 188 240 240 211 q 110 317 136 268 q 85 426 85 365 q 110 535 85 486 q 188 612 136 583 q 314 640 240 640 q 429 613 381 640 l 449 596 q 516 530 488 576 q 544 417 544 483 q 518 314 544 361 q 440 239 492 267 q 314 211 388 211 m 314 250 q 423 299 385 250 q 461 426 461 349 q 423 553 461 503 q 314 603 385 603 q 206 553 244 603 q 168 426 168 503 q 206 299 168 349 q 314 250 243 250 m 361 628 l 629 628 l 629 614 l 432 569 l 361 628 m 319 915 l 400 835 l 319 753 l 239 835 l 319 915 z "},"h":{"ha":704,"x_min":42,"x_max":663,"o":"m 201 103 q 226 33 201 53 q 283 14 250 14 l 283 0 l 188 0 l 139 0 l 42 0 l 42 14 q 100 33 75 14 q 125 103 125 53 l 125 782 q 100 851 125 832 q 42 871 75 871 l 42 885 l 139 885 l 201 885 l 201 103 m 165 460 l 207 460 q 274 586 221 532 q 408 640 326 640 q 538 586 496 640 q 581 429 581 532 l 581 103 q 605 33 581 53 q 663 14 629 14 l 663 0 l 567 0 l 517 0 l 419 0 l 419 14 q 478 33 453 14 q 503 103 503 53 l 503 418 q 475 557 503 513 q 383 601 447 601 q 252 515 303 601 q 201 250 201 429 l 165 250 l 165 460 z "},"ħ":{"ha":704,"x_min":42,"x_max":663,"o":"m 201 103 q 226 33 201 53 q 283 14 250 14 l 283 0 l 188 0 l 139 0 l 42 0 l 42 14 q 100 33 75 14 q 125 103 125 53 l 125 782 q 100 851 125 832 q 42 871 75 871 l 42 885 l 139 885 l 201 885 l 201 103 m 165 460 l 207 460 q 274 586 221 532 q 408 640 326 640 q 538 586 496 640 q 581 429 581 532 l 581 103 q 605 33 581 53 q 663 14 629 14 l 663 0 l 567 0 l 517 0 l 419 0 l 419 14 q 478 33 453 14 q 503 103 503 53 l 503 418 q 475 557 503 513 q 383 601 447 601 q 252 515 303 601 q 201 250 201 429 l 165 250 l 165 460 m 421 792 l 421 753 l 47 753 l 47 792 l 421 792 z "},"i":{"ha":339,"x_min":49,"x_max":290,"o":"m 208 103 q 233 33 208 53 q 290 14 257 14 l 290 0 l 194 0 l 146 0 l 49 0 l 49 14 q 107 33 82 14 q 132 103 132 53 l 132 525 q 107 594 132 575 q 49 614 82 614 l 49 628 l 146 628 l 208 628 l 208 103 m 169 915 l 250 835 l 169 753 l 89 835 l 169 915 z "},"ı":{"ha":339,"x_min":49,"x_max":290,"o":"m 208 103 q 233 33 208 53 q 290 14 257 14 l 290 0 l 194 0 l 146 0 l 49 0 l 49 14 q 107 33 82 14 q 132 103 132 53 l 132 525 q 107 594 132 575 q 49 614 82 614 l 49 628 l 146 628 l 208 628 l 208 103 z "},"í":{"ha":339,"x_min":49,"x_max":290,"o":"m 208 103 q 233 33 208 53 q 290 14 257 14 l 290 0 l 194 0 l 146 0 l 49 0 l 49 14 q 107 33 82 14 q 132 103 132 53 l 132 525 q 107 594 132 575 q 49 614 82 614 l 49 628 l 146 628 l 208 628 l 208 103 z "},"î":{"ha":339,"x_min":22,"x_max":315,"o":"m 208 103 q 233 33 208 53 q 290 14 257 14 l 290 0 l 194 0 l 146 0 l 49 0 l 49 14 q 107 33 82 14 q 132 103 132 53 l 132 525 q 107 594 132 575 q 49 614 82 614 l 49 628 l 146 628 l 208 628 l 208 103 m 153 899 l 183 899 l 315 749 l 232 749 l 169 835 l 104 749 l 22 749 l 153 899 z "},"ï":{"ha":339,"x_min":-15,"x_max":353,"o":"m 208 103 q 233 33 208 53 q 290 14 257 14 l 290 0 l 194 0 l 146 0 l 49 0 l 49 14 q 107 33 82 14 q 132 103 132 53 l 132 525 q 107 594 132 575 q 49 614 82 614 l 49 628 l 146 628 l 208 628 l 208 103 m -15 835 l 65 915 l 146 835 l 65 753 l -15 835 m 193 835 l 274 915 l 353 835 l 274 753 l 193 835 z "},"ì":{"ha":339,"x_min":49,"x_max":290,"o":"m 208 103 q 233 33 208 53 q 290 14 257 14 l 290 0 l 194 0 l 146 0 l 49 0 l 49 14 q 107 33 82 14 q 132 103 132 53 l 132 525 q 107 594 132 575 q 49 614 82 614 l 49 628 l 146 628 l 208 628 l 208 103 m 121 922 q 185 806 150 856 q 283 714 221 757 l 275 700 q 152 764 206 726 q 56 857 99 801 l 121 922 z "},"ī":{"ha":339,"x_min":-18,"x_max":356,"o":"m 208 103 q 233 33 208 53 q 290 14 257 14 l 290 0 l 194 0 l 146 0 l 49 0 l 49 14 q 107 33 82 14 q 132 103 132 53 l 132 525 q 107 594 132 575 q 49 614 82 614 l 49 628 l 146 628 l 208 628 l 208 103 m 356 792 l 356 753 l -18 753 l -18 792 l 356 792 z "},"į":{"ha":339,"x_min":49,"x_max":290,"o":"m 208 103 q 233 33 208 53 q 290 14 257 14 l 290 0 l 194 0 l 146 0 l 49 0 l 49 14 q 107 33 82 14 q 132 103 132 53 l 132 525 q 107 594 132 575 q 49 614 82 614 l 49 628 l 146 628 l 208 628 l 208 103 m 169 915 l 250 835 l 169 753 l 89 835 l 169 915 m 279 -239 q 176 -268 228 -268 q 86 -237 119 -268 q 53 -156 53 -207 q 94 -59 53 -104 q 200 18 136 -14 l 215 13 q 134 -60 160 -26 q 108 -136 108 -94 q 124 -177 108 -161 q 168 -193 140 -193 q 205 -185 189 -193 q 239 -162 221 -178 l 279 -239 z "},"j":{"ha":285,"x_min":28,"x_max":229,"o":"m 106 -361 l 92 -361 l 111 0 l 111 525 q 86 594 111 575 q 28 614 61 614 l 28 628 l 125 628 l 188 628 l 188 -69 l 106 -361 m 229 835 l 149 753 l 68 835 l 149 915 l 229 835 z "},"k":{"ha":703,"x_min":42,"x_max":682,"o":"m 201 103 q 226 33 201 53 q 283 14 250 14 l 283 0 l 188 0 l 139 0 l 42 0 l 42 14 q 100 33 75 14 q 125 103 125 53 l 125 782 q 100 851 125 832 q 42 871 75 871 l 42 885 l 139 885 l 201 885 l 201 103 m 431 549 q 443 590 453 575 q 406 609 433 604 q 338 614 378 614 l 331 614 l 331 628 l 525 628 l 631 628 l 631 614 q 475 540 536 614 l 181 190 l 181 250 l 431 549 m 546 88 q 610 30 572 46 q 682 14 647 14 l 682 0 l 586 0 l 515 0 l 293 346 l 297 349 l 389 336 l 546 88 z "},"ķ":{"ha":703,"x_min":42,"x_max":682,"o":"m 201 103 q 226 33 201 53 q 283 14 250 14 l 283 0 l 188 0 l 139 0 l 42 0 l 42 14 q 100 33 75 14 q 125 103 125 53 l 125 782 q 100 851 125 832 q 42 871 75 871 l 42 885 l 139 885 l 201 885 l 201 103 m 431 549 q 443 590 453 575 q 406 609 433 604 q 338 614 378 614 l 331 614 l 331 628 l 525 628 l 631 628 l 631 614 q 475 540 536 614 l 181 190 l 181 250 l 431 549 m 546 88 q 610 30 572 46 q 682 14 647 14 l 682 0 l 586 0 l 515 0 l 293 346 l 297 349 l 389 336 l 546 88 m 363 -47 l 443 -126 l 372 -386 l 363 -386 l 363 -208 l 282 -126 l 363 -47 z "},"l":{"ha":335,"x_min":49,"x_max":290,"o":"m 208 103 q 233 33 208 53 q 290 14 257 14 l 290 0 l 194 0 l 146 0 l 49 0 l 49 14 q 107 33 82 14 q 132 103 132 53 l 132 782 q 107 851 132 832 q 49 871 82 871 l 49 885 l 146 885 l 208 885 l 208 103 z "},"ĺ":{"ha":335,"x_min":49,"x_max":290,"o":"m 208 103 q 233 33 208 53 q 290 14 257 14 l 290 0 l 194 0 l 146 0 l 49 0 l 49 14 q 107 33 82 14 q 132 103 132 53 l 132 782 q 107 851 132 832 q 49 871 82 871 l 49 885 l 146 885 l 208 885 l 208 103 z "},"ľ":{"ha":447,"x_min":49,"x_max":426,"o":"m 208 103 q 233 33 208 53 q 290 14 257 14 l 290 0 l 194 0 l 146 0 l 49 0 l 49 14 q 107 33 82 14 q 132 103 132 53 l 132 782 q 107 851 132 832 q 49 871 82 871 l 49 885 l 146 885 l 208 885 l 208 103 z "},"ļ":{"ha":335,"x_min":49,"x_max":290,"o":"m 208 103 q 233 33 208 53 q 290 14 257 14 l 290 0 l 194 0 l 146 0 l 49 0 l 49 14 q 107 33 82 14 q 132 103 132 53 l 132 782 q 107 851 132 832 q 49 871 82 871 l 49 885 l 146 885 l 208 885 l 208 103 m 169 -47 l 250 -126 l 179 -386 l 169 -386 l 169 -208 l 89 -126 l 169 -47 z "},"ł":{"ha":410,"x_min":49,"x_max":365,"o":"m 365 539 l 81 300 l 49 338 l 333 576 l 365 539 m 246 103 q 270 33 246 53 q 328 14 294 14 l 328 0 l 232 0 l 183 0 l 86 0 l 86 14 q 144 33 119 14 q 169 103 169 53 l 169 782 q 144 851 169 832 q 86 871 119 871 l 86 885 l 183 885 l 246 885 l 246 103 z "},"m":{"ha":1033,"x_min":47,"x_max":992,"o":"m 524 461 l 564 461 q 619 583 576 526 q 749 640 663 640 q 872 586 835 640 q 910 429 910 532 l 910 103 q 934 33 910 53 q 992 14 958 14 l 992 0 l 896 0 l 847 0 l 750 0 l 750 14 q 808 33 783 14 q 833 103 833 53 l 833 419 q 811 560 833 517 q 725 603 789 603 q 605 516 651 603 q 558 249 558 429 l 524 249 l 524 461 m 172 461 l 213 461 q 268 583 225 526 q 397 640 311 640 q 521 586 483 640 q 558 429 558 532 l 558 103 q 583 33 558 53 q 640 14 607 14 l 640 0 l 544 0 l 496 0 l 399 0 l 399 14 q 457 33 432 14 q 482 103 482 53 l 482 419 q 460 560 482 517 q 374 603 438 603 q 253 516 300 603 q 207 249 207 429 l 172 249 l 172 461 m 207 103 q 231 33 207 53 q 289 14 256 14 l 289 0 l 193 0 l 144 0 l 47 0 l 47 14 q 106 33 81 14 q 131 103 131 53 l 131 525 q 106 594 131 575 q 47 614 81 614 l 47 628 l 144 628 l 207 628 l 207 103 z "},"n":{"ha":710,"x_min":47,"x_max":668,"o":"m 171 460 l 213 460 q 279 586 226 532 q 414 640 332 640 q 544 586 501 640 q 586 429 586 532 l 586 103 q 610 33 586 53 q 668 14 635 14 l 668 0 l 572 0 l 522 0 l 425 0 l 425 14 q 483 33 458 14 q 508 103 508 53 l 508 418 q 481 557 508 513 q 389 601 453 601 q 258 515 308 601 q 207 250 207 429 l 171 250 l 171 460 m 207 103 q 231 33 207 53 q 289 14 256 14 l 289 0 l 193 0 l 144 0 l 47 0 l 47 14 q 106 33 81 14 q 131 103 131 53 l 131 525 q 106 594 131 575 q 47 614 81 614 l 47 628 l 144 628 l 207 628 l 207 103 z "},"ń":{"ha":710,"x_min":47,"x_max":668,"o":"m 171 460 l 213 460 q 279 586 226 532 q 414 640 332 640 q 544 586 501 640 q 586 429 586 532 l 586 103 q 610 33 586 53 q 668 14 635 14 l 668 0 l 572 0 l 522 0 l 425 0 l 425 14 q 483 33 458 14 q 508 103 508 53 l 508 418 q 481 557 508 513 q 389 601 453 601 q 258 515 308 601 q 207 250 207 429 l 171 250 l 171 460 m 207 103 q 231 33 207 53 q 289 14 256 14 l 289 0 l 193 0 l 144 0 l 47 0 l 47 14 q 106 33 81 14 q 131 103 131 53 l 131 525 q 106 594 131 575 q 47 614 81 614 l 47 628 l 144 628 l 207 628 l 207 103 z "},"ň":{"ha":710,"x_min":47,"x_max":668,"o":"m 171 460 l 213 460 q 279 586 226 532 q 414 640 332 640 q 544 586 501 640 q 586 429 586 532 l 586 103 q 610 33 586 53 q 668 14 635 14 l 668 0 l 572 0 l 522 0 l 425 0 l 425 14 q 483 33 458 14 q 508 103 508 53 l 508 418 q 481 557 508 513 q 389 601 453 601 q 258 515 308 601 q 207 250 207 429 l 171 250 l 171 460 m 207 103 q 231 33 207 53 q 289 14 256 14 l 289 0 l 193 0 l 144 0 l 47 0 l 47 14 q 106 33 81 14 q 131 103 131 53 l 131 525 q 106 594 131 575 q 47 614 81 614 l 47 628 l 144 628 l 207 628 l 207 103 z "},"ņ":{"ha":710,"x_min":47,"x_max":668,"o":"m 171 460 l 213 460 q 279 586 226 532 q 414 640 332 640 q 544 586 501 640 q 586 429 586 532 l 586 103 q 610 33 586 53 q 668 14 635 14 l 668 0 l 572 0 l 522 0 l 425 0 l 425 14 q 483 33 458 14 q 508 103 508 53 l 508 418 q 481 557 508 513 q 389 601 453 601 q 258 515 308 601 q 207 250 207 429 l 171 250 l 171 460 m 207 103 q 231 33 207 53 q 289 14 256 14 l 289 0 l 193 0 l 144 0 l 47 0 l 47 14 q 106 33 81 14 q 131 103 131 53 l 131 525 q 106 594 131 575 q 47 614 81 614 l 47 628 l 144 628 l 207 628 l 207 103 m 358 -47 l 439 -126 l 368 -386 l 358 -386 l 358 -208 l 278 -126 l 358 -47 z "},"ŋ":{"ha":669,"x_min":47,"x_max":586,"o":"m 453 -268 q 378 -248 411 -268 q 338 -197 346 -228 l 417 -174 q 435 -218 421 -197 q 474 -239 450 -239 q 508 -199 508 -239 l 508 376 q 483 548 508 494 q 393 601 457 601 q 308 567 350 601 q 236 453 265 532 q 207 250 207 375 l 171 250 l 171 460 l 213 460 q 284 588 232 536 q 414 640 336 640 q 544 586 501 640 q 586 429 586 532 l 586 -151 q 550 -240 586 -211 q 453 -268 514 -268 m 47 0 l 47 14 q 106 33 81 14 q 131 103 131 53 l 131 525 q 106 594 131 575 q 47 614 81 614 l 47 628 l 144 628 l 207 628 l 207 103 q 231 33 207 53 q 289 14 256 14 l 289 0 l 193 0 l 144 0 l 47 0 z "},"ñ":{"ha":710,"x_min":47,"x_max":668,"o":"m 171 460 l 213 460 q 279 586 226 532 q 414 640 332 640 q 544 586 501 640 q 586 429 586 532 l 586 103 q 610 33 586 53 q 668 14 635 14 l 668 0 l 572 0 l 522 0 l 425 0 l 425 14 q 483 33 458 14 q 508 103 508 53 l 508 418 q 481 557 508 513 q 389 601 453 601 q 258 515 308 601 q 207 250 207 429 l 171 250 l 171 460 m 207 103 q 231 33 207 53 q 289 14 256 14 l 289 0 l 193 0 l 144 0 l 47 0 l 47 14 q 106 33 81 14 q 131 103 131 53 l 131 525 q 106 594 131 575 q 47 614 81 614 l 47 628 l 144 628 l 207 628 l 207 103 m 197 746 q 304 817 257 817 q 374 801 338 817 q 404 793 388 797 q 435 789 421 789 q 470 797 454 789 q 506 818 486 804 l 511 822 l 518 814 q 410 743 458 743 q 340 758 379 743 q 310 767 326 763 q 281 771 294 771 q 247 765 263 771 q 213 744 232 758 l 204 739 l 197 746 z "},"o":{"ha":639,"x_min":49,"x_max":590,"o":"m 319 640 q 467 597 406 640 q 559 480 528 554 q 590 315 590 406 q 559 150 590 224 q 467 33 528 76 q 319 -10 406 -10 q 119 82 189 -10 q 49 315 49 174 q 79 481 49 407 q 171 597 110 554 q 319 640 232 640 m 319 29 q 460 108 414 29 q 506 315 506 188 q 460 522 506 442 q 319 601 414 601 q 179 522 225 601 q 133 315 133 442 q 179 108 133 188 q 319 29 225 29 z "},"ó":{"ha":639,"x_min":49,"x_max":590,"o":"m 319 640 q 467 597 406 640 q 559 480 528 554 q 590 315 590 406 q 559 150 590 224 q 467 33 528 76 q 319 -10 406 -10 q 119 82 189 -10 q 49 315 49 174 q 79 481 49 407 q 171 597 110 554 q 319 640 232 640 m 319 29 q 460 108 414 29 q 506 315 506 188 q 460 522 506 442 q 319 601 414 601 q 179 522 225 601 q 133 315 133 442 q 179 108 133 188 q 319 29 225 29 z "},"ô":{"ha":639,"x_min":49,"x_max":590,"o":"m 319 640 q 467 597 406 640 q 559 480 528 554 q 590 315 590 406 q 559 150 590 224 q 467 33 528 76 q 319 -10 406 -10 q 119 82 189 -10 q 49 315 49 174 q 79 481 49 407 q 171 597 110 554 q 319 640 232 640 m 319 29 q 460 108 414 29 q 506 315 506 188 q 460 522 506 442 q 319 601 414 601 q 179 522 225 601 q 133 315 133 442 q 179 108 133 188 q 319 29 225 29 m 303 899 l 333 899 l 465 749 l 382 749 l 319 835 l 254 749 l 172 749 l 303 899 z "},"ö":{"ha":639,"x_min":49,"x_max":590,"o":"m 319 640 q 467 597 406 640 q 559 480 528 554 q 590 315 590 406 q 559 150 590 224 q 467 33 528 76 q 319 -10 406 -10 q 119 82 189 -10 q 49 315 49 174 q 79 481 49 407 q 171 597 110 554 q 319 640 232 640 m 319 29 q 460 108 414 29 q 506 315 506 188 q 460 522 506 442 q 319 601 414 601 q 179 522 225 601 q 133 315 133 442 q 179 108 133 188 q 319 29 225 29 m 135 835 l 215 915 l 296 835 l 215 753 l 135 835 m 343 835 l 424 915 l 503 835 l 424 753 l 343 835 z "},"ò":{"ha":639,"x_min":49,"x_max":590,"o":"m 319 640 q 467 597 406 640 q 559 480 528 554 q 590 315 590 406 q 559 150 590 224 q 467 33 528 76 q 319 -10 406 -10 q 119 82 189 -10 q 49 315 49 174 q 79 481 49 407 q 171 597 110 554 q 319 640 232 640 m 319 29 q 460 108 414 29 q 506 315 506 188 q 460 522 506 442 q 319 601 414 601 q 179 522 225 601 q 133 315 133 442 q 179 108 133 188 q 319 29 225 29 m 271 922 q 335 806 300 856 q 433 714 371 757 l 425 700 q 302 764 356 726 q 206 857 249 801 l 271 922 z "},"ő":{"ha":639,"x_min":49,"x_max":590,"o":"m 319 640 q 467 597 406 640 q 559 480 528 554 q 590 315 590 406 q 559 150 590 224 q 467 33 528 76 q 319 -10 406 -10 q 119 82 189 -10 q 49 315 49 174 q 79 481 49 407 q 171 597 110 554 q 319 640 232 640 m 319 29 q 460 108 414 29 q 506 315 506 188 q 460 522 506 442 q 319 601 414 601 q 179 522 225 601 q 133 315 133 442 q 179 108 133 188 q 319 29 225 29 m 382 711 l 360 711 l 360 897 l 440 897 l 382 711 m 256 711 l 232 711 l 232 897 l 313 897 l 256 711 z "},"ō":{"ha":639,"x_min":49,"x_max":590,"o":"m 319 640 q 467 597 406 640 q 559 480 528 554 q 590 315 590 406 q 559 150 590 224 q 467 33 528 76 q 319 -10 406 -10 q 119 82 189 -10 q 49 315 49 174 q 79 481 49 407 q 171 597 110 554 q 319 640 232 640 m 319 29 q 460 108 414 29 q 506 315 506 188 q 460 522 506 442 q 319 601 414 601 q 179 522 225 601 q 133 315 133 442 q 179 108 133 188 q 319 29 225 29 m 506 792 l 506 753 l 132 753 l 132 792 l 506 792 z "},"ø":{"ha":639,"x_min":49,"x_max":590,"o":"m 442 710 l 479 696 l 199 -76 l 161 -61 l 442 710 m 319 640 q 467 597 406 640 q 559 480 528 554 q 590 315 590 406 q 559 150 590 224 q 467 33 528 76 q 319 -10 406 -10 q 119 82 189 -10 q 49 315 49 174 q 79 481 49 407 q 171 597 110 554 q 319 640 232 640 m 319 29 q 460 108 414 29 q 506 315 506 188 q 460 522 506 442 q 319 601 414 601 q 179 522 225 601 q 133 315 133 442 q 179 108 133 188 q 319 29 225 29 z "},"õ":{"ha":639,"x_min":49,"x_max":590,"o":"m 319 640 q 467 597 406 640 q 559 480 528 554 q 590 315 590 406 q 559 150 590 224 q 467 33 528 76 q 319 -10 406 -10 q 119 82 189 -10 q 49 315 49 174 q 79 481 49 407 q 171 597 110 554 q 319 640 232 640 m 319 29 q 460 108 414 29 q 506 315 506 188 q 460 522 506 442 q 319 601 414 601 q 179 522 225 601 q 133 315 133 442 q 179 108 133 188 q 319 29 225 29 m 158 746 q 265 817 218 817 q 335 801 299 817 q 365 793 349 797 q 396 789 382 789 q 431 797 415 789 q 467 818 447 804 l 472 822 l 479 814 q 371 743 419 743 q 301 758 340 743 q 272 767 288 763 q 242 771 256 771 q 208 765 224 771 q 174 744 193 758 l 165 739 l 158 746 z "},"œ":{"ha":1056,"x_min":49,"x_max":1007,"o":"m 49 315 q 80 480 49 406 q 172 597 111 554 q 321 640 233 640 q 458 601 401 640 q 546 485 514 563 q 635 603 578 565 q 772 640 692 640 q 944 575 892 640 q 996 401 996 510 q 989 318 996 367 l 593 318 q 647 106 594 175 q 806 38 699 38 q 909 66 867 38 q 972 131 951 94 q 993 192 993 168 l 1007 190 q 985 113 1007 160 q 912 28 963 65 q 782 -10 861 -10 q 631 26 688 -10 q 544 142 575 63 q 455 28 511 65 q 321 -10 399 -10 q 172 33 233 -10 q 80 150 111 76 q 49 315 49 224 m 135 315 q 181 108 135 188 q 321 29 226 29 q 461 108 415 29 q 507 315 507 188 q 461 522 507 442 q 321 601 415 601 q 181 522 226 601 q 135 315 135 442 m 899 360 q 906 426 906 394 q 872 551 906 500 q 768 601 839 601 q 646 540 694 601 q 593 338 597 479 l 899 360 z "},"p":{"ha":674,"x_min":24,"x_max":610,"o":"m 24 -269 l 24 -256 q 82 -236 57 -256 q 107 -167 107 -217 l 107 525 q 82 594 107 575 q 24 614 57 614 l 24 628 l 121 628 l 183 628 l 183 -269 l 121 -269 l 24 -269 m 183 461 q 244 588 196 536 q 385 640 292 640 q 549 567 488 640 q 610 314 610 493 q 549 63 610 136 q 385 -10 488 -10 q 246 44 293 -10 q 183 178 199 99 l 150 178 l 150 461 l 183 461 m 367 29 q 485 97 444 29 q 525 314 525 165 q 484 533 525 464 q 367 601 443 601 q 278 571 319 601 q 210 476 236 540 q 183 314 183 411 q 210 154 183 218 q 278 60 236 90 q 367 29 319 29 z "},"þ":{"ha":671,"x_min":21,"x_max":607,"o":"m 21 -269 l 21 -256 q 79 -236 54 -256 q 104 -167 104 -217 l 104 782 q 79 851 104 832 q 21 871 54 871 l 21 885 l 118 885 l 181 885 l 181 -269 l 118 -269 l 21 -269 m 181 461 q 241 588 193 536 q 382 640 289 640 q 546 567 485 640 q 607 314 607 493 q 546 63 607 136 q 382 -10 485 -10 q 243 44 290 -10 q 181 178 196 99 l 147 178 l 147 461 l 181 461 m 364 29 q 482 97 442 29 q 522 314 522 165 q 481 533 522 464 q 364 601 440 601 q 275 571 317 601 q 207 476 233 540 q 181 314 181 411 q 207 154 181 218 q 275 60 233 90 q 364 29 317 29 z "},"q":{"ha":674,"x_min":64,"x_max":650,"o":"m 650 -269 l 650 -256 q 592 -236 617 -256 q 567 -167 567 -217 l 567 525 q 592 594 567 575 q 650 614 617 614 l 650 628 l 553 628 l 490 628 l 490 -269 l 553 -269 l 650 -269 m 490 461 q 430 588 478 536 q 289 640 382 640 q 125 567 186 640 q 64 314 64 493 q 125 63 64 136 q 289 -10 186 -10 q 428 44 381 -10 q 490 178 475 99 l 524 178 l 524 461 l 490 461 m 307 29 q 189 97 229 29 q 149 314 149 165 q 190 533 149 464 q 307 601 231 601 q 396 571 354 601 q 464 476 438 540 q 490 314 490 411 q 464 154 490 218 q 396 60 438 90 q 307 29 354 29 z "},"r":{"ha":535,"x_min":47,"x_max":496,"o":"m 207 103 q 231 33 207 53 q 289 14 256 14 l 289 0 l 193 0 l 144 0 l 47 0 l 47 14 q 106 33 81 14 q 131 103 131 53 l 131 525 q 106 594 131 575 q 47 614 81 614 l 47 628 l 144 628 l 207 628 l 207 103 m 211 403 q 272 563 224 490 q 399 636 319 636 q 458 624 432 636 q 496 596 485 613 l 460 496 l 454 497 q 435 551 457 529 q 372 572 414 572 q 253 483 299 572 q 207 186 207 393 l 200 186 l 200 403 l 211 403 z "},"ŕ":{"ha":535,"x_min":47,"x_max":496,"o":"m 207 103 q 231 33 207 53 q 289 14 256 14 l 289 0 l 193 0 l 144 0 l 47 0 l 47 14 q 106 33 81 14 q 131 103 131 53 l 131 525 q 106 594 131 575 q 47 614 81 614 l 47 628 l 144 628 l 207 628 l 207 103 m 211 403 q 272 563 224 490 q 399 636 319 636 q 458 624 432 636 q 496 596 485 613 l 460 496 l 454 497 q 435 551 457 529 q 372 572 414 572 q 253 483 299 572 q 207 186 207 393 l 200 186 l 200 403 l 211 403 z "},"ř":{"ha":535,"x_min":47,"x_max":496,"o":"m 207 103 q 231 33 207 53 q 289 14 256 14 l 289 0 l 193 0 l 144 0 l 47 0 l 47 14 q 106 33 81 14 q 131 103 131 53 l 131 525 q 106 594 131 575 q 47 614 81 614 l 47 628 l 144 628 l 207 628 l 207 103 m 211 403 q 272 563 224 490 q 399 636 319 636 q 458 624 432 636 q 496 596 485 613 l 460 496 l 454 497 q 435 551 457 529 q 372 572 414 572 q 253 483 299 572 q 207 186 207 393 l 200 186 l 200 403 l 211 403 z "},"ŗ":{"ha":535,"x_min":47,"x_max":496,"o":"m 207 103 q 231 33 207 53 q 289 14 256 14 l 289 0 l 193 0 l 144 0 l 47 0 l 47 14 q 106 33 81 14 q 131 103 131 53 l 131 525 q 106 594 131 575 q 47 614 81 614 l 47 628 l 144 628 l 207 628 l 207 103 m 211 403 q 272 563 224 490 q 399 636 319 636 q 458 624 432 636 q 496 596 485 613 l 460 496 l 454 497 q 435 551 457 529 q 372 572 414 572 q 253 483 299 572 q 207 186 207 393 l 200 186 l 200 403 l 211 403 m 172 -47 l 253 -126 l 182 -386 l 172 -386 l 172 -208 l 92 -126 l 172 -47 z "},"s":{"ha":575,"x_min":69,"x_max":513,"o":"m 378 346 q 479 283 446 322 q 513 175 513 243 q 450 29 513 68 q 293 -10 388 -10 q 156 20 213 -10 q 69 90 100 50 l 69 292 l 83 292 q 150 98 96 167 q 293 29 204 29 q 401 62 363 29 q 440 157 440 94 q 416 228 440 200 q 332 278 392 257 l 214 318 q 115 379 149 340 q 82 482 82 418 q 133 593 82 546 q 288 640 183 640 q 403 622 346 640 q 496 574 460 604 l 506 403 l 492 403 q 417 554 465 507 q 292 601 368 601 q 192 571 231 601 q 154 493 154 540 q 176 429 154 453 q 244 390 199 406 l 378 346 z "},"ś":{"ha":575,"x_min":69,"x_max":513,"o":"m 378 346 q 479 283 446 322 q 513 175 513 243 q 450 29 513 68 q 293 -10 388 -10 q 156 20 213 -10 q 69 90 100 50 l 69 292 l 83 292 q 150 98 96 167 q 293 29 204 29 q 401 62 363 29 q 440 157 440 94 q 416 228 440 200 q 332 278 392 257 l 214 318 q 115 379 149 340 q 82 482 82 418 q 133 593 82 546 q 288 640 183 640 q 403 622 346 640 q 496 574 460 604 l 506 403 l 492 403 q 417 554 465 507 q 292 601 368 601 q 192 571 231 601 q 154 493 154 540 q 176 429 154 453 q 244 390 199 406 l 378 346 z "},"š":{"ha":575,"x_min":69,"x_max":513,"o":"m 378 346 q 479 283 446 322 q 513 175 513 243 q 450 29 513 68 q 293 -10 388 -10 q 156 20 213 -10 q 69 90 100 50 l 69 292 l 83 292 q 150 98 96 167 q 293 29 204 29 q 401 62 363 29 q 440 157 440 94 q 416 228 440 200 q 332 278 392 257 l 214 318 q 115 379 149 340 q 82 482 82 418 q 133 593 82 546 q 288 640 183 640 q 403 622 346 640 q 496 574 460 604 l 506 403 l 492 403 q 417 554 465 507 q 292 601 368 601 q 192 571 231 601 q 154 493 154 540 q 176 429 154 453 q 244 390 199 406 l 378 346 z "},"ş":{"ha":575,"x_min":69,"x_max":513,"o":"m 378 346 q 479 283 446 322 q 513 175 513 243 q 450 29 513 68 q 293 -10 388 -10 q 156 20 213 -10 q 69 90 100 50 l 69 292 l 83 292 q 150 98 96 167 q 293 29 204 29 q 401 62 363 29 q 440 157 440 94 q 416 228 440 200 q 332 278 392 257 l 214 318 q 115 379 149 340 q 82 482 82 418 q 133 593 82 546 q 288 640 183 640 q 403 622 346 640 q 496 574 460 604 l 506 403 l 492 403 q 417 554 465 507 q 292 601 368 601 q 192 571 231 601 q 154 493 154 540 q 176 429 154 453 q 244 390 199 406 l 378 346 m 178 -187 q 185 -140 178 -157 l 246 -153 q 235 -192 235 -172 q 249 -226 235 -212 q 289 -240 264 -240 q 333 -224 317 -240 q 350 -175 350 -208 q 329 -119 350 -140 q 271 -97 308 -97 q 208 -108 239 -97 l 264 11 l 332 11 l 274 -90 l 267 -82 q 301 -76 282 -76 q 377 -99 349 -76 q 406 -175 406 -121 q 373 -248 406 -218 q 288 -278 340 -278 q 208 -251 238 -278 q 178 -187 178 -225 z "},"ș":{"ha":575,"x_min":69,"x_max":513,"o":"m 378 346 q 479 283 446 322 q 513 175 513 243 q 450 29 513 68 q 293 -10 388 -10 q 156 20 213 -10 q 69 90 100 50 l 69 292 l 83 292 q 150 98 96 167 q 293 29 204 29 q 401 62 363 29 q 440 157 440 94 q 416 228 440 200 q 332 278 392 257 l 214 318 q 115 379 149 340 q 82 482 82 418 q 133 593 82 546 q 288 640 183 640 q 403 622 346 640 q 496 574 460 604 l 506 403 l 492 403 q 417 554 465 507 q 292 601 368 601 q 192 571 231 601 q 154 493 154 540 q 176 429 154 453 q 244 390 199 406 l 378 346 m 292 -47 l 372 -126 l 301 -386 l 292 -386 l 292 -208 l 211 -126 l 292 -47 z "},"ß":{"ha":760,"x_min":42,"x_max":718,"o":"m 426 11 q 539 58 493 26 q 608 137 585 90 q 632 244 632 183 q 568 402 632 346 q 383 458 504 458 l 367 458 l 367 468 l 464 482 l 593 664 q 558 804 603 751 q 424 857 514 857 q 322 834 367 857 q 250 759 276 811 q 224 624 224 707 l 224 0 l 158 0 l 42 0 l 42 15 q 112 37 82 15 q 142 113 142 58 l 142 614 q 178 767 142 703 q 278 865 214 832 q 424 899 342 899 q 620 826 554 899 q 675 632 686 753 l 488 479 q 654 400 590 461 q 718 239 718 339 q 643 65 718 132 q 426 -1 568 -1 l 426 11 m 46 628 l 182 628 l 182 568 l 46 601 l 46 628 z "},"t":{"ha":451,"x_min":42,"x_max":417,"o":"m 207 171 q 233 73 207 103 q 307 43 258 43 q 372 64 347 43 q 404 114 396 85 l 417 114 q 378 26 411 63 q 281 -10 344 -10 q 167 35 204 -10 q 129 163 129 79 l 129 579 l 42 579 l 42 611 q 148 677 113 628 q 192 822 183 726 l 207 822 l 207 171 m 414 628 l 414 579 l 194 579 l 194 604 l 292 628 l 414 628 z "},"ŧ":{"ha":451,"x_min":42,"x_max":417,"o":"m 207 171 q 233 73 207 103 q 307 43 258 43 q 372 64 347 43 q 404 114 396 85 l 417 114 q 378 26 411 63 q 281 -10 344 -10 q 167 35 204 -10 q 129 163 129 79 l 129 579 l 42 579 l 42 611 q 148 677 113 628 q 192 822 183 726 l 207 822 l 207 171 m 414 628 l 414 579 l 194 579 l 194 604 l 292 628 l 414 628 m 415 417 l 415 378 l 42 378 l 42 417 l 415 417 z "},"ť":{"ha":451,"x_min":42,"x_max":417,"o":"m 336 921 l 417 842 l 346 679 l 336 679 l 336 788 l 256 842 l 336 921 m 207 171 q 233 73 207 103 q 307 43 258 43 q 372 64 347 43 q 404 114 396 85 l 417 114 q 378 26 411 63 q 281 -10 344 -10 q 167 35 204 -10 q 129 163 129 79 l 129 579 l 42 579 l 42 611 q 148 677 113 628 q 192 822 183 726 l 207 822 l 207 171 m 414 628 l 414 579 l 194 579 l 194 604 l 292 628 l 414 628 z "},"ţ":{"ha":451,"x_min":42,"x_max":417,"o":"m 207 171 q 233 73 207 103 q 307 43 258 43 q 372 64 347 43 q 404 114 396 85 l 417 114 q 378 26 411 63 q 281 -10 344 -10 q 167 35 204 -10 q 129 163 129 79 l 129 579 l 42 579 l 42 611 q 148 677 113 628 q 192 822 183 726 l 207 822 l 207 171 m 414 628 l 414 579 l 194 579 l 194 604 l 292 628 l 414 628 m 150 -187 q 157 -140 150 -157 l 218 -153 q 207 -192 207 -172 q 222 -226 207 -212 q 261 -240 236 -240 q 306 -224 289 -240 q 322 -175 322 -208 q 301 -119 322 -140 q 243 -97 281 -97 q 181 -108 211 -97 l 236 11 l 304 11 l 246 -90 l 239 -82 q 274 -76 254 -76 q 349 -99 321 -76 q 378 -175 378 -121 q 345 -248 378 -218 q 260 -278 313 -278 q 180 -251 210 -278 q 150 -187 150 -225 z "},"ț":{"ha":451,"x_min":42,"x_max":417,"o":"m 207 171 q 233 73 207 103 q 307 43 258 43 q 372 64 347 43 q 404 114 396 85 l 417 114 q 378 26 411 63 q 281 -10 344 -10 q 167 35 204 -10 q 129 163 129 79 l 129 579 l 42 579 l 42 611 q 148 677 113 628 q 192 822 183 726 l 207 822 l 207 171 m 414 628 l 414 579 l 194 579 l 194 604 l 292 628 l 414 628 m 264 -47 l 344 -126 l 274 -386 l 264 -386 l 264 -208 l 183 -126 l 264 -47 z "},"u":{"ha":686,"x_min":28,"x_max":644,"o":"m 279 -11 q 151 38 193 -11 q 110 186 110 86 l 110 525 q 85 594 110 575 q 28 614 61 614 l 28 628 l 124 628 l 188 628 l 188 211 q 215 72 188 117 q 304 28 242 28 q 435 113 386 28 q 485 379 485 199 l 521 379 l 521 169 l 479 169 q 414 42 465 96 q 279 -11 363 -11 m 485 525 q 460 594 485 575 q 403 614 436 614 l 403 628 l 499 628 l 561 628 l 561 103 q 586 33 561 53 q 644 14 611 14 l 644 0 l 547 0 l 485 0 l 485 525 z "},"ú":{"ha":686,"x_min":28,"x_max":644,"o":"m 279 -11 q 151 38 193 -11 q 110 186 110 86 l 110 525 q 85 594 110 575 q 28 614 61 614 l 28 628 l 124 628 l 188 628 l 188 211 q 215 72 188 117 q 304 28 242 28 q 435 113 386 28 q 485 379 485 199 l 521 379 l 521 169 l 479 169 q 414 42 465 96 q 279 -11 363 -11 m 485 525 q 460 594 485 575 q 403 614 436 614 l 403 628 l 499 628 l 561 628 l 561 103 q 586 33 561 53 q 644 14 611 14 l 644 0 l 547 0 l 485 0 l 485 525 z "},"û":{"ha":686,"x_min":28,"x_max":644,"o":"m 279 -11 q 151 38 193 -11 q 110 186 110 86 l 110 525 q 85 594 110 575 q 28 614 61 614 l 28 628 l 124 628 l 188 628 l 188 211 q 215 72 188 117 q 304 28 242 28 q 435 113 386 28 q 485 379 485 199 l 521 379 l 521 169 l 479 169 q 414 42 465 96 q 279 -11 363 -11 m 485 525 q 460 594 485 575 q 403 614 436 614 l 403 628 l 499 628 l 561 628 l 561 103 q 586 33 561 53 q 644 14 611 14 l 644 0 l 547 0 l 485 0 l 485 525 m 318 899 l 349 899 l 481 749 l 397 749 l 335 835 l 269 749 l 188 749 l 318 899 z "},"ü":{"ha":686,"x_min":28,"x_max":644,"o":"m 279 -11 q 151 38 193 -11 q 110 186 110 86 l 110 525 q 85 594 110 575 q 28 614 61 614 l 28 628 l 124 628 l 188 628 l 188 211 q 215 72 188 117 q 304 28 242 28 q 435 113 386 28 q 485 379 485 199 l 521 379 l 521 169 l 479 169 q 414 42 465 96 q 279 -11 363 -11 m 485 525 q 460 594 485 575 q 403 614 436 614 l 403 628 l 499 628 l 561 628 l 561 103 q 586 33 561 53 q 644 14 611 14 l 644 0 l 547 0 l 485 0 l 485 525 m 150 835 l 231 915 l 311 835 l 231 753 l 150 835 m 358 835 l 439 915 l 518 835 l 439 753 l 358 835 z "},"ù":{"ha":686,"x_min":28,"x_max":644,"o":"m 279 -11 q 151 38 193 -11 q 110 186 110 86 l 110 525 q 85 594 110 575 q 28 614 61 614 l 28 628 l 124 628 l 188 628 l 188 211 q 215 72 188 117 q 304 28 242 28 q 435 113 386 28 q 485 379 485 199 l 521 379 l 521 169 l 479 169 q 414 42 465 96 q 279 -11 363 -11 m 485 525 q 460 594 485 575 q 403 614 436 614 l 403 628 l 499 628 l 561 628 l 561 103 q 586 33 561 53 q 644 14 611 14 l 644 0 l 547 0 l 485 0 l 485 525 m 286 922 q 351 806 315 856 q 449 714 386 757 l 440 700 q 317 764 371 726 q 221 857 264 801 l 286 922 z "},"ű":{"ha":686,"x_min":28,"x_max":644,"o":"m 279 -11 q 151 38 193 -11 q 110 186 110 86 l 110 525 q 85 594 110 575 q 28 614 61 614 l 28 628 l 124 628 l 188 628 l 188 211 q 215 72 188 117 q 304 28 242 28 q 435 113 386 28 q 485 379 485 199 l 521 379 l 521 169 l 479 169 q 414 42 465 96 q 279 -11 363 -11 m 485 525 q 460 594 485 575 q 403 614 436 614 l 403 628 l 499 628 l 561 628 l 561 103 q 586 33 561 53 q 644 14 611 14 l 644 0 l 547 0 l 485 0 l 485 525 m 397 711 l 375 711 l 375 897 l 456 897 l 397 711 m 271 711 l 247 711 l 247 897 l 328 897 l 271 711 z "},"ū":{"ha":686,"x_min":28,"x_max":644,"o":"m 279 -11 q 151 38 193 -11 q 110 186 110 86 l 110 525 q 85 594 110 575 q 28 614 61 614 l 28 628 l 124 628 l 188 628 l 188 211 q 215 72 188 117 q 304 28 242 28 q 435 113 386 28 q 485 379 485 199 l 521 379 l 521 169 l 479 169 q 414 42 465 96 q 279 -11 363 -11 m 485 525 q 460 594 485 575 q 403 614 436 614 l 403 628 l 499 628 l 561 628 l 561 103 q 586 33 561 53 q 644 14 611 14 l 644 0 l 547 0 l 485 0 l 485 525 m 521 792 l 521 753 l 147 753 l 147 792 l 521 792 z "},"ų":{"ha":686,"x_min":28,"x_max":644,"o":"m 279 -11 q 151 38 193 -11 q 110 186 110 86 l 110 525 q 85 594 110 575 q 28 614 61 614 l 28 628 l 124 628 l 188 628 l 188 211 q 215 72 188 117 q 304 28 242 28 q 435 113 386 28 q 485 379 485 199 l 521 379 l 521 169 l 479 169 q 414 42 465 96 q 279 -11 363 -11 m 485 525 q 460 594 485 575 q 403 614 436 614 l 403 628 l 499 628 l 561 628 l 561 103 q 586 33 561 53 q 644 14 611 14 l 644 0 l 547 0 l 485 0 l 485 525 m 593 -239 q 490 -268 542 -268 q 400 -237 433 -268 q 367 -156 367 -207 q 408 -59 367 -104 q 514 18 450 -14 l 529 13 q 448 -60 474 -26 q 422 -136 422 -94 q 438 -177 422 -161 q 482 -193 454 -193 q 519 -185 503 -193 q 553 -162 535 -178 l 593 -239 z "},"ů":{"ha":686,"x_min":28,"x_max":644,"o":"m 279 -11 q 151 38 193 -11 q 110 186 110 86 l 110 525 q 85 594 110 575 q 28 614 61 614 l 28 628 l 124 628 l 188 628 l 188 211 q 215 72 188 117 q 304 28 242 28 q 435 113 386 28 q 485 379 485 199 l 521 379 l 521 169 l 479 169 q 414 42 465 96 q 279 -11 363 -11 m 485 525 q 460 594 485 575 q 403 614 436 614 l 403 628 l 499 628 l 561 628 l 561 103 q 586 33 561 53 q 644 14 611 14 l 644 0 l 547 0 l 485 0 l 485 525 m 335 739 q 278 763 301 739 q 254 819 254 786 q 278 876 254 853 q 335 899 301 899 q 392 876 368 899 q 415 819 415 853 q 392 763 415 786 q 335 739 368 739 m 335 772 q 368 786 354 772 q 382 819 382 800 q 368 852 382 839 q 335 865 354 865 q 302 852 315 865 q 289 819 289 839 q 302 786 289 800 q 335 772 315 772 z "},"v":{"ha":665,"x_min":1,"x_max":665,"o":"m 117 531 q 69 595 101 576 q 1 614 36 614 l 1 628 l 99 628 l 161 628 l 358 24 l 338 24 l 506 531 q 492 596 521 578 q 413 614 463 614 l 413 628 l 558 628 l 569 628 l 665 628 l 665 614 q 599 595 632 614 q 551 531 567 576 l 379 0 l 288 0 l 117 531 z "},"w":{"ha":1025,"x_min":4,"x_max":1025,"o":"m 306 0 l 121 531 q 72 595 106 576 q 4 614 39 614 l 4 628 l 101 628 l 165 628 l 369 38 l 353 38 l 526 547 l 556 499 l 389 0 l 306 0 m 507 531 q 458 595 492 576 q 390 614 425 614 l 390 628 l 488 628 l 550 628 l 750 40 l 733 40 l 869 529 q 857 595 882 576 q 789 614 832 614 l 789 628 l 915 628 l 929 628 l 1025 628 l 1025 614 q 959 595 990 614 q 915 529 928 576 l 767 0 l 685 0 l 507 531 z "},"ẃ":{"ha":1025,"x_min":4,"x_max":1025,"o":"m 306 0 l 121 531 q 72 595 106 576 q 4 614 39 614 l 4 628 l 101 628 l 165 628 l 369 38 l 353 38 l 526 547 l 556 499 l 389 0 l 306 0 m 507 531 q 458 595 492 576 q 390 614 425 614 l 390 628 l 488 628 l 550 628 l 750 40 l 733 40 l 869 529 q 857 595 882 576 q 789 614 832 614 l 789 628 l 915 628 l 929 628 l 1025 628 l 1025 614 q 959 595 990 614 q 915 529 928 576 l 767 0 l 685 0 l 507 531 z "},"ŵ":{"ha":1025,"x_min":4,"x_max":1025,"o":"m 306 0 l 121 531 q 72 595 106 576 q 4 614 39 614 l 4 628 l 101 628 l 165 628 l 369 38 l 353 38 l 526 547 l 556 499 l 389 0 l 306 0 m 507 531 q 458 595 492 576 q 390 614 425 614 l 390 628 l 488 628 l 550 628 l 750 40 l 733 40 l 869 529 q 857 595 882 576 q 789 614 832 614 l 789 628 l 915 628 l 929 628 l 1025 628 l 1025 614 q 959 595 990 614 q 915 529 928 576 l 767 0 l 685 0 l 507 531 m 499 899 l 529 899 l 661 749 l 578 749 l 515 835 l 450 749 l 368 749 l 499 899 z "},"ẅ":{"ha":1025,"x_min":4,"x_max":1025,"o":"m 306 0 l 121 531 q 72 595 106 576 q 4 614 39 614 l 4 628 l 101 628 l 165 628 l 369 38 l 353 38 l 526 547 l 556 499 l 389 0 l 306 0 m 507 531 q 458 595 492 576 q 390 614 425 614 l 390 628 l 488 628 l 550 628 l 750 40 l 733 40 l 869 529 q 857 595 882 576 q 789 614 832 614 l 789 628 l 915 628 l 929 628 l 1025 628 l 1025 614 q 959 595 990 614 q 915 529 928 576 l 767 0 l 685 0 l 507 531 m 331 835 l 411 915 l 492 835 l 411 753 l 331 835 m 539 835 l 619 915 l 699 835 l 619 753 l 539 835 z "},"ẁ":{"ha":1025,"x_min":4,"x_max":1025,"o":"m 306 0 l 121 531 q 72 595 106 576 q 4 614 39 614 l 4 628 l 101 628 l 165 628 l 369 38 l 353 38 l 526 547 l 556 499 l 389 0 l 306 0 m 507 531 q 458 595 492 576 q 390 614 425 614 l 390 628 l 488 628 l 550 628 l 750 40 l 733 40 l 869 529 q 857 595 882 576 q 789 614 832 614 l 789 628 l 915 628 l 929 628 l 1025 628 l 1025 614 q 959 595 990 614 q 915 529 928 576 l 767 0 l 685 0 l 507 531 m 467 922 q 531 806 496 856 q 629 714 567 757 l 621 700 q 498 764 551 726 q 401 857 444 801 l 467 922 z "},"x":{"ha":657,"x_min":14,"x_max":643,"o":"m 154 539 q 92 598 129 582 q 18 614 54 614 l 18 628 l 115 628 l 189 628 l 508 89 q 571 30 533 46 q 643 14 608 14 l 643 0 l 547 0 l 474 0 l 154 539 m 204 88 q 190 42 186 58 q 213 19 194 25 q 257 14 231 14 l 257 0 l 132 0 l 111 0 l 14 0 l 14 14 q 87 30 49 14 q 151 88 125 46 l 303 329 l 329 288 l 204 88 m 451 540 q 465 586 469 569 q 442 608 461 603 q 397 614 424 614 l 397 628 l 524 628 l 549 628 l 615 628 l 615 618 q 565 607 590 618 q 521 567 539 596 l 346 288 l 319 329 l 451 540 z "},"y":{"ha":674,"x_min":8,"x_max":674,"o":"m 124 531 q 76 595 108 576 q 8 614 43 614 l 8 628 l 106 628 l 172 628 l 376 0 l 294 0 l 124 531 m 513 531 q 512 581 524 563 q 475 607 500 600 q 419 614 450 614 l 419 628 l 565 628 l 578 628 l 674 628 l 674 614 q 607 595 639 614 q 560 531 575 576 l 339 -147 q 306 -229 321 -201 q 266 -270 290 -257 q 200 -283 242 -283 q 93 -242 131 -283 q 64 -133 56 -200 l 146 -144 q 159 -226 139 -201 q 208 -251 179 -251 q 257 -230 242 -251 q 293 -147 272 -208 l 513 531 z "},"ý":{"ha":674,"x_min":8,"x_max":674,"o":"m 124 531 q 76 595 108 576 q 8 614 43 614 l 8 628 l 106 628 l 172 628 l 376 0 l 294 0 l 124 531 m 513 531 q 512 581 524 563 q 475 607 500 600 q 419 614 450 614 l 419 628 l 565 628 l 578 628 l 674 628 l 674 614 q 607 595 639 614 q 560 531 575 576 l 339 -147 q 306 -229 321 -201 q 266 -270 290 -257 q 200 -283 242 -283 q 93 -242 131 -283 q 64 -133 56 -200 l 146 -144 q 159 -226 139 -201 q 208 -251 179 -251 q 257 -230 242 -251 q 293 -147 272 -208 l 513 531 z "},"ŷ":{"ha":674,"x_min":8,"x_max":674,"o":"m 124 531 q 76 595 108 576 q 8 614 43 614 l 8 628 l 106 628 l 172 628 l 376 0 l 294 0 l 124 531 m 513 531 q 512 581 524 563 q 475 607 500 600 q 419 614 450 614 l 419 628 l 565 628 l 578 628 l 674 628 l 674 614 q 607 595 639 614 q 560 531 575 576 l 339 -147 q 306 -229 321 -201 q 266 -270 290 -257 q 200 -283 242 -283 q 93 -242 131 -283 q 64 -133 56 -200 l 146 -144 q 159 -226 139 -201 q 208 -251 179 -251 q 257 -230 242 -251 q 293 -147 272 -208 l 513 531 m 324 899 l 354 899 l 486 749 l 403 749 l 340 835 l 275 749 l 193 749 l 324 899 z "},"ÿ":{"ha":674,"x_min":8,"x_max":674,"o":"m 124 531 q 76 595 108 576 q 8 614 43 614 l 8 628 l 106 628 l 172 628 l 376 0 l 294 0 l 124 531 m 513 531 q 512 581 524 563 q 475 607 500 600 q 419 614 450 614 l 419 628 l 565 628 l 578 628 l 674 628 l 674 614 q 607 595 639 614 q 560 531 575 576 l 339 -147 q 306 -229 321 -201 q 266 -270 290 -257 q 200 -283 242 -283 q 93 -242 131 -283 q 64 -133 56 -200 l 146 -144 q 159 -226 139 -201 q 208 -251 179 -251 q 257 -230 242 -251 q 293 -147 272 -208 l 513 531 m 156 835 l 236 915 l 317 835 l 236 753 l 156 835 m 364 835 l 444 915 l 524 835 l 444 753 l 364 835 z "},"ỳ":{"ha":674,"x_min":8,"x_max":674,"o":"m 124 531 q 76 595 108 576 q 8 614 43 614 l 8 628 l 106 628 l 172 628 l 376 0 l 294 0 l 124 531 m 513 531 q 512 581 524 563 q 475 607 500 600 q 419 614 450 614 l 419 628 l 565 628 l 578 628 l 674 628 l 674 614 q 607 595 639 614 q 560 531 575 576 l 339 -147 q 306 -229 321 -201 q 266 -270 290 -257 q 200 -283 242 -283 q 93 -242 131 -283 q 64 -133 56 -200 l 146 -144 q 159 -226 139 -201 q 208 -251 179 -251 q 257 -230 242 -251 q 293 -147 272 -208 l 513 531 m 292 922 q 356 806 321 856 q 454 714 392 757 l 446 700 q 323 764 376 726 q 226 857 269 801 l 292 922 z "},"z":{"ha":638,"x_min":42,"x_max":588,"o":"m 42 0 q 111 74 76 24 l 396 490 q 501 606 438 551 l 538 594 l 189 583 q 108 531 139 582 q 63 415 78 481 l 50 418 l 92 608 l 99 636 q 130 630 107 632 q 174 628 153 628 l 581 628 l 581 617 l 263 163 q 203 88 239 129 q 143 24 168 46 l 117 39 l 451 54 q 530 102 500 56 q 574 208 560 149 l 588 204 l 549 33 l 539 -8 q 476 0 521 0 l 42 0 z "},"ź":{"ha":638,"x_min":42,"x_max":588,"o":"m 42 0 q 111 74 76 24 l 396 490 q 501 606 438 551 l 538 594 l 189 583 q 108 531 139 582 q 63 415 78 481 l 50 418 l 92 608 l 99 636 q 130 630 107 632 q 174 628 153 628 l 581 628 l 581 617 l 263 163 q 203 88 239 129 q 143 24 168 46 l 117 39 l 451 54 q 530 102 500 56 q 574 208 560 149 l 588 204 l 549 33 l 539 -8 q 476 0 521 0 l 42 0 z "},"ž":{"ha":638,"x_min":42,"x_max":588,"o":"m 42 0 q 111 74 76 24 l 396 490 q 501 606 438 551 l 538 594 l 189 583 q 108 531 139 582 q 63 415 78 481 l 50 418 l 92 608 l 99 636 q 130 630 107 632 q 174 628 153 628 l 581 628 l 581 617 l 263 163 q 203 88 239 129 q 143 24 168 46 l 117 39 l 451 54 q 530 102 500 56 q 574 208 560 149 l 588 204 l 549 33 l 539 -8 q 476 0 521 0 l 42 0 z "},"ż":{"ha":638,"x_min":42,"x_max":588,"o":"m 42 0 q 111 74 76 24 l 396 490 q 501 606 438 551 l 538 594 l 189 583 q 108 531 139 582 q 63 415 78 481 l 50 418 l 92 608 l 99 636 q 130 630 107 632 q 174 628 153 628 l 581 628 l 581 617 l 263 163 q 203 88 239 129 q 143 24 168 46 l 117 39 l 451 54 q 530 102 500 56 q 574 208 560 149 l 588 204 l 549 33 l 539 -8 q 476 0 521 0 l 42 0 m 335 915 l 415 835 l 335 753 l 254 835 l 335 915 z "},"⁄":{"ha":422,"x_min":-60,"x_max":481,"o":"m 71 990 l 113 999 l -18 67 l -60 58 l 71 990 z "},".":{"ha":236,"x_min":38,"x_max":199,"o":"m 118 149 l 199 69 l 118 -12 l 38 69 l 118 149 z "},",":{"ha":236,"x_min":38,"x_max":199,"o":"m 118 149 l 199 69 l 128 -190 l 118 -190 l 118 -12 l 38 69 l 118 149 z "},":":{"ha":236,"x_min":38,"x_max":199,"o":"m 118 149 l 199 69 l 118 -12 l 38 69 l 118 149 m 118 513 l 199 433 l 118 351 l 38 433 l 118 513 z "},";":{"ha":236,"x_min":38,"x_max":199,"o":"m 118 513 l 199 433 l 118 351 l 38 433 l 118 513 m 118 149 l 199 69 l 128 -190 l 118 -190 l 118 -12 l 38 69 l 118 149 z "},"…":{"ha":718,"x_min":38,"x_max":681,"o":"m 519 69 l 601 149 l 681 69 l 601 -12 l 519 69 m 38 69 l 118 149 l 199 69 l 118 -12 l 38 69 m 283 69 l 364 149 l 444 69 l 364 -12 l 283 69 z "},"!":{"ha":303,"x_min":71,"x_max":232,"o":"m 151 149 l 232 69 l 151 -12 l 71 69 l 151 149 m 146 218 l 96 839 l 151 897 l 208 839 l 157 218 l 146 218 z "},"¡":{"ha":303,"x_min":71,"x_max":232,"o":"m 151 479 l 232 558 l 151 640 l 71 558 l 151 479 m 146 410 l 96 -211 l 151 -269 l 208 -211 l 157 410 l 146 410 z "},"?":{"ha":679,"x_min":71,"x_max":607,"o":"m 338 149 l 418 69 l 338 -12 l 257 69 l 338 149 m 319 451 q 460 511 399 458 q 521 665 521 564 q 478 804 521 751 q 349 857 436 857 q 217 809 268 857 q 165 681 165 761 q 174 618 165 647 q 197 567 183 589 l 93 553 q 77 608 83 576 q 71 669 71 639 q 107 779 71 726 q 207 865 143 832 q 349 899 271 899 q 492 867 433 899 q 578 783 550 835 q 607 675 607 732 q 574 541 607 597 q 481 454 540 485 q 340 419 421 424 l 313 418 l 300 450 l 319 451 m 393 394 l 339 222 l 335 222 l 300 450 l 393 394 z "},"¿":{"ha":679,"x_min":72,"x_max":608,"o":"m 342 479 l 261 558 l 342 640 l 422 558 l 342 479 m 360 176 q 219 117 281 169 q 158 -37 158 64 q 201 -176 158 -124 q 331 -229 243 -229 q 463 -181 411 -229 q 514 -53 514 -133 q 505 10 514 -19 q 482 61 496 39 l 586 75 q 602 20 596 51 q 608 -42 608 -11 q 572 -151 608 -99 q 472 -237 536 -204 q 331 -271 408 -271 q 188 -239 246 -271 q 101 -156 129 -207 q 72 -47 72 -104 q 106 87 72 31 q 199 174 139 143 q 339 208 258 204 l 367 210 l 379 178 l 360 176 m 286 233 l 340 406 l 344 406 l 379 178 l 286 233 z "},"·":{"ha":303,"x_min":38,"x_max":199,"o":"m 118 396 l 199 317 l 118 235 l 38 317 l 118 396 z "},"•":{"ha":303,"x_min":71,"x_max":232,"o":"m 151 236 q 94 260 118 236 q 71 317 71 283 q 94 374 71 350 q 151 397 118 397 q 208 374 185 397 q 232 317 232 350 q 208 260 232 283 q 151 236 185 236 z "},"*":{"ha":386,"x_min":42,"x_max":344,"o":"m 179 726 l 42 782 l 68 828 l 186 739 l 167 885 l 219 885 l 200 739 l 318 828 l 344 782 l 207 726 l 344 668 l 318 622 l 200 714 l 219 565 l 167 565 l 186 714 l 68 622 l 42 668 l 179 726 z "},"‽":{"ha":1032,"x_min":104,"x_max":918,"o":"m 439 149 l 519 69 l 439 -12 l 358 69 l 439 149 m 364 240 l 104 807 l 136 881 l 210 846 l 374 244 l 364 240 m 553 469 q 705 477 629 449 q 815 601 781 506 q 822 746 844 682 q 718 840 800 810 q 578 840 642 868 q 486 738 514 813 q 473 675 475 706 q 476 619 471 644 l 374 642 q 378 699 372 668 q 393 758 383 731 q 465 850 413 813 q 588 897 517 888 q 733 879 660 906 q 856 800 813 850 q 909 692 900 750 q 899 581 918 635 q 822 467 872 508 q 705 417 772 425 q 561 432 638 408 l 535 440 l 533 474 l 553 469 m 601 390 l 492 247 l 489 249 l 533 474 l 601 390 z "},"#":{"ha":896,"x_min":-17,"x_max":857,"o":"m 635 885 l 679 885 l 468 0 l 424 0 l 635 885 m -17 299 l 806 299 l 806 257 l -17 257 l -17 299 m 346 885 l 390 885 l 179 0 l 135 0 l 346 885 m 35 628 l 857 628 l 857 586 l 35 586 l 35 628 z "},"/":{"ha":415,"x_min":25,"x_max":390,"o":"m 347 885 l 390 885 l 68 0 l 25 0 l 347 885 z "},"\\":{"ha":415,"x_min":25,"x_max":390,"o":"m 68 885 l 25 885 l 347 0 l 390 0 l 68 885 z "},"(":{"ha":379,"x_min":28,"x_max":351,"o":"m 28 424 q 110 766 28 626 q 344 971 192 906 l 351 956 q 217 851 271 911 q 131 687 163 790 q 100 424 100 583 q 169 68 100 193 q 351 -121 238 -57 l 344 -137 q 114 75 200 -74 q 28 424 28 224 z "},")":{"ha":379,"x_min":28,"x_max":351,"o":"m 351 424 q 269 766 351 626 q 35 971 188 906 l 28 956 q 163 851 108 911 q 248 687 217 790 q 279 424 279 583 q 210 68 279 193 q 28 -121 142 -57 l 35 -137 q 265 75 179 -74 q 351 424 351 224 z "},"{":{"ha":381,"x_min":28,"x_max":353,"o":"m 28 438 q 103 468 69 443 q 136 544 136 493 l 136 596 q 183 824 136 728 q 346 971 231 921 l 353 956 q 253 865 283 918 q 217 741 224 813 q 210 524 210 669 l 210 517 q 183 451 210 468 q 114 428 156 435 l 108 426 l 108 418 l 110 418 q 181 396 151 413 q 210 329 210 379 q 219 110 210 193 q 260 -29 229 28 q 353 -121 290 -86 l 346 -137 q 185 15 233 -87 q 136 250 136 118 l 136 303 q 102 379 136 353 q 28 410 68 406 l 28 438 z "},"}":{"ha":381,"x_min":28,"x_max":353,"o":"m 353 438 q 278 468 311 443 q 244 544 244 493 l 244 596 q 197 824 244 728 q 35 971 150 921 l 28 956 q 127 865 97 918 q 164 741 157 813 q 171 524 171 669 l 171 517 q 198 451 171 468 q 267 428 225 435 l 272 426 l 272 418 l 271 418 q 200 396 229 413 q 171 329 171 379 q 161 110 171 193 q 121 -29 151 28 q 28 -121 90 -86 l 35 -137 q 196 15 147 -87 q 244 250 244 118 l 244 303 q 278 379 244 353 q 353 410 313 406 l 353 438 z "},"[":{"ha":314,"x_min":28,"x_max":286,"o":"m 85 956 l 85 -121 l 28 -121 l 28 956 l 85 956 m 286 922 l 53 911 l 53 956 l 286 956 l 286 922 m 286 -121 l 53 -121 l 53 -78 l 286 -89 l 286 -121 z "},"]":{"ha":314,"x_min":28,"x_max":286,"o":"m 229 956 l 229 -121 l 286 -121 l 286 956 l 229 956 m 28 922 l 261 911 l 261 956 l 28 956 l 28 922 m 28 -121 l 261 -121 l 261 -78 l 28 -89 l 28 -121 z "},"-":{"ha":444,"x_min":42,"x_max":403,"o":"m 403 356 l 403 314 l 42 314 l 42 356 l 403 356 z "},"–":{"ha":542,"x_min":42,"x_max":500,"o":"m 500 356 l 500 314 l 42 314 l 42 356 l 500 356 z "},"—":{"ha":707,"x_min":42,"x_max":665,"o":"m 665 356 l 665 314 l 42 314 l 42 356 l 665 356 z "},"_":{"ha":444,"x_min":42,"x_max":403,"o":"m 403 0 l 403 -42 l 42 -42 l 42 0 l 403 0 z "},"‚":{"ha":236,"x_min":38,"x_max":199,"o":"m 118 149 l 199 69 l 128 -190 l 118 -190 l 118 -12 l 38 69 l 118 149 z "},"„":{"ha":236,"x_min":38,"x_max":199,"o":"m 118 149 l 199 69 l 128 -190 l 118 -190 l 118 -12 l 38 69 l 118 149 m 118 149 l 199 69 l 128 -190 l 118 -190 l 118 -12 l 38 69 l 118 149 z "},"“":{"ha":426,"x_min":38,"x_max":389,"o":"z "},"”":{"ha":426,"x_min":38,"x_max":389,"o":"m 308 915 l 389 836 l 318 576 l 308 576 l 308 754 l 228 836 l 308 915 m 118 915 l 199 836 l 128 576 l 118 576 l 118 754 l 38 836 l 118 915 z "},"‘":{"ha":236,"x_min":38,"x_max":199,"o":"m 118 576 l 38 656 l 108 915 l 118 915 l 118 738 l 199 656 l 118 576 z "},"’":{"ha":236,"x_min":38,"x_max":199,"o":"m 118 921 l 199 842 l 128 582 l 118 582 l 118 760 l 38 842 l 118 921 z "},"«":{"ha":668,"x_min":42,"x_max":626,"o":"m 626 610 l 626 558 l 328 339 l 626 121 l 626 68 l 261 339 l 626 610 m 407 610 l 407 558 l 108 339 l 407 121 l 407 68 l 42 339 l 407 610 z "},"»":{"ha":668,"x_min":42,"x_max":626,"o":"m 42 610 l 42 558 l 340 339 l 42 121 l 42 68 l 407 339 l 42 610 m 261 610 l 261 558 l 560 339 l 261 121 l 261 68 l 626 339 l 261 610 z "},"‹":{"ha":449,"x_min":42,"x_max":407,"o":"m 407 610 l 407 558 l 108 339 l 407 121 l 407 68 l 42 339 l 407 610 z "},"›":{"ha":449,"x_min":42,"x_max":407,"o":"m 42 610 l 42 558 l 340 339 l 42 121 l 42 68 l 407 339 l 42 610 z "},"\"":{"ha":283,"x_min":38,"x_max":246,"o":"m 188 638 l 165 638 l 165 897 l 246 897 l 188 638 m 61 638 l 38 638 l 38 897 l 118 897 l 61 638 z "},"'":{"ha":156,"x_min":38,"x_max":118,"o":"m 60 638 l 38 638 l 38 897 l 118 897 l 60 638 z "}," ":{"ha":308,"x_min":0,"x_max":0,"o":""},"¢":{"ha":422,"x_min":42,"x_max":381,"o":"m 226 204 q 90 259 138 204 q 42 421 42 314 q 94 585 42 529 q 231 640 146 640 q 338 601 297 640 q 378 504 378 563 q 375 482 378 496 l 375 478 l 310 485 q 314 522 314 501 q 292 589 314 564 q 228 614 269 614 q 133 566 168 614 q 99 440 99 518 q 135 291 97 343 q 236 239 174 239 q 326 272 293 239 q 371 353 358 306 l 381 350 q 335 249 371 294 q 226 204 299 204 m 143 139 l 256 719 l 281 717 l 169 136 l 143 139 z "},"$":{"ha":701,"x_min":28,"x_max":646,"o":"m 426 1003 l 467 994 l 276 -119 l 236 -112 l 426 1003 m 432 489 q 592 397 538 450 q 646 246 646 343 q 560 43 646 96 q 342 -10 475 -10 q 145 31 224 -10 q 28 132 67 71 l 28 399 l 42 399 q 80 208 44 290 q 182 78 115 125 q 342 32 249 32 q 501 85 444 32 q 558 219 558 138 q 522 333 558 286 q 408 406 486 379 l 207 478 q 92 550 132 504 q 51 678 51 596 q 83 785 51 735 q 181 867 114 835 q 346 899 247 899 q 493 875 426 899 q 610 806 560 851 l 619 567 l 606 567 q 523 787 585 714 q 342 860 461 860 q 191 813 244 860 q 138 690 138 767 q 162 613 138 647 q 240 558 186 578 l 432 489 z "},"€":{"ha":935,"x_min":42,"x_max":893,"o":"m 179 444 q 280 780 179 661 q 564 899 381 899 q 793 818 722 899 q 886 622 864 738 l 865 618 q 816 732 854 678 q 717 820 778 786 q 579 854 657 854 q 349 751 432 854 q 267 444 267 649 q 353 138 267 242 q 586 35 439 35 q 724 69 664 35 q 823 157 785 103 q 872 271 861 211 l 893 267 q 800 71 871 151 q 571 -10 729 -10 q 283 110 386 -10 q 179 444 179 229 m 715 525 l 715 485 l 83 485 l 83 525 l 715 525 m 674 413 l 674 372 l 42 372 l 42 413 l 674 413 z "},"£":{"ha":742,"x_min":42,"x_max":700,"o":"m 42 51 q 161 170 121 96 q 201 333 201 244 q 197 413 201 371 q 186 494 192 456 q 169 660 169 600 q 197 776 169 722 q 283 865 225 831 q 425 899 340 899 q 583 865 521 899 q 690 771 646 832 l 621 706 q 550 823 599 786 q 429 860 501 860 q 298 810 343 860 q 253 664 253 760 q 269 501 253 610 q 280 422 275 463 q 285 350 285 382 q 241 167 285 246 q 110 51 197 88 l 557 51 q 642 86 611 51 q 685 167 672 121 l 700 163 l 664 32 l 656 0 l 42 0 l 42 51 m 590 483 l 590 443 l 42 443 l 42 483 l 590 483 z "},"¥":{"ha":921,"x_min":28,"x_max":865,"o":"m 700 357 l 194 357 l 194 397 l 700 397 l 700 357 m 700 244 l 194 244 l 194 285 l 700 285 l 700 244 m 178 783 q 112 851 154 832 q 28 869 69 869 l 28 885 l 144 885 l 218 885 l 469 369 l 418 369 l 649 786 q 657 838 668 819 q 619 863 646 856 q 554 869 592 869 l 554 885 l 729 885 l 750 885 l 865 885 l 865 869 q 781 851 824 869 q 713 786 739 833 l 475 358 l 475 113 q 504 37 475 58 q 574 15 533 15 l 574 0 l 458 0 l 410 0 l 293 0 l 293 15 q 363 37 333 15 q 393 113 393 58 l 393 354 l 178 783 z "},"+":{"ha":533,"x_min":42,"x_max":492,"o":"m 242 560 l 290 560 l 290 110 l 242 110 l 242 560 m 42 356 l 492 356 l 492 314 l 42 314 l 42 356 z "},"−":{"ha":542,"x_min":42,"x_max":500,"o":"m 500 356 l 500 314 l 42 314 l 42 356 l 500 356 z "},"×":{"ha":414,"x_min":42,"x_max":372,"o":"m 372 440 q 231 307 283 351 q 360 186 279 267 l 372 174 l 340 142 q 207 283 251 231 q 74 142 163 231 l 42 174 q 183 307 131 263 q 42 440 131 351 l 74 472 l 86 460 q 207 331 167 379 q 340 472 251 383 l 372 440 z "},"÷":{"ha":429,"x_min":42,"x_max":388,"o":"m 214 414 q 181 428 194 414 q 168 461 168 442 q 181 494 168 481 q 214 507 194 507 q 247 494 233 507 q 261 461 261 481 q 247 428 261 442 q 214 414 233 414 m 214 163 q 181 176 194 163 q 168 210 168 190 q 181 242 168 229 q 214 256 194 256 q 247 242 233 256 q 261 210 261 229 q 247 176 261 190 q 214 163 233 163 m 388 356 l 388 314 l 42 314 l 42 356 l 388 356 z "},"=":{"ha":388,"x_min":42,"x_max":346,"o":"m 42 425 l 346 425 l 346 383 l 42 383 l 42 425 m 42 286 l 346 286 l 346 244 l 42 244 l 42 286 z "},"≠":{"ha":388,"x_min":42,"x_max":346,"o":"m 239 528 l 278 528 l 121 133 l 83 133 l 239 528 m 42 286 l 346 286 l 346 244 l 42 244 l 42 286 m 42 425 l 346 425 l 346 383 l 42 383 l 42 425 z "},">":{"ha":531,"x_min":42,"x_max":489,"o":"m 42 88 l 42 143 l 422 339 l 42 536 l 42 590 l 489 339 l 42 88 z "},"<":{"ha":531,"x_min":42,"x_max":489,"o":"m 489 88 l 489 143 l 108 339 l 489 536 l 489 590 l 42 339 l 489 88 z "},"≥":{"ha":531,"x_min":42,"x_max":489,"o":"m 42 88 l 42 143 l 422 339 l 42 536 l 42 590 l 489 339 l 42 88 m 485 128 l 485 88 l 42 88 l 42 128 l 485 128 z "},"≤":{"ha":531,"x_min":42,"x_max":489,"o":"m 489 88 l 489 143 l 108 339 l 489 536 l 489 590 l 42 339 l 489 88 m 46 128 l 46 88 l 489 88 l 489 128 l 46 128 z "},"±":{"ha":533,"x_min":42,"x_max":492,"o":"m 242 560 l 290 560 l 290 110 l 242 110 l 242 560 m 42 129 l 492 129 l 492 88 l 42 88 l 42 129 m 42 364 l 492 364 l 492 322 l 42 322 l 42 364 z "},"≈":{"ha":404,"x_min":42,"x_max":363,"o":"m 42 368 q 149 439 101 439 q 218 424 182 439 q 249 415 232 419 q 279 411 265 411 q 315 419 299 411 q 350 440 331 426 l 356 444 l 363 436 q 254 365 303 365 q 185 381 224 365 q 155 389 171 385 q 125 393 139 393 q 92 387 107 393 q 57 367 76 381 l 49 361 l 42 368 m 42 239 q 149 310 101 310 q 218 294 182 310 q 249 286 232 290 q 279 282 265 282 q 315 290 299 282 q 350 311 331 297 l 356 315 l 363 307 q 254 236 303 236 q 185 251 224 236 q 155 260 171 256 q 125 264 139 264 q 92 258 107 264 q 57 238 76 251 l 49 232 l 42 239 z "},"~":{"ha":404,"x_min":42,"x_max":363,"o":"z "},"¬":{"ha":457,"x_min":42,"x_max":415,"o":"m 367 314 l 42 314 l 42 356 l 415 356 l 415 196 l 367 196 l 367 314 z "},"^":{"ha":446,"x_min":42,"x_max":404,"o":"m 214 935 l 244 935 l 404 549 l 349 549 l 229 885 l 97 549 l 42 549 l 214 935 z "},"∅":{"ha":447,"x_min":42,"x_max":406,"o":"m 224 158 q 100 210 151 158 q 49 333 49 261 q 100 456 49 406 q 224 507 151 507 q 347 456 296 507 q 397 333 397 406 q 347 210 397 261 q 224 158 296 158 m 224 189 q 322 230 282 189 q 363 333 363 271 q 322 435 363 394 q 224 476 282 476 q 124 435 164 476 q 83 333 83 394 q 124 230 83 271 q 224 189 164 189 m 406 549 l 61 104 l 42 117 l 385 561 l 406 549 z "},"∞":{"ha":735,"x_min":42,"x_max":693,"o":"m 42 338 q 87 466 42 419 q 207 513 132 513 q 309 471 275 513 q 349 361 343 429 q 405 469 357 425 q 524 513 453 513 q 643 465 593 513 q 693 338 693 418 q 648 210 693 257 q 529 164 603 164 q 426 206 461 164 q 388 314 392 247 q 330 208 378 251 q 213 164 282 164 q 92 211 142 164 q 42 338 42 258 m 90 344 q 126 239 90 276 q 213 201 161 201 q 301 235 267 201 q 336 344 336 268 q 303 452 336 415 q 214 489 269 489 q 124 452 158 489 q 90 344 90 415 m 399 331 q 433 224 399 261 q 522 188 467 188 q 611 224 578 188 q 644 331 644 261 q 610 438 644 400 q 524 475 575 475 q 433 442 468 475 q 399 331 399 408 z "},"∫":{"ha":461,"x_min":42,"x_max":419,"o":"m 185 43 q 158 -62 174 -22 q 100 -131 142 -101 l 42 -37 l 47 -33 q 65 -37 54 -37 q 117 -10 94 -37 q 147 64 139 18 l 274 779 q 276 797 276 790 q 303 901 288 861 q 360 969 319 940 l 419 878 l 414 872 q 394 876 407 876 q 344 849 365 876 q 314 775 322 821 l 188 60 l 185 43 z "},"∏":{"ha":619,"x_min":0,"x_max":578,"o":"m 349 -139 l 349 -125 q 407 -106 382 -125 q 432 -36 432 -86 l 432 942 l 481 942 l 481 -36 q 506 -106 481 -86 q 564 -125 531 -125 l 564 -139 l 467 -139 l 446 -139 l 349 -139 m 14 -139 l 14 -125 q 72 -106 47 -125 q 97 -36 97 -86 l 97 942 l 146 942 l 146 -36 q 171 -106 146 -86 q 229 -125 196 -125 l 229 -139 l 132 -139 l 111 -139 l 14 -139 m 578 968 l 578 926 l 0 926 l 0 968 l 578 968 z "},"∑":{"ha":732,"x_min":42,"x_max":690,"o":"m 375 403 l 42 926 l 42 968 l 629 968 l 633 940 l 650 844 l 636 842 q 607 901 631 875 q 533 926 583 926 l 99 926 l 424 411 l 93 -97 l 561 -97 q 639 -72 611 -97 q 676 -14 667 -46 l 690 -18 l 660 -110 l 650 -139 l 42 -139 l 42 -97 l 375 403 z "},"√":{"ha":800,"x_min":42,"x_max":786,"o":"m 42 385 l 93 385 l 278 -139 l 228 -139 l 42 385 m 247 -139 l 625 968 l 664 968 l 285 -139 l 247 -139 m 625 968 l 786 968 l 786 926 l 625 926 l 625 968 z "},"∂":{"ha":608,"x_min":42,"x_max":567,"o":"m 317 -7 q 170 34 232 -7 q 75 150 108 75 q 42 325 42 225 q 71 504 42 433 q 151 608 100 575 q 267 640 201 640 q 417 571 357 640 q 493 400 478 501 l 485 393 q 401 731 485 610 q 171 876 318 851 l 174 890 q 364 822 274 881 q 510 652 454 763 q 567 386 567 542 q 543 158 567 243 q 465 33 519 72 q 317 -7 411 -7 m 317 32 q 445 96 406 32 q 485 276 485 160 q 458 430 485 354 q 386 553 432 506 q 285 601 340 601 q 168 529 210 601 q 126 324 126 457 q 175 107 126 182 q 317 32 224 32 z "},"%":{"ha":913,"x_min":42,"x_max":871,"o":"m 738 885 l 790 885 l 174 0 l 121 0 l 738 885 m 690 -10 q 558 48 606 -10 q 511 193 511 106 q 558 335 511 281 q 690 390 606 390 q 824 335 776 390 q 871 193 871 281 q 824 48 871 106 q 690 -10 776 -10 m 690 13 q 779 62 749 13 q 810 193 810 111 q 779 320 810 272 q 690 368 749 368 q 603 320 633 368 q 572 193 572 272 q 603 62 572 111 q 690 13 633 13 m 221 499 q 89 556 136 499 q 42 701 42 614 q 89 844 42 789 q 221 899 136 899 q 354 844 307 899 q 401 701 401 789 q 354 556 401 614 q 221 499 307 499 m 221 521 q 310 570 279 521 q 340 701 340 619 q 310 828 340 781 q 221 876 279 876 q 133 828 164 876 q 103 701 103 781 q 133 570 103 619 q 221 521 164 521 z "},"‰":{"ha":1356,"x_min":42,"x_max":1314,"o":"m 738 885 l 790 885 l 174 0 l 121 0 l 738 885 m 690 -10 q 558 48 606 -10 q 511 193 511 106 q 558 335 511 281 q 690 390 606 390 q 824 335 776 390 q 871 193 871 281 q 824 48 871 106 q 690 -10 776 -10 m 690 13 q 779 62 749 13 q 810 193 810 111 q 779 320 810 272 q 690 368 749 368 q 603 320 633 368 q 572 193 572 272 q 603 62 572 111 q 690 13 633 13 m 221 499 q 89 556 136 499 q 42 701 42 614 q 89 844 42 789 q 221 899 136 899 q 354 844 307 899 q 401 701 401 789 q 354 556 401 614 q 221 499 307 499 m 221 521 q 310 570 279 521 q 340 701 340 619 q 310 828 340 781 q 221 876 279 876 q 133 828 164 876 q 103 701 103 781 q 133 570 103 619 q 221 521 164 521 m 1133 -10 q 1001 48 1049 -10 q 954 193 954 106 q 1001 335 954 281 q 1133 390 1049 390 q 1267 335 1219 390 q 1314 193 1314 281 q 1267 48 1314 106 q 1133 -10 1219 -10 m 1133 13 q 1222 62 1192 13 q 1253 193 1253 111 q 1222 320 1253 272 q 1133 368 1192 368 q 1046 320 1076 368 q 1015 193 1015 272 q 1046 62 1015 111 q 1133 13 1076 13 z "},"↑":{"ha":597,"x_min":42,"x_max":556,"o":"m 749 -283 q 881 -429 826 -356 q 961 -592 935 -503 l 969 -592 q 1050 -429 996 -503 q 1182 -283 1104 -356 l 1222 -325 q 1076 -461 1132 -390 q 976 -633 1019 -532 l 954 -633 q 855 -461 911 -532 q 708 -325 799 -390 l 749 -283 m 986 -58 l 986 -326 l 971 -604 l 960 -604 l 944 -326 l 944 -58 l 986 -58 z "},"↗":{"ha":513,"x_min":42,"x_max":471,"o":"m 557 682 q 754 672 664 686 q 926 614 844 658 l 932 620 q 874 792 887 701 q 864 988 860 882 l 922 987 q 914 787 904 877 q 966 595 925 697 l 950 580 q 758 631 848 621 q 558 624 668 642 l 557 682 m 566 1009 l 756 819 l 941 612 l 934 604 l 726 790 l 537 979 l 566 1009 z "},"→":{"ha":658,"x_min":42,"x_max":617,"o":"m 267 117 q 413 249 339 194 q 575 329 486 303 l 575 338 q 413 418 486 364 q 267 550 339 472 l 308 590 q 444 444 374 500 q 617 344 515 388 l 617 322 q 444 223 515 279 q 308 76 374 167 l 267 117 m 42 354 l 310 354 l 588 339 l 588 328 l 310 313 l 42 313 l 42 354 z "},"↘":{"ha":513,"x_min":42,"x_max":471,"o":"m 557 34 q 754 43 664 30 q 926 101 844 57 l 932 95 q 874 -76 887 14 q 864 -273 860 -167 l 922 -272 q 914 -72 904 -162 q 966 120 925 18 l 950 136 q 758 84 848 94 q 558 91 668 74 l 557 34 m 566 -294 l 756 -104 l 941 103 l 934 111 l 726 -75 l 537 -264 l 566 -294 z "},"↓":{"ha":597,"x_min":42,"x_max":556,"o":"m 749 978 q 881 1124 826 1050 q 961 1286 935 1197 l 969 1286 q 1050 1124 996 1197 q 1182 978 1104 1050 l 1222 1019 q 1076 1156 1132 1085 q 976 1328 1019 1226 l 954 1328 q 855 1156 911 1226 q 708 1019 799 1085 l 749 978 m 986 753 l 986 1021 l 971 1299 l 960 1299 l 944 1021 l 944 753 l 986 753 z "},"↙":{"ha":513,"x_min":42,"x_max":471,"o":"m -45 34 q -241 43 -151 30 q -413 101 -332 57 l -419 95 q -361 -76 -375 14 q -351 -273 -347 -167 l -409 -272 q -402 -72 -392 -162 q -453 120 -412 18 l -438 136 q -246 84 -336 94 q -46 91 -156 74 l -45 34 m -54 -294 l -243 -104 l -429 103 l -421 111 l -214 -75 l -24 -264 l -54 -294 z "},"←":{"ha":658,"x_min":42,"x_max":617,"o":"m 392 117 q 246 249 319 194 q 83 329 172 303 l 83 338 q 246 418 172 364 q 392 550 319 472 l 350 590 q 214 444 285 500 q 42 344 143 388 l 42 322 q 214 223 143 279 q 350 76 285 167 l 392 117 m 617 354 l 349 354 l 71 339 l 71 328 l 349 313 l 617 313 l 617 354 z "},"↖":{"ha":513,"x_min":42,"x_max":471,"o":"m -45 682 q -241 672 -151 686 q -413 614 -332 658 l -419 620 q -361 792 -375 701 q -351 988 -347 882 l -409 987 q -402 787 -392 877 q -453 595 -412 697 l -438 580 q -246 631 -336 621 q -46 624 -156 642 l -45 682 m -54 1009 l -243 819 l -429 612 l -421 604 l -214 790 l -24 979 l -54 1009 z "},"↔":{"ha":965,"x_min":42,"x_max":924,"o":"m 574 117 q 719 242 635 183 q 882 329 804 300 l 882 338 q 719 425 804 367 q 574 550 635 483 l 615 590 q 751 444 681 500 q 924 344 822 388 l 924 322 q 751 223 822 279 q 615 76 681 167 l 574 117 m 349 354 l 617 354 l 894 339 l 894 328 l 617 313 l 349 313 l 349 354 m 350 76 q 214 223 285 167 q 42 322 143 279 l 42 344 q 214 444 143 388 q 350 590 285 500 l 392 550 q 246 418 319 472 q 83 338 172 364 l 83 329 q 246 249 172 303 q 392 117 319 194 l 350 76 m 349 313 l 71 328 l 71 339 l 349 354 l 617 354 l 617 313 l 349 313 z "},"↕":{"ha":597,"x_min":42,"x_max":556,"o":"m 42 404 q 189 532 133 465 q 288 699 244 599 l 310 699 q 408 532 353 599 q 556 404 464 465 l 515 363 q 383 499 438 429 q 303 657 329 568 l 294 657 q 214 499 268 568 q 82 363 160 429 l 42 404 m 288 -58 q 190 107 246 40 q 42 236 133 174 l 82 278 q 215 141 161 210 q 294 -17 268 72 l 303 -17 q 383 141 329 72 q 515 278 436 210 l 556 236 q 408 107 464 174 q 310 -58 351 40 l 288 -58 m 278 249 l 278 392 l 319 392 l 319 249 l 304 -29 l 293 -29 l 278 249 m 278 392 l 293 669 l 304 669 l 319 392 l 319 249 l 278 249 l 278 392 z "},"◊":{"ha":531,"x_min":42,"x_max":489,"o":"m 42 444 l 228 885 l 283 885 l 94 444 l 283 0 l 228 0 l 42 444 m 247 0 l 436 444 l 247 885 l 303 885 l 489 444 l 303 0 l 247 0 z "},"@":{"ha":1213,"x_min":42,"x_max":1171,"o":"m 667 -229 q 209 -62 376 -197 q 42 322 42 74 q 110 623 42 492 q 307 828 179 754 q 607 901 435 901 q 905 826 776 901 q 1102 622 1033 750 q 1171 336 1171 493 q 1167 279 1171 300 l 739 24 l 739 232 l 732 232 q 540 49 681 49 q 436 96 476 49 q 396 246 396 143 q 404 346 396 292 l 738 376 l 739 408 q 710 549 739 496 q 599 601 682 601 q 502 571 532 601 q 472 497 472 540 q 494 443 472 449 l 494 436 l 414 429 q 406 479 406 453 q 453 590 406 543 q 604 638 500 638 q 740 597 694 638 q 797 500 785 557 q 808 367 808 443 l 808 107 l 1096 268 l 1097 276 q 1100 336 1100 310 q 1044 612 1100 493 q 876 797 988 731 q 607 864 765 864 q 338 792 450 864 q 169 601 226 721 q 113 336 113 481 q 263 -30 113 94 q 653 -181 413 -154 l 1151 101 l 1160 86 l 667 -229 m 569 97 q 690 176 651 97 q 736 356 728 256 l 475 315 q 468 242 468 282 q 494 134 468 171 q 569 97 519 97 z "},"&":{"ha":790,"x_min":42,"x_max":749,"o":"m 42 288 q 69 408 42 357 q 140 486 96 460 q 236 513 185 513 q 310 503 279 513 q 361 469 340 494 l 363 471 l 89 885 l 724 885 l 715 840 l 693 708 l 679 710 q 674 789 688 756 q 610 824 660 822 l 211 833 l 614 139 q 656 300 656 204 q 640 441 656 390 q 588 540 624 492 l 711 581 q 749 394 749 501 q 723 217 749 296 q 646 88 697 139 l 706 -17 l 689 -25 l 626 69 q 383 -10 535 -10 q 199 31 276 -10 q 81 140 121 72 q 42 288 42 208 m 129 288 q 157 158 129 215 q 242 67 185 100 q 383 33 300 33 q 597 115 524 33 l 410 400 q 354 453 385 436 q 289 469 324 469 q 210 446 247 469 q 151 381 174 422 q 129 288 129 339 z "},"¶":{"ha":582,"x_min":83,"x_max":499,"o":"m 450 942 l 499 942 l 499 -139 l 450 -139 l 450 942 m 311 942 l 360 942 l 360 -139 l 311 -139 l 311 942 m 311 494 q 147 558 211 500 q 83 719 83 617 q 149 881 83 821 q 311 942 214 942 l 311 494 z "},"§":{"ha":757,"x_min":139,"x_max":618,"o":"m 382 -149 q 230 -118 290 -149 q 139 -39 169 -87 l 139 178 l 150 178 q 213 -37 153 42 q 382 -117 274 -117 q 506 -76 461 -117 q 551 28 551 -35 q 523 115 551 79 q 435 172 494 150 l 278 229 q 189 284 219 249 q 158 383 158 319 q 199 497 158 446 q 329 556 240 547 l 278 574 q 189 629 219 594 q 158 728 158 664 q 215 849 158 799 q 386 900 272 900 q 499 881 447 900 q 590 828 551 863 l 597 643 l 586 643 q 523 813 571 757 q 382 869 475 869 q 265 833 307 869 q 224 739 224 797 q 243 678 224 706 q 304 636 263 651 l 451 583 q 576 512 533 554 q 618 393 618 469 q 485 225 618 243 q 584 154 550 197 q 618 49 618 111 q 552 -108 618 -68 q 382 -149 486 -149 m 431 244 q 522 289 492 254 q 551 374 551 324 q 523 459 551 424 q 435 517 494 494 l 404 526 q 270 494 317 532 q 224 393 224 456 q 243 333 224 360 q 304 292 263 307 l 431 244 z "},"©":{"ha":1186,"x_min":42,"x_max":1144,"o":"m 586 -217 q 313 -144 438 -217 q 115 57 188 -71 q 42 343 42 185 q 115 628 42 501 q 313 828 188 756 q 586 901 438 901 q 863 828 735 901 q 1068 628 992 756 q 1144 343 1144 500 q 1068 58 1144 186 q 863 -144 992 -71 q 586 -217 735 -217 m 586 -179 q 828 -115 717 -179 q 1006 67 939 -51 q 1074 343 1074 186 q 1006 619 1074 500 q 828 801 939 738 q 586 864 717 864 q 349 801 457 864 q 176 619 240 738 q 113 343 113 501 q 176 67 113 185 q 349 -115 240 -51 q 586 -179 457 -179 m 708 432 q 714 483 714 453 q 683 572 714 539 q 599 606 653 606 q 474 541 519 606 q 426 372 428 476 q 476 174 425 242 q 610 106 526 106 q 731 150 688 106 q 789 256 774 194 l 803 253 q 740 118 789 178 q 596 58 692 58 q 414 131 478 58 q 350 349 350 204 q 419 566 350 492 q 603 640 489 640 q 744 589 690 640 q 799 458 799 538 q 796 422 799 447 l 708 432 z "},"®":{"ha":608,"x_min":42,"x_max":567,"o":"m 301 369 q 169 403 228 369 q 76 499 110 438 q 42 636 42 560 q 76 773 42 713 q 169 867 110 833 q 301 901 228 901 q 435 867 375 901 q 531 773 496 833 q 567 636 567 713 q 531 499 567 560 q 435 403 496 438 q 301 369 375 369 m 301 394 q 465 462 403 394 q 528 636 528 529 q 465 809 528 742 q 301 876 403 876 q 141 810 201 876 q 81 636 81 743 q 141 462 81 529 q 301 394 201 394 m 351 503 l 351 507 q 378 512 369 507 q 375 529 386 517 l 256 675 l 256 708 l 260 708 q 273 672 260 685 q 307 660 286 660 q 349 675 335 660 q 364 711 364 690 q 300 760 364 760 l 256 760 l 256 776 l 310 776 q 369 760 347 776 q 390 713 390 743 q 371 665 390 683 q 314 647 351 647 q 292 651 304 647 l 292 650 q 347 601 319 633 l 425 507 l 425 503 l 406 503 l 351 503 m 203 503 l 203 507 q 225 514 215 507 q 235 538 235 521 l 235 742 q 226 765 235 758 q 203 771 217 771 l 203 776 l 239 776 l 260 776 l 260 538 q 269 514 260 521 q 290 507 278 507 l 290 503 l 254 503 l 239 503 l 203 503 z "},"°":{"ha":396,"x_min":42,"x_max":354,"o":"m 199 586 q 88 632 133 586 q 42 743 42 678 q 88 853 42 808 q 199 899 133 899 q 309 853 264 899 q 354 743 354 808 q 309 632 354 678 q 199 586 264 586 m 199 638 q 271 667 243 638 q 299 743 299 696 q 271 819 299 790 q 199 847 243 847 q 126 819 154 847 q 97 743 97 790 q 126 667 97 696 q 199 638 154 638 z "},"|":{"ha":132,"x_min":42,"x_max":90,"o":"m 90 -139 l 42 -139 l 42 968 l 90 968 l 90 -139 z "},"¦":{"ha":132,"x_min":42,"x_max":90,"o":"m 42 251 l 90 251 l 90 -139 l 42 -139 l 42 251 m 42 968 l 90 968 l 90 579 l 42 579 l 42 968 z "},"†":{"ha":426,"x_min":42,"x_max":385,"o":"m 385 781 l 385 740 l 42 740 l 42 781 l 385 781 m 238 258 l 189 258 l 189 965 l 238 965 l 238 258 z "},"‡":{"ha":426,"x_min":42,"x_max":385,"o":"m 385 781 l 385 740 l 42 740 l 42 781 l 385 781 m 238 258 l 189 258 l 189 965 l 238 965 l 238 258 m 385 483 l 385 443 l 42 443 l 42 483 l 385 483 z "},"̈":{"ha":0,"x_min":-437,"x_max":-69,"o":"m -437 835 l -357 915 l -276 835 l -357 753 l -437 835 m -229 835 l -149 915 l -69 835 l -149 753 l -229 835 z "},"̇":{"ha":0,"x_min":-231,"x_max":-69,"o":"m -150 915 l -69 835 l -150 753 l -231 835 l -150 915 z "},"̀":{"ha":0,"x_min":-297,"x_max":-69,"o":"m -232 922 q -167 806 -203 856 q -69 714 -132 757 l -78 700 q -201 764 -147 726 q -297 857 -254 801 l -232 922 z "},"́":{"ha":0,"x_min":-297,"x_max":-69,"o":"m -135 922 q -199 806 -164 856 q -297 714 -235 757 l -289 700 q -166 764 -219 726 q -69 857 -112 801 l -135 922 z "},"̋":{"ha":0,"x_min":-261,"x_max":-53,"o":"m -111 711 l -133 711 l -133 897 l -53 897 l -111 711 m -237 711 l -261 711 l -261 897 l -181 897 l -237 711 z "},"̂":{"ha":0,"x_min":-317,"x_max":-24,"o":"m -186 899 l -156 899 l -24 749 l -107 749 l -169 835 l -235 749 l -317 749 l -186 899 z "},"̌":{"ha":0,"x_min":-321,"x_max":-28,"o":"m -190 736 l -160 736 l -28 886 l -111 886 l -174 800 l -239 886 l -321 886 l -190 736 z "},"̆":{"ha":0,"x_min":-346,"x_max":-67,"o":"m -261 885 q -260 797 -275 831 q -206 763 -244 763 q -153 797 -168 763 q -151 885 -137 831 l -69 885 q -106 772 -67 808 q -206 735 -144 735 q -306 774 -265 735 q -343 885 -346 814 l -261 885 z "},"̊":{"ha":0,"x_min":-231,"x_max":-69,"o":"m -150 739 q -207 763 -183 739 q -231 819 -231 786 q -207 876 -231 853 q -150 899 -183 899 q -93 876 -117 899 q -69 819 -69 853 q -93 763 -69 786 q -150 739 -117 739 m -150 772 q -117 786 -131 772 q -103 819 -103 800 q -117 852 -103 839 q -150 865 -131 865 q -183 852 -169 865 q -196 819 -196 839 q -183 786 -196 800 q -150 772 -169 772 z "},"̃":{"ha":0,"x_min":-390,"x_max":-69,"o":"m -390 746 q -283 817 -331 817 q -214 801 -250 817 q -183 793 -200 797 q -153 789 -167 789 q -117 797 -133 789 q -82 818 -101 804 l -76 822 l -69 814 q -178 743 -129 743 q -247 758 -208 743 q -277 767 -261 763 q -307 771 -293 771 q -340 765 -325 771 q -375 744 -356 758 l -383 739 l -390 746 z "},"̄":{"ha":0,"x_min":-443,"x_max":-69,"o":"m -69 792 l -69 753 l -443 753 l -443 792 l -69 792 z "},"̒":{"ha":0,"x_min":-231,"x_max":-69,"o":"m -150 932 l -231 1011 l -160 1271 l -150 1271 l -150 1093 l -69 1011 l -150 932 z "},"̦":{"ha":0,"x_min":-231,"x_max":-69,"o":"m -150 -47 l -69 -126 l -140 -386 l -150 -386 l -150 -208 l -231 -126 l -150 -47 z "},"̧":{"ha":0,"x_min":-297,"x_max":-69,"o":"m -297 -187 q -290 -140 -297 -157 l -229 -153 q -240 -192 -240 -172 q -226 -226 -240 -212 q -186 -240 -211 -240 q -142 -224 -158 -240 q -125 -175 -125 -208 q -146 -119 -125 -140 q -204 -97 -167 -97 q -267 -108 -236 -97 l -211 11 l -143 11 l -201 -90 l -208 -82 q -174 -76 -193 -76 q -98 -99 -126 -76 q -69 -175 -69 -121 q -102 -248 -69 -218 q -187 -278 -135 -278 q -267 -251 -237 -278 q -297 -187 -297 -225 z "},"̨":{"ha":0,"x_min":-254,"x_max":-28,"o":"m -28 -239 q -131 -268 -79 -268 q -221 -237 -187 -268 q -254 -156 -254 -207 q -212 -59 -254 -104 q -107 18 -171 -14 l -92 13 q -173 -60 -147 -26 q -199 -136 -199 -94 q -183 -177 -199 -161 q -139 -193 -167 -193 q -102 -185 -118 -193 q -68 -162 -86 -178 l -28 -239 z "},"̵":{"ha":0,"x_min":-443,"x_max":-69,"o":"m -69 792 l -69 753 l -443 753 l -443 792 l -69 792 z "},"´":{"ha":367,"x_min":111,"x_max":339,"o":"m 274 922 q 209 806 244 856 q 111 714 174 757 l 119 700 q 242 764 189 726 q 339 857 296 801 l 274 922 z "},"˘":{"ha":413,"x_min":67,"x_max":346,"o":"m 151 885 q 153 797 138 831 q 207 763 168 763 q 260 797 244 763 q 261 885 275 831 l 343 885 q 307 772 346 808 q 207 735 268 735 q 107 774 147 735 q 69 885 67 814 l 151 885 z "},"ˇ":{"ha":432,"x_min":-18,"x_max":275,"o":"m 113 736 l 143 736 l 275 886 l 192 886 l 129 800 l 64 886 l -18 886 l 113 736 z "},"¸":{"ha":367,"x_min":69,"x_max":297,"o":"m 69 -187 q 76 -140 69 -157 l 138 -153 q 126 -192 126 -172 q 141 -226 126 -212 q 181 -240 156 -240 q 225 -224 208 -240 q 242 -175 242 -208 q 221 -119 242 -140 q 163 -97 200 -97 q 100 -108 131 -97 l 156 11 l 224 11 l 165 -90 l 158 -82 q 193 -76 174 -76 q 269 -99 240 -76 q 297 -175 297 -121 q 265 -248 297 -218 q 179 -278 232 -278 q 99 -251 129 -278 q 69 -187 69 -225 z "},"ˆ":{"ha":432,"x_min":24,"x_max":317,"o":"m 154 899 l 185 899 l 317 749 l 233 749 l 171 835 l 106 749 l 24 749 l 154 899 z "},"¨":{"ha":507,"x_min":69,"x_max":438,"o":"m 69 835 l 150 915 l 231 835 l 150 753 l 69 835 m 278 835 l 358 915 l 438 835 l 358 753 l 278 835 z "},"˙":{"ha":300,"x_min":69,"x_max":231,"o":"m 150 915 l 231 835 l 150 753 l 69 835 l 150 915 z "},"`":{"ha":367,"x_min":69,"x_max":297,"o":"m 135 922 q 199 806 164 856 q 297 714 235 757 l 289 700 q 166 764 219 726 q 69 857 113 801 l 135 922 z "},"˝":{"ha":347,"x_min":86,"x_max":294,"o":"m 236 711 l 214 711 l 214 897 l 294 897 l 236 711 m 110 711 l 86 711 l 86 897 l 167 897 l 110 711 z "},"¯":{"ha":513,"x_min":69,"x_max":443,"o":"m 443 792 l 443 753 l 69 753 l 69 792 l 443 792 z "},"˛":{"ha":282,"x_min":28,"x_max":254,"o":"m 254 -239 q 151 -268 203 -268 q 61 -237 94 -268 q 28 -156 28 -207 q 69 -59 28 -104 q 175 18 111 -14 l 190 13 q 109 -60 135 -26 q 83 -136 83 -94 q 99 -177 83 -161 q 143 -193 115 -193 q 180 -185 164 -193 q 214 -162 196 -178 l 254 -239 z "},"˚":{"ha":300,"x_min":69,"x_max":231,"o":"m 150 739 q 93 763 117 739 q 69 819 69 786 q 93 876 69 853 q 150 899 117 899 q 207 876 183 899 q 231 819 231 853 q 207 763 231 786 q 150 739 183 739 m 150 772 q 183 786 169 772 q 197 819 197 800 q 183 852 197 839 q 150 865 169 865 q 117 852 131 865 q 104 819 104 839 q 117 786 104 800 q 150 772 131 772 z "},"˜":{"ha":460,"x_min":69,"x_max":390,"o":"m 69 746 q 176 817 129 817 q 246 801 210 817 q 276 793 260 797 q 307 789 293 789 q 342 797 326 789 q 378 818 358 804 l 383 822 l 390 814 q 282 743 331 743 q 213 758 251 743 q 183 767 199 763 q 153 771 167 771 q 119 765 135 771 q 85 744 104 758 l 76 739 l 69 746 z "}}}
